<mxfile host="app.diagrams.net" modified="2022-07-28T06:28:38.358Z" agent="5.0 (Macintosh; Intel Mac OS X 10_15_6) AppleWebKit/537.36 (KHTML, like Gecko) Chrome/103.0.0.0 Safari/537.36" etag="4cFmTYwJgnfx4zVgc-1X" version="17.4.5" type="github">
  <diagram id="m9FlwRU23LRCt-ZzXb_Y" name="第 1 页">
    <mxGraphModel dx="1754" dy="727" grid="1" gridSize="10" guides="1" tooltips="1" connect="1" arrows="1" fold="1" page="1" pageScale="1" pageWidth="827" pageHeight="1169" math="0" shadow="0">
      <root>
        <mxCell id="0" />
        <mxCell id="1" parent="0" />
        <mxCell id="0aMXtVE6ToLzCRf37EBO-1" value="" style="shape=image;verticalLabelPosition=bottom;labelBackgroundColor=default;verticalAlign=top;aspect=fixed;imageAspect=0;image=data:image/png,iVBORw0KGgoAAAANSUhEUgAABLYAAAI8CAYAAADsnSIRAAAEGWlDQ1BrQ0dDb2xvclNwYWNlR2VuZXJpY1JHQgAAOI2NVV1oHFUUPrtzZyMkzlNsNIV0qD8NJQ2TVjShtLp/3d02bpZJNtoi6GT27s6Yyc44M7v9oU9FUHwx6psUxL+3gCAo9Q/bPrQvlQol2tQgKD60+INQ6Ium65k7M5lpurHeZe58853vnnvuuWfvBei5qliWkRQBFpquLRcy4nOHj4g9K5CEh6AXBqFXUR0rXalMAjZPC3e1W99Dwntf2dXd/p+tt0YdFSBxH2Kz5qgLiI8B8KdVy3YBevqRHz/qWh72Yui3MUDEL3q44WPXw3M+fo1pZuQs4tOIBVVTaoiXEI/MxfhGDPsxsNZfoE1q66ro5aJim3XdoLFw72H+n23BaIXzbcOnz5mfPoTvYVz7KzUl5+FRxEuqkp9G/Ajia219thzg25abkRE/BpDc3pqvphHvRFys2weqvp+krbWKIX7nhDbzLOItiM8358pTwdirqpPFnMF2xLc1WvLyOwTAibpbmvHHcvttU57y5+XqNZrLe3lE/Pq8eUj2fXKfOe3pfOjzhJYtB/yll5SDFcSDiH+hRkH25+L+sdxKEAMZahrlSX8ukqMOWy/jXW2m6M9LDBc31B9LFuv6gVKg/0Szi3KAr1kGq1GMjU/aLbnq6/lRxc4XfJ98hTargX++DbMJBSiYMIe9Ck1YAxFkKEAG3xbYaKmDDgYyFK0UGYpfoWYXG+fAPPI6tJnNwb7ClP7IyF+D+bjOtCpkhz6CFrIa/I6sFtNl8auFXGMTP34sNwI/JhkgEtmDz14ySfaRcTIBInmKPE32kxyyE2Tv+thKbEVePDfW/byMM1Kmm0XdObS7oGD/MypMXFPXrCwOtoYjyyn7BV29/MZfsVzpLDdRtuIZnbpXzvlf+ev8MvYr/Gqk4H/kV/G3csdazLuyTMPsbFhzd1UabQbjFvDRmcWJxR3zcfHkVw9GfpbJmeev9F08WW8uDkaslwX6avlWGU6NRKz0g/SHtCy9J30o/ca9zX3Kfc19zn3BXQKRO8ud477hLnAfc1/G9mrzGlrfexZ5GLdn6ZZrrEohI2wVHhZywjbhUWEy8icMCGNCUdiBlq3r+xafL549HQ5jH+an+1y+LlYBifuxAvRN/lVVVOlwlCkdVm9NOL5BE4wkQ2SMlDZU97hX86EilU/lUmkQUztTE6mx1EEPh7OmdqBtAvv8HdWpbrJS6tJj3n0CWdM6busNzRV3S9KTYhqvNiqWmuroiKgYhshMjmhTh9ptWhsF7970j/SbMrsPE1suR5z7DMC+P/Hs+y7ijrQAlhyAgccjbhjPygfeBTjzhNqy28EdkUh8C+DU9+z2v/oyeH791OncxHOs5y2AtTc7nb/f73TWPkD/qwBnjX8BoJ98VQNcC+8AAABsZVhJZk1NACoAAAAIAAQBGgAFAAAAAQAAAD4BGwAFAAAAAQAAAEYBKAADAAAAAQACAACHaQAEAAAAAQAAAE4AAAAAAAAAkAAAAAEAAACQAAAAAQACoAIABAAAAAEAAAS2oAMABAAAAAEAAAI8AAAAAC81YuYAAAAJcEhZcwAAFiUAABYlAUlSJPAAAEAASURBVHgB7N13kF1nfcf/r7aqy+qSZcmSe+/GDYxtXMGFZgwJgQCBTCaTZDKZZEiGZJgME/iDYfJL/vjBpJDym0AIGFPdADfccMG2bEu2rGL1XlZttatd/c77EY+4Xu+urnal3bvnvs/M9d2995TneZ1rne9+znPOHXWgmMJJAQUUUEABBRRQQAEFFFBAAQUUUECBESbQMMLaa3MVUEABBRRQQAEFFFBAAQUUUEABBRRIAgZbfhAUUEABBRRQQAEFFFBAAQUUUEABBUakgMHWiNxtNloBBRRQQAEFFFBAAQUUUEABBRRQwGDLz4ACCiiggAIKKKCAAgoooIACCiigwIgUMNgakbvNRiuggAIKKKCAAgoooIACCiiggAIKGGz5GVBAAQUUUEABBRRQQAEFFFBAAQUUGJECBlsjcrfZaAUUUEABBRRQQAEFFFBAAQUUUEABgy0/AwoooIACCiiggAIKKKCAAgoooIACI1LAYGtE7jYbrYACCiiggAIKKKCAAgoooIACCihgsOVnQAEFFFBAAQUUUEABBRRQQAEFFFBgRAoYbI3I3WajFVBAAQUUUEABBRRQQAEFFFBAAQUMtvwMKKCAAgoooIACCiiggAIKKKCAAgqMSAGDrRG522y0AgoooIACCiiggAIKKKCAAgoooIDBlp8BBRRQQAEFFFBAAQUUUEABBRRQQIERKWCwNSJ3m41WQAEFFFBAAQUUUEABBRRQQAEFFDDY8jOggAIKKKCAAgoooIACCiiggAIKKDAiBQy2RuRus9EKKKCAAgoooIACCiiggAIKKKCAAgZbfgYUUEABBRRQQAEFFFBAAQUUUEABBUakgMHWiNxtNloBBRRQQAEFFFBAAQUUUEABBRRQwGDLz4ACCiiggAIKKKCAAgoooIACCiigwIgUMNgakbvNRiuggAIKKKCAAgoooIACCiiggAIKGGz5GVBAAQUUUEABBRRQQAEFFFBAAQUUGJECBlsjcrfZaAUUUEABBRRQQAEFFFBAAQUUUEABgy0/AwoooIACCiiggAIKKKCAAgoooIACI1LAYGtE7jYbrYACCiiggAIKKKCAAgoooIACCihgsOVnQAEFFFBAAQUUUEABBRRQQAEFFFBgRAo0HWmr161bFw888EBs3LjxSBd1fgUUUEABBRRQQAEFqhK44YYb4oILLqhq3p4z3XfffbFw4cKeL/u7AgoooIACCowwgRkzZsSNN94Ys2fP7rPlRxxsvfHGG/GVr3wleHZSQAEFFFBAAQUUUOBYCBw4cGDAwda//du/xT333HMsmuU6FVBAAQUUUGAIBU455ZQ46aSTjm6wRZHR3d0dZ511Vtx5551D2B03pYACCiiggAIKKFB2gccffzwYcUW9OdCJenXq1Klx++23x7x58wa6GpdTQAEFFFBAgWEU+L//+79ob28Pjuv9TUc8Yiuv7NRTT40vfOEL+VefFVBAAQUUUEABBRQYtABXBhBsDXaaNGlSfPzjH4+rr756sKtyeQUUUEABBRQYBoEXXnihqlsLePP4Ydg5blIBBRRQQAEFFFBAAQUUUEABBRRQYPACBluDN3QNCiiggAIKKKCAAgoooIACCiiggALDIGCwNQzoblIBBRRQQAEFFFBAAQUUUEABBRRQYPACBluDN3QNCiiggAIKKKCAAgoooIACCiiggALDIGCwNQzoblIBBRRQQAEFFFBAAQUUUEABBRRQYPACBluDN3QNCiiggAIKKKCAAgoooIACCiiggALDIGCwNQzoblIBBRRQQAEFFFBAAQUUUEABBRRQYPACBluDN3QNCiiggAIKKKCAAgoooIACCiiggALDIGCwNQzoblIBBRRQQAEFFFBAAQUUUEABBRRQYPACBluDN3QNCiiggAIKKKCAAgoooIACCiiggALDIGCwNQzoblIBBRRQQAEFFFBAAQUUUEABBRRQYPACBluDN3QNCiiggAIKKKCAAgoooIACCiiggALDIGCwNQzoblIBBRRQQAEFFFBAAQUUUEABBRRQYPACBluDN3QNCiiggAIKKKCAAgoooIACCiiggALDIGCwNQzoblIBBRRQQAEFFFBAAQUUUEABBRRQYPACBluDN3QNCiiggAIKKKCAAgoooIACCiiggALDIGCwNQzoblIBBRRQQAEFFFBAAQUUUEABBRRQYPACBluDN3QNCiiggAIKKKCAAgoooIACCiiggALDIGCwNQzoblIBBRRQQAEFFFBAAQUUUEABBRRQYPACBluDN3QNCiiggAIKKKCAAgoooIACCiiggALDIGCwNQzoblIBBRRQQAEFFFBAAQUUUEABBRRQYPACBluDN3QNCiiggAIKKKCAAgoooIACCiiggALDIGCwNQzoblIBBRRQQAEFFFBAAQUUUEABBRRQYPACBluDN3QNCiiggAIKKKCAAgoooIACCiiggALDIGCwNQzoblIBBRRQQAEFFFBAAQUUUEABBRRQYPACBluDN3QNCiiggAIKKKCAAgoooIACCiiggALDIGCwNQzoblIBBRRQQAEFFFBAAQUUUEABBRRQYPACBluDN3QNCiiggAIKKKCAAgoooIACCiiggALDIGCwNQzoblIBBRRQQAEFFFBAAQUUUEABBRRQYPACBluDN3QNCiiggAIKKKCAAgoooIACCiiggALDIGCwNQzoblIBBRRQQAEFFFBAAQUUUEABBRRQYPACBluDN3QNCiiggAIKKKCAAgoooIACCiiggALDIGCwNQzoblIBBRRQQAEFFFBAAQUUUEABBRRQYPACBluDN3QNCiiggAIKKKCAAgoooIACCiiggALDIGCwNQzoblIBBRRQQAEFFFBAAQUUUEABBRRQYPACBluDN3QNCiiggAIKKKCAAgoooIACCiiggALDIGCwNQzoblIBBRRQQAEFFFBAAQUUUEABBRRQYPACBluDN3QNCiiggAIKKKCAAgoooIACCiiggALDINA0DNt0kwooMECBjo6OWLp0aXzve9+LlStXxr59++Kyyy6LSy+9NE4//fSYOHHioTVv3bo1nnvuufj1r38dr7zyShx33HFx8sknx/vf//6YO3dujBo16tC89fjDm2++mVxef/31WL16dezatSu6u7ujsbExOc6aNSvOOeecZHbSSSfVI1Gvfe7s7Izt27enx7Zt2+LE+SfGzBkz07zPPPNM3HfffbFx48YYM2ZM3HHHHXHGGWfE1KlTe12XLyqggAIKKFBWgba2tli0aFEsXrw4lixZEjt27Ii9e/em+mvcuHExefLkOPPMM9NxkvqM1/K0du3a+PGPfxzUKJs2bYr3vve9cfXVV6fjaUtLS56t12fqxH//93+PDRs2RGtra9x5551xzTXX9DpvzxfzMZ52Uz+uX78+He/3798fTU1N6dh+/PHHB3XRBRdcENRKY8eO7bmauvz9wIEDQV1EzU09Tg3Z0NCQXqusxy+++OLgwfuTJk2qSys7rcCxEDDYOhaqrlOBYyRAYUGR8fOf/zwWLlwYW7ZsSaEMr8+cOTMmTJiQCqaurq4ULjDfz372sxRwzZ8/Py6//PJ497vfnYKtY9TEml8t4SBF4rPPPhsPPvhgvPjii0HItXv37qAooQjBkcKN0PCd73xnKlDGjx8fo0ePrvn+HcsGUpBv3rw5FW08EwZSiOdgi8L9Bz/4QaxatSrwOvXUU2POnDkGW8dyp7huBRRQQIGaE+AE0BtvvJFqsKeffjpefvnlIOhqb29PbSUMItgi4LjyyivTayeeeOKhoIM65f77749f/epXqc7LQQnPhwu21qxZE9/97nfTctQtnGCqJtiiPuLYTn35yCOPxMMPPxysi75QVxJssb4TTjghhTL05cILL4zTTjst1U71fsKUIJFAkLqboPLss89O+3Xnzp3x/PPPx09/+tN48sknUw3Kyb8FCxYc2t819wG2QQqMQAGDrRG402xy/Qpw5o2CggKFgoJgi7N5Dz30UFxxxRUpjKHw2LNnTypGnnrqqVixYkUCO/fcc4szfrfEjBkz6nq0FmdBv/Wtb8Wjjz4aL730Ujp7SjFHoMXEqC3OqhLaMC+hF+8TchHU1POExRNPPBHf/va3k9d5550XPPKUz+ZSsPFobm4+5Jrn8VkBBRRQQIGyC1BjcPKM53Xr1qVag5NneeJEEXXcL37xi3jttdfSCaHrr78+brjhhjzLkD/TTurG//qv/0ptYuQ/I7ioizie035CGkaEMTKb4O6WW26JP/mTPzl0zB/yRtfQBu+5554UXrE/qdN/7/d+L9kR+FG/59qIcBDPeg8Ca2jX2ZSSCBhslWRH2o36EOAyuenTp8e73vWuFFy9+uqrqchgpAwhDZd8MTycooMRSYycoShhNBfB1qWXvqOuzw5RtDG0nrOQDBVnyDjD6HlMmzYtnY2kgOPSREbGUdThyplVbE855ZS6LkQ4k8tnjTOSjNTibCOXw+aJs80Uc5y1xKznpRV5Pp8VUEABBRQoowAnFhnhxEkgQi1OLhJicLykzmDEFQERo7cIh6g1CIg4ucZxk8v7GPE81BNtom7kdgIvvPBCOkFKe6gpqSH5meM9J/6WL1+e+khfqUkZ4cXxnlqqnidONHMVALUSI+7yRL3E7UK4MoBLD9/xjnckL0ydFFDg6AkYbB09S9ekwJAIcFDk8jjOCHGpIeELB9HHH3/8ULDFtfy//OUvUwGSD6jnn39+GnGURyYNSWNrbCMEMo899lgKtSg8OWt27bXXxoc+9KE0rJ6Ck+H23MOMIeMYUpxwRpURcZxJJVys17NsFLSEgfkMbs/dyyUVBKgY8jnjcglGcTkpoIACCihQDwIcI7mnFpcQUqcxMdr7ox/9aKrduCyQiTCI4Os73/lOcJKSk22cQLv55ptj/oL5zDJkE6EWx21O+j3wwAMptJoyZUoakf2Rj3wk1T6EMNQAXJr4ta99LV2qSFCzbNmydNUAI5LqPdjCh8CS24NUTlgyGo9bgfAeQSe1kfVRpZI/KzB4Af/iGLyha1BgSAUIVTgocsNRbiZKEcJIJG7cTVHE2T6CLYokLqHj3lof+MAH0j0WCGWYuMSOwot5OJvIZXcEEQyTpgBj3ayHG84zcaN65iVIY2Kd1xQjc7jxJRNFGQUaI8UY8cTBm/c408c9l7i/BOEbZywJkmgfxRBn+yiWaDf3mOCyNsKlfLCngGKEEEPj6SNFFJdSUjxxlpB+UBxecskl6XHWWWel5VOjevkP7cxnIik0uDcEo98IY1gfhRntv+qqq9LPhIJcLsBZVtadJwpAHpyRZURXvkcXy9I++kkQxmWj+ewsZ2T/4z/+IxWGbHvevHlpP1L4UgixLPejwp82sZ68vyiW6Cf36GC/5Xt0EHJyFpD+V97Linbhji/hEvd5YBssy73DuB/GtdddGx37OtK+w4U+MD8T/qyPEWrsF37nrPK9996b9jP7gc8W+5zLYTH44Ac/mEZqMQ9nodmvt99++6Gbx+O1ecvmeO7Z59Lls5zxzaO96AfbIhjDBW8mzDiDTN/ZJv1kPYyo4/OEA2e2MeALFPDms+SkgAIKKKDAcAgwUp5aiZHL1Gocczk+vec970n3N+V4x3Ta6aelOoPjHMd4jmkcZ7m3Fcft/k5CchzkBBMnNKlp2CbHZLbHSUxqulwnVGPAcZx1UAewLOuhTuBSOmpB6iPqAGok6iIuP+RYy3LUg9RuzJMn1kO9Qt3IejnWsyx9zyfAqDGoOZkGUydS27AN6h7qSk5G0lbulUo9gQf3l6WewoQ6ldCRE5fUHdRjLMN6qPeuu+66tAwBFCOwqFfZP9RH1N/UHNQorJPakTqZKwG40T/P9JVlGbn1mc98JtVz1CichKaexQSDiy66KNXJ+fPAvqf9bI8ah/lpM9ujH9TUbDOfMOQzwL28uLUGfaBmZD6Wo66kpsz3Q8OALx5gffV6YjZ/Nn0ut4DBVrn3r70rqQAHJgIQAisOvPleUIQAHNw5oOZvw2E+AgaKEA62FC0EBdz7gcCIgCEfsDlgEuAQyhBMUNhw0GZdBGfcW4mJIoZvVszBFuvgJqcckDnYUsCwPYIt2sMIKA7a/M77bJcDL6Om2CYHZYo0QiDay4Gc+QhcKBAJS1iewo2D9+zZs1O4RRFAu/K38HFQZx19TcxPUUPhQVsozig46UueOPBjwHZYF+1ge4RVuSDAEBOKCu5vRvCHIWc9KXjoA8vlwoefKby4mSttxYZCh8KLIofikIKKYIZih+3hT8HDelcU4SMOFGLsO/ZjLrBoK/e8IAxjfRSkuHEWmEKN31knPzNijX7TLs4aU0j/5Cc/SYZsA1+KIdZN0UkxxL6hHRRabBtD9hVFN21jH9J2iiaCs7vvvjv1lbZwaUIO3Ai1Xl74choJx+eE/cB62BaFMmEqBRn9oNilIMOMIp++8x7FMgUrgSdBJ/1mPj6HtIFAFVsnBRRQQAEFhkOAYxPHuFzfUEdxUoYTaZUTX7rCI9dhhCc8WJbAhECsr4kahFqCGoTjI8dG6gLqBn6mhuKYWO3E8ZVahHWyHuo+jsmMZudYT13ElO8RxQlK+sVy3ACfYz3LsCx1Aev60Y9+dOiWGLxOLUK7qFeZh2M9tQ6vD6ROpMag5qJ2IeDj/laEhLSJ9lJXcHsE+kQ9xwlRag5qD+pV6jH6yGWWzEONRLswpE/Udaz34WIUGyfWqBvZXn6ffUCtS/1BYMUof+okwjPm4+fvf//76We2y35hfTz4jLDs/CIUpJ28jxlXFLBP2TafBezZHv2gxqIm5WfqTLbBZ+U///M/D9XF9IfPHbUYfcGB+hYT3qOWY31OCpRVwGCrrHvWfpVegD/gCZg4qHJgJ/gh0PjqV7+aDqgERozUIdTgoM7vHPAoojizxEGYwoeDIwdxCg+CAg6unL3ioHjjjTem8OdoYRJIELgQdtA2QhJCHQ7i+SwlQQqFDoUE7SR4YR6KAA7otJf2USRQiFQ7sRzryZfScYCn0Jw2/eDooMr1ELbwPgEQE9umGKDI4D2MKKJocy4iKeoIWSiQOINKaMTPFBOVE+a0n/VQUBGCUawQUFLsEE7yGvuLG9ZToFC4UiSyjwl22J8YEa4RYlKoEUpR7PBengipKL44i0hByvs5aKLoopik8GLfs14KaYo3nHKYSTHIGVuWo730E3cKpnwmkbCM4qy/6cEHHkz7kkKMgo220W9M+Z1+8HngZ/pG8Fc58Xnk24RoI0U0+wNHPlMEbhRu9I8/CLB1UkABBRRQYKgFdu3amY7VHEs5jnN85KRbXxPHVmobTjxRH3Bs5hjbX7DFiUHqo4eL0IXjJhPHZoKifP8raqhqJ4671BEsQy3Aetg+P/d2PKUuYHt5lBjHf+al3dQb1JfULCzLsZp6lb5RE3EykJNW1A+to1sPfatybmu1dSLLc9KQGvGHP/xhqsWoS6gPsCdgInBiu9RBhHQ96wq2Re1AjUf7CcsYecbyBF/U1NTN1FVsDx/WRfu5RQW1E+/RP+o25sWSoIr6hv3OvsWK/drbhBm1HyeOsaFGpS20gz6wLvrBfOzbT37yk3HTTTelWjivjzbRFzxoDyenGTFHiMh+pe6nFuVELu10UqCsAgZbZd2z9qv0AoQoPDgTyAGNAyIHVA68hDgcFAlmeJ/Cgtc4YHL5GMOwOTBTAPCYX5w14kDOwZUDOe9x5oiQiTNzHCyPxsTBmrYQanGwZ4QSlykS5hBuUdhxgCZYoXAjQKIQYhnODnLGiv7RX0ZqccCvZqL9PFiWIoefCXo4kzVh/MGzfqyLvnM2rbeJNmNF4EUIRVFD0EQIw7By1sU6GVXFWUMKkHyZIo55ohBkWxQXhDCsl3CMNrEMgRjrpwgh2GIdtGlFEV5SdHHTUQpOCjjeo2jJ22J9lQET+5zCkgKLEWcUdRTZuFPI5bOBBEKskzZRPLF97NkP9IV9RVvYB7SVsI3PHkUbny8uV5x03MHLK3I/8zOFGethH7PP+BmPPBqMNrI+9j8FOgUYARqFc88pf66vKS6DJeiibRTQFJP8zueCzzH7BB8nBRRQQAEFhlKgvX1fOo5ynKcmoBbj5GFfE+8RjHDM4vjFMZjjZn8Tx3xOePHMSSKO/RyfOVZzYo1ainqPuqKaibqIE0XUJ7SDIIZaJ4danPQkXOE4zXG2cqIWIPShDqLG4wTU888/n0IVTopxrKe+oJYjbKGWocagnRznGbVWOVVbJ1Lvsk7WQ+1AiEiNxj1o8csn7wh3qI9pB+9TR+SJfUTNxHsEQvSd2ouak/WxX/IJMwJI9k2+MoI6mX5QV1ILcQkjr1EXsk+oY973vvelk8v55GXebuUz7Xu4CCjpBycUqY+o1zhxTT3M+5y8Y71sH1P2d2Vdyf5jP+BMX84995xUB9EO9hnrwJ76z2CrUt+fyyZgsFW2PWp/6k6A+0FxEGckDIUMf+Dns07c04HggYkDHIULwQtFAAULQ8E/8YlPpMvSOPNEsPV3f/d3KfwibCDw4sDKwf9oTJwF5PJJCgAKDA64FBkUChywOXDngoRChN8pNAhkuJzyj/7oj1KhRgHwpS99KRUCFFyHmyjuOPDTD/rJRPFE4UYIkt/nDOhXvvKVXld35513xoc//OFUPOJHCIYzwdRnP/vZVGywIOskbKGNFIA8U2jkif7yoPj6wz/8w1SIECJRXHHJJstQ3FCwMRFesQ5cKBz/9m//Nm2D/jz99FPFMnen/UnAhWO+MS3Lsh3WSxDEZZfc/J4wCwe2gR19P+usMwvjM1IxlUeNff3rX0+FLMUjnx0KIj5LvE9hSt8pvG699dYUfuLY28Q2+ExSaFNcUXwRzn35y19OxTCfL0a+0XcKUQpF9j2XFVZOuWjlM/3pT3869Y1QNI8Ao50EXBSZFJF8bpwUUEABBRQYSgGOrwRUHDc53nIMJijpa+I95qEmYxmW7SuQ4pjOPBwr820JCDM+9alPpeM84QwnwvhmQ+69xHGxmolAi2Mn280nvAjl8kTtyKgoLpOjHqmcCLUIcf7yL/8y3caBkeC5xuTE6Oc+97kUlFE3cFKVS+c4QcbIrnzSrHJ91daJ1EjUQNSRmHNbBu47iwUTo8CZh1qNugIz6ib88sQJPurcP/uzP0v1Ta6PqD2pmTChf4x0ombds3dP/NP/808pvGNd1Bxsm6CJGon6mgAJT+b/i7/4i3QSkbqObfU2cYKOUWfUVtRHnJC+9db3Ffct/VCq+wgJqZdYL/NQS1GfE3Dlic8Fdc9dd92V6msCw3Hjxqc6iH1HWzGv9vOQ1+uzAiNNwGBrpO0x26tADwHOKHF2h7MwHIQ58FEYcJkdBU8uTggQOMDloIIzcixHEMI6ONhTYHHmifeYjwdnBKsJjziwHm5i/bST7fEzzxR0TGyf0In15LNUhDkEGhQ/PFiG91mOYoSCJgdA/W2bkIOigvCFQIvijW1RlNBX3qOo5H0KCybmoTjhwbwUm7SHgofl+Jn1chbzH//xHw+dkSVg4qwd81NMUNBQ4OSJbfDIlwXSJwon+kRfmSiU2CZtIKxkP/Aao9i++MUvpvl4n9FdGDCxj9i/tLdyYlvZL1vzGmeRKcRoJ94Uo5wBzmchaTcT22Xf0FfseGBFAcjPtDm3u3K7+WfaTrsILpmfzyafOwph2kH/CboocnmffvAZJgyr/EzxHkU7y+XPNP3hwXvMixftrVwut8NnBRRQQAEFjrUAxyMeHCM5dlKXUS/0NXGsy8e7XIf0dWKGYxzHUo6TrJNjISN3GIXN8ZHjKfUGdVZfQUpv7aC9rIvt5jZTv+SJvnCcZ53USLSDB23ItRG1B79Tl+T+MLKdQIljPXUGI7apLViWSwCppXpO9KGaOhGHN99cmXxpAwERt1bgZCATtROv4c/71CJskxohT9RehEDUXwRD+PM+7eM2H9RXtJfaiPCJ+o8TiNQYPKjDcn2EHU5MrIff6Quv9bU/mReDFUXohxn1DIHVOeccHH2PNXU8dTonI6ml8CWkqryskn3Dtqiv+BywHP3hkT+H7B/65aRAmQUMtsq8d+1bXQhwIOTATEjBQZhQgAMhI4kY4k7BwsTBnQMoxQoH3XxA50CYJw6GHBQJeyicmJdRNhy8+5vyQb6/eXgvH6THjR936KCfQxGKAx6si+KIooQCg4KANlF4MNF21kO7GR1VzcQ6eFC4UZhR5FBEEOI0NTel9fE+jgznZ8p9xy33n/ZQGFGg0U4KBUy5fC475/YwoomiIhdJ+XXm44E/7zPlgIc2sF4cKED4me3T1hxkcUaw50TYw/pyUVX5PtuiXwRpecpFF89sh3COQI6iiaCQwon+067clrzskT5jlc+U0hbaWhm48hrm7E/aT18pQNlHlRM2FPCV+5z5+fywDqbBtrVye/6sgAIKKKDAkQrk4znHPo6vhDnUM31NOXBhXpblWJ7rop7LMA81AcdnaguOh9QR1GwEG0wcY7k1Qj4u9lxHb79TG+V6kW3QJh7UIEzUTRyjCZzYNg+CJcKWPOWaiPZRw1FfENgQBvWc2Bbr7K1mOZI6MZ/My7UY22a0WOWUT4BhS7upE/KENSf5aAvtZeKZdvFgvzHai7qabfHI+5L1VK4rr/NIn2kzdSV9oMbBmJORTNQ9tJGTgYzsZ8KdOo3588S+pg98HvLngN+xpB/sG/Zr3p95OZ8VKJuAwVbZ9qj9qUsBDlwctDkIMnGQ43dez9PBg/XBA3d+rbdnDnyVB798sK+cl4N55TwcMKs5aNIe2tYw6uBN2Glv5frzOnmu3Aa/5/doBz9Xs73KNvMz4Q6FA4UmgRTD4ikCZkyfkYoCLpFkxBoTxdF///d/pyHfFB5MuV25mKGgpIDkskLCt55TPtPGM8VInuj32/fNb/dV7mveHs+4UfBwA9TeJrZPMZQDwDwP26G4aWk9OBqM1ym4OavJpZfc4BVL1k/hSsjEgxFUzMf+qdxHeb3VPuflB7MOtsXy6bNT8ZnmdfrXc915//C+kwIKKKCAAkMlwEktTiYRDBE+cNKIETZ9TZyQZGQ881JTcC+nfNKrr2UqX+95/OOYWFlfVM7b188EIhz3CVEIzBilxIk/giBCNoIobgPAlQAEO/SJe2b+4Ac/OHQSijqFB/UEE8txqwxuZN5zInQhUOLywZ4Tba+2Tsx1IHUcI9UY2dTbOtkG9wKlBiSkyhPbqQy1eJ39xuV/3/jGN9IoeWo32kpgyCgpgi5OZvZ0z+s8Fs/Ztq91Y5br/zwP7av8HLAOJwXKLmCwVfY9bP/qQiAfwPKBlmcO2JUTB+9x4w6eCeQAR8FCwMODIiq/RtFCoMHvBCIUAhzoOUCyXkYOcTYuj2LKy+UzTj23W9kGlu8ZZuU2V85HWykOWRcjdzg7xfqZKGTYPq9VhkWVy/f1M8HP/OISRkajMSqJYfKTJx+X+kg/Gc7Pg7OQuc/0L0+0ncIPF9rNg98p3LjhKEYrijOUtI3ikJCJYiifQWM9ebme/c6v523ledkWHvSb4pJtYcP8nD3csmVzUWge/NYettXzTC/z0e7Ght/ecwo3giuG1HOvhlNOOSUVhfnm83w2CPZysJXb1LPNlTZ5np7P+TNEu/jM8HnDnn1I+IoTZ3R5jUCKM8eYMn/PUVtsv7JQq/y553b9XQEFFFBAgaEWoJZgxDwBCiPeGRHNfakYccPJI47jTBwL872yCL44FlKLce9KgpTeJo55HCN5cIykLuDEG8dslueYSu1CvXQkJ3ioVQiE2C51F+skwHnggQdSX6idOIlH+zl2U0P0PP5yfGZZjvm0jfawDF/6Q83COqlZaBu1A+viRGPPKdcslfVG5c95fraBF9ukLdRZhHPcj5X100Zu30B7qaHYFqO3KgMglsvL5/US6nF/LvYZluwvaiQuEZwz5/jkmoOtnu3i98rXqq2R8CHYxIxAkZqI9rJ/GcXOZ4m2MNEH3mNf5ylvt3KfHGk78rp8VmAkC7z1L9+R3BPbroAC/QpQAHAw5OBPwcOIpXymkLNQHEA5mFJo5cKDgy2jhAg5OPgzceDlAEvowEGbsIJ1sSyv5fn6bcxh3qSNnPGkQCJoY/v5jCftZHvcO4Ew5Egmwidu5E6hSVHJN0RSyM2aNTt9cw3D+ekTYQ+jubDIo7XYDoUUI6M4u0nRQMFE0cE6cKJ4IjDihuYsR3FLoUWbj3Ri/Viy3yhkKNJoG4ULBSFFDSaLFi1OBTOBF+3qbVs9w8QcbLH/WSf3uPrd3/3dZEPhSeBF4ZynXCzl4onXWY7PEc/9TXyG2J88KNwoGlcU4R8+9IuQkbOjvMZnidfY93n+/tbtewoooIACCtSSACfHCHOoBahTOE4ThHC7CL4UhWM6x03qmgcffDDVCxwXOXZTS1xzzTXpBBvH4p4TNQHH+Xzyh2Mq9RB1EuEWdQEhCNvkvWonakOO1bSdYy81AsHWv/zLv6TagOCLdrONXCNw3Ob3XB/wTA1EHUWtlGsnagkupaOe4kbujBanbmIEFSfjBjphwOg21o8dtQQ1CgEdtQR1HLUMtR79ow1sj3nylGuaytcYjUYIyfoItbgBPl96RHtp9+LFrx2qeyqXY52Vv7OPaVf2ydvs+Yw7NR0nEqkpCdUIEukHy7Nv6Uu+7JPglPdHjzl4P9ie6/N3BepZwGCrnve+fa8rAcINiqaLLrooFRwULdyviaKIgosiiLOLFB4URxw4uXkmxQPLEehQrDA/83EZG88UNgQ5FAGEXkdj4iBPEcG33nH2itCDG3dSKPGgQKIopAg4kolh6oR2FC0UCvTlscceS+uj4CFIoxihyGQbOTijkMSASwpx4HJFiiSWp4jkW374imuKP741CFsKUAoQCiPcBjoROvKgGMSBbyvkd4pPLgUgnKJP+Suq+yqiKgsu5slnfGkX+5EilSKKSyLoA0UUFhSIeb9StLIcy9N39jvz0Iabbrqp1y5iR6HLZQK4sP9o99/8zd8cOiPJ/uDMKuslIOTbOilE2YaTAgoooIACI0Ug11mM8GH0NsdSgia+pZCTadQJHDcJiKgzeFB7UFfwzcOcDOOY2VuwxXGcWo6RUIywpg4iuPmf//mfVNdQyxGiEegQlFQ7cezl+M5tFQhSqIs4VlN38My3LFILUidyYpPAjtqH2oD+cNzmmE276Tfr4EENRw1BfYIDNQN1FWEOJ9QGUxtRs/Fthffee2+6NJL18w3LnByjXdQ11GX0DRfqxYbG397yoS8b9gV1Dtb0nb7yTYRM1CrYMlEvsR32ZZ7oDw9O8lLv/P3f/30agUcoSCjW2zS/uIqAyzxxpcajzdixLfYhNTD1KicSCfKoY1MNOKbvb9rsbTu+pkA9CBhs1cNeto8KFAIcpCk8CA04gFI0ccDk4E9hwgE6BwkEMnzlMEUWB3h+J2xiPoooDroUTxzwOdhy8KV4qAxPBoOeR2sRhhB40F7OYhE4USRRXB1pqEV7COtYnvCOooSvT6b/ONB2HhQpuVAh4COYolClLRQVGPAzRRlhEMXUww8/nIat8x6FJiEfy2BCsFM59P1IXQgX6TdFJAUh385DwcR+oQjCghAtn8nl+XATy+a+EJDlApB9y3bwoQ84EFxma4oz+sjyvM/+55n9T2Da20SRyba4vAIb9ifb+973vpeKW2zYLtvic3bxxRfHNcUZa9ydFFBAAQUUGEkCHPN5cHIuhzsc4xYuXJhqjtyXXGcQhFDzUJtxTypOoB1uIgzhnqAc/zmuPv744+mZgIn6gGMstQ41SDVTrt1o84ED3WkEPsd3ai9ORDGCnXqINueR+dQaHN+pq6gVqREnHTcp1Y7URZzw4kHdQjBEncDvrIc+E5TxGOhEPUtARhBI8IMx22G0GX2ndmHb1GLULGw339+1v21S49AX1k3/OdlH/6nD2IeM6KJuwiLXomwPD4I9HmybffDtb387tYs6DrfeJgLNG264Ia2bKx9YjpOV1EqEYdRfbIf6iECLQJMTq9SwTgoo8FaBw/8F9Nb5/U0BBUawQB5WnYsKDtIcrDmIMvE6hRFFym233ZYupeN1DuKEOe973/vSz4RMFClMFDUUYhRQDL0/GgdbzhxStNxyyy0pFOLsIUULYRwFIEEJRQpt5+BPOMIjF2epYX38h4Lld37nd1J/GLHGWTGCLc7MUZwwUWzlAIsigpCPM460ie0Q0vzBH/xB3H333SngoxjhzCxFFAUUQ8hvvPHGdNkBprmA7aNJ/b7MpZNsM4+Mo6gifKKvFFJsi8sQKXJxwe5wE/2gkKJowpS+s085q0wRSGhHMUtxSp+Yhz7MO3Fe6jufBYo0glDaxfKH2+94UJhxdhVzzlJTgNIPimPuYUFRTT/yiLTD9cP3FVBAAQUUqEUBLjvkeEqNxEkwahVOBOWAg1qBk0WEHtRcXPJGSFPNxPHyzjvvPHTSiVqIYypBDKOTqMkYbcUx9kgm6qsrr7yqqCNGp9qGEVfUGwR01Ef5eE2/CGQYncUN5XlQW1ErEtAxLydL6TP1A3ULdQxhESfBmIeTWKxnoBM1J3UgtSqOjDTHgfCMdlILzS8CQOqjj3zkI6m2rWZb2FLfEpZRF1HfEWzl0Io2Uw9hQu1DncTPvI4DwRQj86iP8KfOoj7qqw5kvdSXtBF/zFknNSX9YAQZnyHq0DvuuCPVR9X0w3kUqEcBg6163Ov2uXQCBDEEMBQSDM8mIOCMDoVT5ZSHuzPKivc4WFJwUAxRdBAwUGRxcKZgIdxhIkBhvYQObIuf2RbrowggsGB9HJQ5iLOOvCztIjjjQM06CdcoODhgE/rkEIj1UtQRunB2qm1nWzrrSdBGcUBBSDtoM8UR68sjzHid7VczzJzCK1+2x7YoAjkjR2HCdploI5cc0h7uk4UHBRTbYaKA4YwsxQ/zrihGTtE+XFmO4Ieh5TzjSlGDGYUuRSJuvJcnijL6xWUA3OOCYAdXJmwxpIDCl1CIMIltURDhx3KsDxcm9j1FMn1iP7DOysALA7ZxTTEyiiKbwo32588H+w8bAj/2EUPfmSYfNznZEYpxKQT7AAfWxTN94N4i9JHPErY8M9E+fqYYZT7OBtMPPgdsi35Q7M5fMD/1i2WwJNjDj/bx+ak8m03/+ayzD+jrOeecnfqAuZMCCiiggALDJcAxkmMytQnHYEaIc5yiRmLKJ9A4xnGyjLqEWiBPHN84ycR8HKOZj/c5vvEeP1OTcTzPx1OO17nO4ljJ9jh+VtYbef29PbMuAqvxE8an2oO6hTqAkIWRQxyv6Q/r5vhObUS9UXlc5gQb7WYiXOOEGcd6ahDqBIImgjxMWBfTQOpE2oIFdrSb+gUH6hLqDOznF8EWbeGSRWo47Gkfv1NXUruwbYzzRD1BzcPJOMI61sn6qF+wYbvUzOwTtkGdwvtM1E7UxvSLQI+Aj/2BP3UO7WU9lTU67eaBC/uV+hIzTioyP/uZ5TFjRB/9YKIduZ0sT82Y627e52faw2eE9TAv/XFSoMwCo4oE+bcXB1fRU1Loz372s+kfgu9+97tVLOEsCihwrAUoXAhlOKByIKWA4ODHg4Nfz4n5mZdn5s//DDAvyxDg9FyWefJZuBwAMT/z8syDdTIf2+d1HnkYNUEM6+QATBHA/MxLsEKxwWscfClQKKIoJhhWzsGdcIeAiyKK+QiivvnNb8ZDDz2UCqePfexj8fGPfzwuu+yytxzYe/a78nf6XulA+/JE29hO7kPuY36fZ9pOf7M5vzPlflBgVi6HHf3M26GfzMNEO3gdK37GAcP8fl/bop2Y8sjbZX3sHwpJluN1iqzKtjBPXif+bJvfK/tNv3JbaUsuQGkfy9AfHrSVdbNfmT+HbqyLZSo/R5XeLMs2mfrqB/NkY+bFg/WxPSbWhxnz8TOmtJX1OSmgwMgV+MpXvhJ//dd/HV/+8pfj85///IA68uEPfzhd3sMNsAncnRQYagGOW/k4lo95lce9fOzjmNbzGJ2PtRwD+ZnjKcdAjrl5qqz7WC/rYz0c91mO13hU1ht52f6eWaay3bkWYBm2keuNnrVHXifL5uVpe55YjmV40I98rB5InZgd+mprtsjb4/fKedkmVrzf05U2Y0sfcvvz+ugLr2HCa9jmfZf7zbLZjHXzPstkE+qUynbldTIP+435aCtT3m7P+XmPPlTWz7nW473cFuo1JtrAdnl2UmCkCVR7PPfTPdL2rO1VoBcBDvAc0HhUMzF/LgqqmZ95OLjmAysH8t6m3rZP4MGjt4l19vY+BQEHdy6HYyg42+OMFUEX7zHUm3t8EYCxTc4qzi/OzPW2/d62y2vZgKJjIBNtZ9lql6eYqDwbW7nN3BZ8e5uOdFvVtOtw6+zLkrb2tf95r68+0K/cz9762NtrmPHory15RFhvy/uaAgoooIACwyXAcTbXTUfahv6OtXld/R3r+zpu5mX7ex5Mu1lvPnb3Vfv13HZvdWCeh7Yc7v1qjSv71Vcdw3axH4jfkfY79zFvk+1WW1OyTH8ug2lLZbv8WYGRJGCwNZL2lm1VoE4EOLhzwGZI+ZIlS9KZM54ZxcUZLS4B5H4SnNFi2PaCYig8w/6PpCCoE0q7qYACCiiggAIKKKCAAgqUWsBgq9S7184pMDIFuM8A9wO4/vrrU3jFt/QRZjFiizNuPBipwz0FuMSEeyhwdo1AzEkBBRRQQAEFFFBAAQUUUKB+BAy26mdf21MFRoxAHl7NDTYJrLjZOKO3CLcItRiZlW+MyQ3HeZ9h104KKKCAAgoooIACCiiggAL1JeBfgvW1v+2tAiNKgG8B4tvy7rrrrnRvLS5DZCLcYnRWvq+CodaI2q02VgEFFFBAAQUUUEABBRQ4agIGW0eN0hUpoMDRFsjB1dFer+tTQAEFFFBAAQUUUEABBRQoh0BDObphLxRQQAEFFFBAAQUUUEABBRRQQAEF6k3AYKve9rj9VUABBRRQQAEFFFBAAQUUUEABBUoiYLBVkh1pNxRQQAEFFFBAAQUUUEABBRRQQIF6EzDYqrc9bn8VUEABBRRQQAEFFFBAAQUUUECBkggYbJVkR9oNBRRQQAEFFFBAAQUUUEABBRRQoN4EDLbqbY/bXwUUUEABBRRQQAEFFFBAAQUUUKAkAgZbJdmRdkMBBRRQQAEFFFBAAQUUUEABBRSoNwGDrXrb4/ZXAQUUUEABBRRQQAEFFFBAAQUUKImAwVZJdqTdUEABBRRQQAEFFFBAAQUUUEABBepNwGCr3va4/VVAAQUUUEABBRRQQAEFFFBAAQVKImCwVZIdaTcUUEABBRRQQAEFFFBAAQUUUECBehMw2Kq3PW5/FVBAAQUUUEABBRRQQAEFFFBAgZIIGGyVZEfaDQUUUEABBRRQQAEFFFBAAQUUUKDeBAy26m2P218FFFBAAQUUUEABBRRQQAEFFFCgJAIGWyXZkXZDAQUUUEABBRRQQAEFFFBAAQUUqDcBg6162+P2VwEFFFBAAQUUUEABBRRQQAEFFCiJgMFWSXak3VBAAQUUUEABBRRQQAEFFFBAAQXqTcBgq972uP1VQAEFFFBAAQUUUEABBRRQQAEFSiJgsFWSHWk3FFBAAQUUUEABBRRQQAEFFFBAgXoTMNiqtz1ufxVQQAEFFFBAAQUUUEABBRRQQIGSCBhslWRH2g0FFFBAAQUUUEABBRRQQAEFFFCg3gQMtuptj9tfBRRQQAEFFFBAAQUUUEABBRRQoCQCBlsl2ZF2QwEFFFBAAQUUUEABBRRQQAEFFKg3AYOtetvj9lcBBRRQQAEFFFBAAQUUUEABBRQoiYDBVkl2pN1QQAEFFFBAAQUUUEABBRRQQAEF6k3AYKve9rj9VUABBRRQQAEFFFBAAQUUUEABBUoiYLBVkh1pNxRQQAEFFFBAAQUUUEABBRRQQIF6EzDYqrc9bn8VUEABBRRQQAEFFFBAAQUUUECBkggYbJVkR9oNBRRQQAEFFFBAAQUUUEABBRRQoN4EDLbqbY/bXwUUUEABBRRQQAEFFFBAAQUUUKAkAgZbJdmRdkMBBRRQQAEFFFBAAQUUUEABBRSoNwGDrXrb4/ZXAQUUUEABBRRQQAEFFFBAAQUUKIlAU0n6YTcUUECBYyKwePHiePLJJ4/Jul2pAgooUIsCU6ZMiauuuiqmTZtWi82zTQoooIACCiigwFsEDLbewuEvCiigwFsFHnjggfjiF7/41hf9TQEFFCixwMknnxz//M//bLBV4n1s1xRQQAEFFCiTgMFWmfamfVFAgaMusGfPnti2bVtcffXVcdFFFx319btCBRRQoJYE7r333mhra4uOjo5aapZtUUABBRRQQAEF+hQw2OqTxjcUUECB3wrccsst8fnPf/63L/iTAgooUEKBVatWxcKFC0vYM7ukgAIKKKCAAmUV8ObxZd2z9ksBBRRQQAEFFFBAAQUUUEABBRQouYDBVsl3sN1TQAEFFFBAAQUUUEABBRRQQAEFyipgsFXWPWu/FFBAAQUUUEABBRRQQAEFFFBAgZILGGyVfAfbPQUUUEABBRRQQAEFFFBAAQUUUKCsAgZbZd2z9ksBBRRQQAEFFFBAAQUUUEABBRQouYDBVsl3sN1TQAEFFFBAAQUUUEABBRRQQAEFyipgsFXWPWu/FFBAAQUUUEABBRRQQAEFFFBAgZILGGyVfAfbPQUUUEABBRRQQAEFFFBAAQUUUKCsAgZbZd2z9ksBBRRQQAEFFFBAAQUUUEABBRQouYDBVsl3sN1TQAEFFFBAAQUUUEABBRRQQAEFyipgsFXWPWu/FFBAAQUUUEABBRRQQAEFFFBAgZILGGyVfAfbPQUUUEABBRRQQAEFFFBAAQUUUKCsAgZbZd2z9ksBBRRQQAEFFFBAAQUUUEABBRQouYDBVsl3sN1TQAEFFFBAAQUUUEABBRRQQAEFyipgsFXWPWu/FFBAAQUUUEABBRRQQAEFFFBAgZILGGyVfAfbPQUUUEABBRRQQAEFFFBAAQUUUKCsAgZbZd2z9ksBBRRQQAEFFFBAAQUUUEABBRQouYDBVsl3sN1TQAEFFFBAAQUUUEABBRRQQAEFyipgsFXWPWu/FFBAAQUUUEABBRRQQAEFFFBAgZILGGyVfAfbPQUUUEABBRRQQAEFFFBAAQUUUKCsAgZbZd2z9ksBBRRQQAEFFFBAAQUUUEABBRQouUBTyftn9xRQQAEFhkigq6sruru7Y9WqVbFu3brYvn177N27Nzo7O6OlpSXGjBkTkyZNipkzZ8a8efOisbExPYaoeUe8mVdffTVWrFgRO3fujNmzZ8d5550XY8eOTX054pUN4wLt7e1pX7BftmzZErt27Qr21ahRo6K1tTUmT54c06ZNi1mzZqWfed1JAQUUUEABBRRQQIGRImCwNVL2lO1UQAEFalyAsIQg6+GHH46HHnooFi1aFFu3bk2vjRs3LqZOnRqnnHJKvPvd744PfvCDMX78+JoOtu6555744Q9/GGvWrIl3vOMd8YUvfCHmzp2bQqAa3xVvaR4B48KFC4P+8EzAtX///mQ/ceLEtE/o33ve85648MIL0+uGW28h9BcFFFBAAQUUUECBGhYw2KrhnWPTFFBAgZEksHjx4hRoEWox2olAhQCloaEhtm3blkY+EXTx+saNG+Omm26KSy65JI0cqsV+dnR0pFBuz549wagngrsDBw7UYlN7bRPt5XHvvffGAw88EC+//HIasUX4yD4hvGL0FiPSGGHHM48LLrggpkyZ0us6fVEBBRRQQAEFFFBAgVoTMNiqtT1iexRQQIERKEDg88orr8S3v/3tWL58ebS1tQWjtI477rh0+eGOHTtSaMLoJ8It5uHSt/PPPz+am5trMtyi7Vw2STg3ffr0dCkll0+OlIlgjuDqZz/7Wdx3333B71x6SL+4LJR9xr7YtGlTuuSSS0Z5jctEDbZGyl62nQoooIACCiiggAIGW34GFFBAAQUGJcCoIEY0rV69OpYsWZJGCc2ZMyc+/OEPx1lnnRkTJ05KI7YIvu6+++7YvHlzrF27NpYuXRorV64M5iVoqbXp5ptvjrPPPjuFQwRcJ5xwQk22sy83nBk5x2gs7n02Y8aMNEKOy0C55xn7jP31yCOPpMtHuUTxueeeiw984AMp4PJyxL5kfV0BBRRQQAEFFFCglgQMtmppb9gWBRRQYAQKMMqHcItL9hgBxEgtbrLOzda5nxY3Xmfk0KmnnpruV/X666+n35ln3759h244T/DFOhhVxLKMkho9enQaaURI88ILL6RLAwnBzjnnnHS/K0YZEZD9+te/LgK0iWm7XGZHaMOosQkTJkRTU1MwYox2HX/88Smg4n5fTGyPSyNfe+21dJkeN1JnxBJtJQxitBbboH/0k6Bo/fr1ad2078wzCe4Obpf10c5883xGSJ144omp/4xO43faRJjHTdxpE9ugfayDedg2fSZ4Ysqjqbh0k+UJAXnmdYInRl9hRbt7BlEY0B76yHZwpT033HBDur8ZfWLkHKPQNmzYkJ4x4vfcX4Iu2kv7sOTm//SftjPxOoEZoV82xYnpzTffTPuby1BpC5aMzmO/ExTSX/ZH5cSlkHyGGNlH21mO/YkR22E5lslBKO3cvXt3aiNGLFtpymdv/vz5yZNtOymggAIKKKCAAgqUT8Bgq3z71B4poIACQypAoEJoQCBCAEHYQJC1bNmydGNywgjCjNNPPz0++clPptFaBCPnnntuCmZY7sknn4x/+qd/SqEJYc1f/dVfxdVXX53CD8KOX/3qV/GlL30pBRd8g9+f//mfpxFhbOcHP/hBfO1rX0vhCmEJbckBE0EQQRFtIeS49tpr44477jgUwhAQvfjii/GNb3wjhVbc3P62225LwRbr5ebxjES77LLL0s3jv/Wtb8Vjjz2WwivuRfXHf/zHxai0s1IgBToB2fe///00DyEWo764lxjPtJX3v/vd76YgjuAHKwInbkr/zne+M+66667UznwpIPfF+s53vpP6z/KYsF6CPPp58sknp3ZddNFFyb5yxxMIsW6eCXtwJMBaUXzTIwEXjqeddlrceuutKRhjHsIpAjvCM4Kor3/96/GLX/witW/BggVx0kknxeOPP54CMQIsXrv88svj9ttvT5cv8llgPTweLr5E4MEHH0xfIkC4xb29CM74PHBvNW5Wz76onAjNnnnmmXRfMPYLoSPtZ7mLL7443vWud8X73ve+twRbhGCYPvXUU8k3mxISXnPNNfGxj30shWIGW5XS/qyAAgoooIACCpRHwGCrPPvSniiggALDIkDwQGhAqMToGEIlgoyf/OQnKdQgtOE9QhMCrnwPJ4IVRvwQhjGqiGXyiBt+J6BgIiRh5A7v82B7vJ/fI7AhoCKIYdsEWXmkFesnFMmjep5++um49NJL07L8hyCF0Iywh/UwIimHSgRItIdwhe0S9vA+62R9BFMsS7/oExOX/fEao5wwYZQR/WRZ7nPF/a6ef/75NGKL1wiCGBHGJYH0ifYQ9hBgMSqJEW1sn3bQN0Il+s+yuOVHz9FatIW2EtTRBkaAsX62/dWvfjWFZwR9s2fPKkZvTUiBFfPTF4JF1kdwRb/Zbm4H7WNfMHoLc0bL0T6McSdoYzQaoRSh1rPPPpsCLdrM+jFmlBghHW1n5F0emcf6Hn300fjf//3fZEv4STDH54B1si62NXp0axGmXZHCR6y5lPLnP/95suOzgjttJ8zECTsur7zqqqtS+IqNkwIKKKCAAgoooEB5BAy2yrMv7YkCCigwLAKEIIQUBFjveMc70ogbRjkRRBBwEKpwqRqX93Gz+AsvvDCNciLoILzpLZQZSEcIPQhgWC8PAhNGMhG6MMKJkIbLIAmfCL4YKcbPXG5HiJUvcWQUU189jwpfAABAAElEQVQTQRFBycKFC1PIQh/ZBkEK62R9hFSEPwRkjOZi1BjBzP33359GIhEw0aY8uow2M+qISzH5ZknCJUa3sVzlxHKEaayXEVdcfkh7CJnoS8+JgIrtEDaxboKjN954I4WNvMd2GIHFpYyMumKdbJPwMYeKrJO+0Mb8Wr78kktDaTe2hGd488xrjGpjtBmhGP3kwSWELMNng5FrtAErgijCQl4j2CL8o0+8T/8Ip7gnG6Ea+4k2Tp48JbX9iSeeSAEqbuw/PmPjx49PYRp95kH4Rt8Y8UX41ptVTzt/V0ABBRRQQAEFFBg5AgZbI2df2VIFFFCgpgUYffOpT30qjVDi0kJG5jCyiUvQCDMIhAgaGGFzxhlnxIc+9KE0MolQ7GhMhEsEJNy0nssECVkIQQhFGFFFOwi/CF54MJKKsIRQhPeYn9DmxPkn9tkcgpYcTBFW5Xtu8RqhFvfXYlQSoQxhCpfd0W/CH0YQMTqL7RAActkhI5lY7qc//WmyoV0EQhjdcsstb2kHgRMB4ZVXXpnsGM1EuEVo1NtEgENoyKWGtOehhx5KwRaXIxJUcU8q2krwQ5hEuMVIsevec11MPm7y21bJZYef/vSnY34xKo9tE+jR7nvvvTf1jUsBGRVFYMZlpgRijLq64oorkgVhI5dpEl4RMPI+fWd9uHDpIvuC/chN+7nsECcCQwI9lsOcsI752ZfMv6IYbUd4SnD1mc98JgVl7Ncf//jHh0zp46JFi1JgSGjmpIACCiiggAIKKFAegaPz10R5POyJAgoooMAABQhxCDUYYUOQwqgmggvCDYIfHgRcjBzK34aYRwkNcJNvWSyP/OGG9dcU91aiLUyM0iFII9DhQRsIpAhUCL0YVZRHUNGeqVMOLveWlf/mF0YlsRzPjACjL6yDQIsRR6ybMI9RUoy6YnQVARKXALIdJpYnAHr/+9+ffscCI4Iawi9+JwAk2Kmc6B8BHZdSvve97618q9efCbUItwig2B84sE8IebgUkAdtpQ+8RrhHYETbW09rPTSSjvWwLKEa99JiXQRyWBFecskhgRNtZ30EYARbBFT0if4ymooQjfXzOhOBFSOw+LzwIKQikGJi5BX3JqPtbJ/9xkgsbBhRRziFK58vtsH+Yx38zER7WD+jzGgT62Uf0WaDrUTkfxRQQAEFFFBAgdIIGGyVZlfaEQUUUGB4BRh5RZDCqJ+LLr4o9u7Zm0bTMDqHIImRSAQrBCqEQdwfad68ucW39N142IbnMKS/GRm1Q2jBiCjClzwxiotLIAleCJ8IONg2I6n4mcCNwIPRWowq6m8EWUtrSxrpRWhFUMWlfayDSy5feuml9DPbJYBi1Bjtof859GGkE5cnEtwQ2DAxD6ON8OESPkIuRm4xoqlyItjicj4CxCOZCIToG21i3TzYH4RnbJNAidCJ0IhL+7iJPYEc4R0THrSb19h2vpSP9TEP7WIEWL4PGaPI6BOu7G9Giq0oRlUR+vFgPubnflgEXfmZMIoQion1ErARqLF+grGPfvSj0bm/M1pbWpM9oRrbwIkQi7YTIDKxToIuXmeifwR4bM9JAQUUUEABBRRQoFwCBlvl2p/2RgEFFBhyAUb6EMQQ8hCSECxxvy0uJ+P+TYQh3MuJB5fTEaYQShA0vPnmyrcFOD1DrDzypufrPTtK4EK4xSOHL8xDsEPIlL9JkNE/BCAELIRShCBcssgoI0Kww03Mw7z0gdCKvnOfLoIi1k0IROhD39k2o4boA+1npBNhDfPkibYS3NBupsr58zw8E4QxMol5q5noGwEW7WP7BGrsF0av0QfayD7iWw8JiBg9RQBE+ERol4MttpXtK0M/AqfszPs4MhFi4UvQRJDIupnY94RjzMfIqhzs8R7L0++8DtbLtvDiZx60mfl4nXAu3/cLN9bNzfC5VLS3iW+1zEFZb+/7mgIKKKCAAgoooMDIFTDYGrn7zpYroIACNSFAsJUvSeOb/+YXl54xAolAizCBMIMwhdCB0TWEGszP6BwCFEbWVIYcdIqQgwcT77NcDlfSi738h/CDkKPnugiDuP8Xl8gRKjFSiwCOIIfL2QhKaDM3tWek0eEmAhaCMkZoEbzk4IjL+VgnwRPro8+0h/XzoF30gUCGPuWJftK/PJoohzo9+8G2WB+BUjUTwRbfFkjoxj668cYbg8s0uaQwB405SKIvtIm2MHKK0C9POXSi3bST7dMWfqfNLEP/aDdtJuzjmw3ZLvuXwInPASEalw4SfOWRWbmPPLNOHkyslzazbh60kyCU5dhHjPpjGR5sm5F2l1xySbrHG+tgGZbPgWL+Zk6CRicFFFBAAQUUUECBcgkYbJVrf9obBRRQYMgFCDQIGwg6uMSQcIcAhPsjEQJxc3MCBkbZEGgRnDAR0hA0sHwOcwglCDFYB+EFU74vVg5+0ou9/CcHHTxXTqybsInL+Ai3CEgItAhJ2BZtZ/QS4Us1o6EYHURoxeWLtJ/1EZbRZn6fX4RabCsHQHn93LycPjGKiksZCZqYGCVFCMQN0pkIaQifemtL7mOa8TD/wZK+4074RsiFOQEefWBdhIyETfSB/UebCQJ55Il9x3vMw6WF9I/lGaHH/uZ9+s3ln6yfbTFii+1yn7NPfOITKXRiBBg3m+d+VznA4pl2sBzzsl4+H6yX8JF1ErjxGfjXf/3XdMkn2+fSUm6ijxH7EFeeCezoA+t4uLgZPX2j7dzTjC8LYB4nBRRQQAEFFFBAgXIJGGyVa3/aGwUUUGDIBQglCA0IZAgqCDQYtcPoLQIKQpo8qovLEAmBCB8IOggpCCdYB8sTYBCKEaAQlhAW/fKXv0yBBq8fbuoZajE/r7E9LjckEGF9bIfAhG0QQtFGgpXelu+5TdqaL7cktKM/9Jn28TrBEaOUGEnEhA2XLj777LMp1GHEEt8aSciGF0ZctkcghAUhG5cNVoZLuQ20r5o2Mj+hItugvYR4S5YsSf2ljYRthF6MqHrmmWdS+1kme+Qb7/MaI7awon333HNPahvLsy8J6QiLmD9fasqlhwRmBJG4Y8uIKdrBe1gxoor1EoqxPOvjvmMEn4w0Y/Qb39SYR3Zx/y9uUo8dnyX6hT19IQyjfTgSqNFv+sV91Ai22BZBJPsjB2r0y0kBBRRQQAEFFFCgHAIGW+XYj/ZCAQUUGDYBLu/LYQzfWEc4weie73znO/GTn/wkBQ2EPoQaBBUEDYQcjFq6/PLLU6BFGEHwRKjBaCpCDUbsMIqKkU7c94lAg+UGOhFgXXHFFSmMoY2sjwCKkWW8V21gxPYJhViGoIxgiBFCBDVcdsnoIN7LE8HOddddd6hPhGqMnqJ/hC2MKKJ/hDNYEoJxySA3YR/MRJjENws+8sgjKWhkZBgBGje6JwyiD4x0Yr/wzOgo2s1lmyxLf/KEDeHSN7/5zbSvCd0YYZZH3xFqYUubuX8YARkBFutlm4zSom/cHJ+RXtgTaPG54PPAcnzpAOtk9Bo2BFWEU4RfeVQc62BbhGAEhjwTghJ4EbT9wz/8Q7oElnXST2zpK9sjOKXPTgoooIACCiiggALlEjDYKtf+tDcKKKDAkAsQehA4EYjcddddKbxgJA8jmQg2eBBiMB8hA2ESAVgOgAhCuKzv+uuvTyN9CDsIwAh7CCgIMAi+uA8U6xnoxOieSy+9NH70ox+lkVGEHoQ5BDKVQVS162cZLocjqCH0YbRVHrFVeeN1+szoIi49ZMQQAQwjmugfJrxGYEOIR6iFC/cnG0yIRx9ye2644Ya0HbZLQIQtQQ/BFZ7Mhz8hHd+IyM9sGx8mwjfaR/hESMfyjIiiD/RtfjHqjuWwzSOvCNQI/AgpCar4VkjeY1245aASN0blEZTxzY2sh5FhBJwEYwRdeWQXhnxurrnmmnS/LtaFP315uLjskMCQ9RK2EWDhSgjGCDrWzefMEVtpl/ofBRRQQAEFFFCgVAIGW6XanXZGAQUUGD4BLp/jBvGEO4RRjKQh2GCkECFEDrUYpXXHHXekIIcRTkyEI1OmTkmjdAjCCDYIfRjFxE3BCYoILAhBGHlD0MLEPIQihC6EX4QnXP7W20SbCLK4jI22EaAx0owgidCk58R6WSft55n1Njb8dsQPAQ3LEqrQ3hzy4FA5Moi+86DPBC133313+oZGQhuCJQIX2sGIpY997GMp+KMfTARM/Mz28+ijagOvvN1bb701bZfLCAkHCZMYpcVIKEIt+s5+o32MFMOocrQWfaGN7KObb745jQAjzGNUFq9hQCjJDfWZ6D/31WLfMFqLMI0QjPVySSAGjz76aOob4RX9Yn8SqF177bXp53vvvTe1FXu2zz7nc4ARAWEOItk2nzcCq6effjpdbsl+xYhRZ/Tn4x//+FsuDU2N9D8KKKCAAgoooIACpREw2CrNrrQjCiigwPAKEKQQZjCKhvCCUT2M7uno2FcED40p3CGkIUghyCE4yhOh0aSJk1K4wqWBBFisi8BjfhGe5PAnhyCEKGyP9d1+++0puCCkIQBj3X1NLEPoQiDCPaAIP5ifUKrnxHoZQUW4QpBC8FI5H9umn3/6p38aH/jAB1KYwqgrghja3nMiCDrr7IP3ziIgItQhQMrBDdvgcswc2rE8IdHv//7vxy233JJGr3HpXQ51eq6/r9/Z7ulnnJ5CM0IhbOl7dzffZnjwZvEEg/SPPmHU2436GWl32223pYCJ0XiEcgROvI5jngiw2N6nPvWpFIQRNNFH+kWQSQjFiC72OffmYhRWnugb4RXhI58flmV+gipGsbEt2ponXqfdd955Z1qOdmHKMvQFT0aZ8dlwUkABBRRQQAEFFCingMFWOfervVJAAQWGXIAwh1CEIIrHkUwsx+O8885Lj96W5XKynhPBBpdA8jjclMOmyy67LHgcbuqvLSxLUMOD+2dVM+X5Z86YWc3saR5CwN5Gk1W9gmLGgWy3t/Uzaqwaa0IkHkfSz7w9tsGDgLCaic8MQRqXGzopoIACCiiggAIK1KdAQ312214roIACCiiggAIKKKCAAgoooIACCox0AYOtkb4Hbb8CCiiggAIKKKCAAgoooIACCihQpwJeilinO95uK6CAAgoo0JcAl23y4D5VXBrIfboq74nW13K+roACCiiggAIKKKDAUAsYbA21uNtTQAEFFFCgxgW4+Tr3yfrc5z6XvvGQm/fzzYlOCiiggAIKKKCAAgrUmoDBVq3tEdujgAIKKKDAMAvwLYY8+IZCHk4KKKCAAgoooIACCtSqgPfYqtU9Y7sUUEABBRRQQAEFFFBAAQUUUEABBfoVMNjql8c3FVBAAQUUUEABBRRQQAEFFFBAAQVqVcBgq1b3jO1SQAEFFFBAAQUUUEABBRRQQAEFFOhXwGCrXx7fVEABBRRQQAEFFFBAAQUUUEABBRSoVQGDrVrdM7ZLAQUUUEABBRRQQAEFFFBAAQUUUKBfAYOtfnl8UwEFFFBAAQUUUEABBRRQQAEFFFCgVgUMtmp1z9guBRRQQAEFFFBAAQUUUEABBRRQQIF+BQy2+uXxTQUUUEABBRRQQAEFFFBAAQUUUECBWhUw2KrVPWO7FFBAAQUUUEABBRRQQAEFFFBAAQX6FTDY6pfHNxVQQAEFFFBAAQUUUEABBRRQQAEFalXAYKtW94ztUkABBRRQQAEFFFBAAQUUUEABBRToV8Bgq18e31RAAQUUUEABBRRQQAEFFFBAAQUUqFUBg61a3TO2SwEFFFBAAQUUUEABBRRQQAEFFFCgXwGDrX55fFMBBRRQQAEFFFBAAQUUUEABBRRQoFYFDLZqdc/YLgUUUEABBRRQQAEFFFBAAQUUUECBfgUMtvrl8U0FFFBAAQUUUEABBRRQQAEFFFBAgVoVMNiq1T1juxRQQAEFFFBAAQUUUEABBRRQQAEF+hUw2OqXxzcVUEABBRRQQAEFFFBAAQUUUEABBWpVwGCrVveM7VJAAQUUUEABBRRQQAEFFFBAAQUU6FfAYKtfHt9UQAEFFFBAAQUUUEABBRRQQAEFFKhVAYOtWt0ztksBBRRQQAEFFFBAAQUUUEABBRRQoF8Bg61+eXxTAQUUUEABBRRQQAEFFFBAAQUUUKBWBQy2anXP2C4FFFBAAQUUUEABBRRQQAEFFFBAgX4FDLb65fFNBRRQQAEFFFBAAQUUUEABBRRQQIFaFTDYqtU9Y7sUUEABBRRQQAEFFFBAAQUUUEABBfoVMNjql8c3FVBAAQUUUEABBRRQQAEFFFBAAQVqVcBgq1b3jO1SQAEFFFBAAQUUUEABBRRQQAEFFOhXwGCrXx7fVEABBRRQQAEFFFBAAQUUUEABBRSoVQGDrVrdM7ZLAQUUUEABBRRQQAEFFFBAAQUUUKBfAYOtfnl8UwEFFFBAAQUUUEABBRRQQAEFFFCgVgUMtmp1z9guBRRQQAEFFFBAAQUUUEABBRRQQIF+BQy2+uXxTQUUUEABBRRQQAEFFFBAAQUUUECBWhVoqtWG1UK7Dhw4EN0HumL/gf3R3dUdXcVzHOiOAzSuuxZaaBsUGCKB30Tgo0Y1RGPxGDWqMZoamw79PEStKO1m0r813d3RXTy6urrSc36t+GeomNJ/Stv/kd+xUcX/ExENDcX/G8Wjgf8/mor/Vxobi9eLN4Zpyp8hP1fDtAMGvdna/FwNulslWkH+f4x/t9ODGrGoF5l4z0kBBRRQQIHSCDQUdUlxaKPeTTVvUeM2NRV/Dw5zvZt9DbayRC/PO9q3xMa2tbF03SuxasvSWLNlZezeuzfaO9qLoIs/NS1aemHzpRIKNDSOipbiH65xY8bEtIkz44Rp8+PkGWfFCVNPjuPGTI3mptYS9nrourS3+Hdlx462WLpsWaxcuTrWbdgQ27duj7ZdbbF///7iD6XiHxynmhXgoN7SOjomTJgQ06ZNjdmzZsRJCxbECSecEJMmTYzm5uZhabufq2FhP2obrdXP1VHrYAlW1Na2MzZt2hRLly6LNWtXx4YN66Jt567Yu6c9OvYX/253WyeWYDfbBQUUUECBQqCpqTFaW5tjwsRxRb07PWbNPL4m6t28cwy2skTF8/a9W2Pj9tWxcssbsWLTkli28dUi2FoW67a+GXvad0dHEWx1cSbOs3EVav5YZgFGobQ0NsfoMcU/ZBNmxpzNJ6agd8GM02Pe9JNj1nHzYtbEuWUmOCZ9a29vL/4o2hKr166JVatWx5p1G2PDxs2xZfuO2L1rT+zZs/c3I7gMto7JDjhKK20sRi8SXo0duys2bdsZ67dsi42bt8bcNWtj7ty5MXP2zJg5ffpR2trhV+Pn6vBGI2GOWvtcjQSzoWrjjra24t/ujcWJiFWxds2qWL9xZWzdtja279gY+4oTFfv2daR/ux21NVR7xO0ooIACChxrAUZmNTc3RdvuMbFz15TYtnV1bN26PtasmVfUuyfE7NmzY/oQ1rs9+2uw1VOk+H3p+pfjvpf+LxateLn4431VNLR2xqim4jFmX3FG/kAx3K61uLykCLaG8RKTXprtSwocM4GDl1uMiu7OYmTR/qJ4X7MpFi57Mca3TI4z558V7zrzprj1wo8fs+2XdcXbtm+PXzzySDz33PPx2uLXYuYJC2L6nPlx0pmnxcQpM2LCpGnR3FIM8S1GBDnVrkBHR2d07N0dO9u2xrZN62LLhtWxeNEv40BxEuTMs8+Mq668PG6+8YYh64CfqyGjPqYbqrXP1THt7Ahb+fLly+Jnv/h5vPLKomjbviFOOnl0nDi/NS67fEJMnTolJk5qitbRo4rL9YfvUuQRRmpzFVBAAQVqXGBfR1fs3n0gtm7uiLVrO4uT8kvj0Udfjb17W1K9e+UVVxb17k3D1gv/WvoN/b7iD/aNO9fGCyuejJdWPRULVz0bW/euj87mbdHaUtwrpaUYftdcFCmNUfyRyT2GHF4+bJ9aNzzkAgcONBSX3x6IrqYDxaVxHbG/c190FZdY7OzeE29sLO5BF12xY/fWOH/+5ekSxZbmMUVBX/zP4vQ2gc7OIgTp6IgXF74cry4uRoSueDO6m8bFyedcHjNOODGmzzohjps2sxjmOyXGjZ9U/LvTHA2Nfs/H2yBr6IWuYp+2d+yLPW07YlIRSB43fVaML0LJtq0bi/8vOuO5F16OHdt3xrnnnBkLFsyPlpaWdD+Co9kFP1dHU7M21lULn6vakKiNVvDv9ubNG+OllxfGsmWLip9fLy433h0Tz2qN+SeNiTlzRsfsmS0xaWIxenNCcblG8e92cTeS2mi8rVBAAQUUUGCQAp3FvYD37u2OHbOaY+bMzph9fGNMnxGxfn1XdHasioUvPxVtbdvjnLPPjQXzFxyTere/Lhhs/UanrX1bvLb2hfjuk/8aKzcvif2xN8ZNGlVcP9pUhFjcwLUyyKr8uT9e31OgHAJ8/ourrYpHca+tdDutYvTWxCj+EesoLptbGZuXrI/nX38iPnr1H8aksVNjxoTjo7EIt5zeLsB9jzZv3hy/eOjReGHhK8XIrJlx8lkXxyXvvCWaR7cO2/2Y3t5SX6lWoLEIH8fxGDc+ps+ekxbb174vNq5bGS888UAsfmNJPPP0r4rw67binluTimHa0456sOXnqtq9NXLmq4XP1cjROvYtbSsuP3x9yZL40Y9/EHvb18WsWQ1x3fVT45JLJsa40U1BjOWkgAIKKKBAWQWai1vTNI9riInjmmLu7IO93FuM4lqxsj0euG9jvP7a8/HUk89H+x0fLE7yUO9OP+r1bn+2Blu/0Xn4lR/FI6/+pBi1tTpGtRaXHI4v7vLffKAItByd1d8HyPfqV4DAt7jMugiAo7gMa3/s27Mrnnjt/tjdsTM+dOlnYm5xY3mntwssfu31+PFP7y9G8nTECSedU4RaF8bsuScVl620Ft8w4ii3t4uNzFe459bUYuTdBZdfF5OLEVzLFr0QC19dku6ddsdt7y1Gdxx/VDvm5+qoctbsyob6c1WzEMPQsF8+8Vg8//wTxWjatjjn3HFx6TsmxgnFKK3RrcW3nxpqDcMecZMKKKCAAsMt0NLcEMfPao3rb5xe3FN2dzz/3I7iJNAzxSWLu+P2W+8o6t2DJ3yHop11H2ztKG4Uv6Ftdfx6xRPx6urn4kDz3mgZeyBGj+XSH86+OTprKD6IbmPkCTCKa1TxL0hrMYorRnXF/uIrzldsWRxd+7vjzDnnR2tzS8zwhvKHdmx7e0f69qzFry+Nlxe9FvNOOS8WnHlBEWxdUNxLa8qh+fyhHAJcPjp2wsT0aCq+NZRLed98/YV4pbiX2hlnnl4Mz24+KjfY9HNVjs9Ltb0Yqs9Vte2ph/kYqbWx+ObD119/OTZseiMuuGB0XHzJhLjk/OKsjpMCCiiggAJ1LMC9JCeNb4pJp40vbt80qvhuvc544fl1Rbi1P5a8cUa6HHGobihf98HWGxuLG8W/8H+xfNPiONDYHmOLy6uaW72fTR3//2nXByDQUvw/01j8Ib9nR3Fp4p718YuXfxid+/cXN5T/3QGsrZyLbNu+NR4qbhS/6PXlMWHy9OIG8efF6edeWoToY8vZYXt1SGBacd+08ccdV1y6uyfWrVgcjz/xVHQUlyrefNP1h+YZ6A9+rgYqN/KXO5afq5Gvc/R6sGz58vj5Qz8vvvFwdZx4YnNc9c7JcfJ8/90+esKuSQEFFFCgDAJzi1HMkyfPKO7DtSlefbktnnz6sdhXfMHSTTcMzQ3l6zbB2d+9PxittXzDa/Hsa0/G9n0borkYqcUN4ovLR50UUOAIBLgskf93mkcX991q3BWLVi2MxatfjG27i68+L76Yod6nPXv2xPp16+PFF1+K7bv2xunnXRGz5p6cRvM0cPMyp1ILNLe2pFF58045O2bMOSmWLX8zFi1eHNuLb8XkhtQDnfxcDVSuHMsdq89VOXQG34v9xcmZtradsbwItp555rmYOHFPGqk19/jRMW6Ml40PXtg1KKCAAgqUSaC1uTGmTmqJc84ZH6ec2hgrViwpviX8tUHXu9Ua1W2E01l8s9vm4lsQV2x4I5asKr6msnN78UdmEWo1evPPaj88zqdAT4HWscWdRorLeddsWhbL1i+JtdtXxJ7inlv1Pu3Y0VZ8Je6aWLp0eXR2NcSFV90U02bNrXeWuuv/vJPPSZegbty8PZavWBHrirCTcGqgk5+rgcqVa7mj/bkql87Ae9PZ2VV80ceWWLlyZSxf9kbMnNUVV145qfgCCE9GDFzVJRVQQAEFyi5w7tnj47zzx8S2bWvTyaHB1rvVetVtsLV73454pbin1rody2NMcV1oSyvffNjz2w+rZXQ+BRRAII/cGj2uMXZ2bolnlj4SG3esqXuc5W++GctXrY4ps+fGrHkL0o3im7xRfN19Lrjx94TjpsTck06Pptbx8cxzz8fGjZsG7ODnasB0pVrwaH+uSoUziM7sKb4QZdHiV6N936biZvHHeaP4QVi6qAIKKKBA/QhwQ/mp05rjjDMmxPgJ++K5554bVL1brVzdBlt7OnbFkrUvx8bixvGjx42KxuJmZ9wM20kBBQYuwP9DjQ3FJYnF7Ud2d26Ll958Njbt3DDwFZZkydVr1sSatetj6sw5MWP2vOAP0VHFPcmc6kuAG3+PGz8h5sw/NRpHj42XX10Um7duHTCCn6sB05VqwaP9uSoVziA6w2jKpUuXRnvHtjjvvAkxo/jWp2a+KXsQ63RRBRRQQAEFyi6Qbig/oQi2Th9f1L374pVXX4mtW7cc827X7V9We4ub+K7YuCS27FwfLWOiuPH1Mbd2AwrUhUBR9xffgNEQu/dtiyWrXynus7W5LvrdXyc3btgcmzZvi0lTZsaU6bP7m9X3Si7Q0jomZs05MRqL9Hd5ca+tHdvbBtxjP1cDpivdgkfzc1U6nAF2qH1fe6xevTI6i5M0ZxZnnadM9hLEAVK6mAIKKKBAnQmMGd0Y808eE2PHdsSyFUuL+2xtO+YCdRtsdXZ1xrad22N3cf+fltZGg61j/lFzA/UiQLDVXIyA7Oxuj03bN8eefbvrpet99pOvi2/b2RbjJ02NiZMm9zmfb5RfoKm5NSZPmx2NTa2xedOm4h5bA///w89V+T8v1fbwaH6uqt1m2efrLL7JacvWbdG1vz3mnjg2JoxrLnuX7Z8CCiiggAJHRYDbPB0/a0yRs3QX9W7x9+DeY/9lYnUbbPFtN7uKYeYdne3F6BJuGl+3FEflw+tKFMgC3GeLYKv7QGfs2tVW/D/Wmd+q2+ddu3bFnt17Yty444ovqTDYqtsPQtHxJu6zNWV6cTKlpRittS3a29sHzOHnasB0pVvwaH6uSoczwA51pm9F3BVd3Z1x/PEtMba4d6STAgoooIACChxeoJX7bE1vjpbm7uIm8jtj7959h19okHPU9bjqrq4DceBAd/omRO+vNchPkosr8BuBg/8vHbwLyf6ujigSrrq36Sr+QOLR2NKc7q9V9yB1DEDw29LSUtxjbVTsL0Lfru6uAWv4uRowXekWPJqfq9LhDLBDB4pjV2fn/lQnjhnTFE3F/SOdFFBAAQUUUODwAsXdy2N0cVVcQ6p3i7+DursPv9Ag56jbYOvAAUKt4tHtTeMH+RlycQXeJnAw3OqO7uIPg2P/z9jbNl9zL3R37y/yvSJEb2hwdGjN7Z2hbdCo4o/jpoam9A2i+7u6ors4wTLQyc/VQOXKt9zR/FyVT2dgPSoqxOKERPH/Z1ErthT/djspoIACCiigQHUCnApKX7hS/LC/q/ibcBD1bnVbjPBIXa2U8ymggAIKKKCAAgoooIACCiiggAIK1JSAwVZN7Q4bo4ACCiiggAIKKKCAAgoooIACCihQrYDBVrVSzqeAAgoooIACCiiggAIKKKCAAgooUFMCBls1tTtsjAIKKKCAAgoooIACCiiggAIKKKBAtQIGW9VKOZ8CCiiggAIKKKCAAgoooIACCiigQE0JGGzV1O6wMQoooIACCiiggAIKKKCAAgoooIAC1QoYbFUr5XwKKKCAAgoooIACCiiggAIKKKCAAjUlYLBVU7vDxiiggAIKKKCAAgoooIACCiiggAIKVCtgsFWtlPMpoIACCiiggAIKKKCAAgoooIACCtSUgMFWTe0OG6OAAgoooIACCiiggAIKKKCAAgooUK2AwVa1Us6ngAIKKKCAAgoooIACCiiggAIKKFBTAgZbNbU7bIwCCiiggAIKKKCAAgoooIACCiigQLUCBlvVSjmfAgoooIACCiiggAIKKKCAAgoooEBNCRhs1dTusDEKKKCAAgoooIACCiiggAIKKKCAAtUKGGxVK+V8CiiggAIKKKCAAgoooIACCiiggAI1JWCwVVO7w8YooIACCiiggAIKKKCAAgoooIACClQrYLBVrZTzKaCAAgoooIACCiiggAIKKKCAAgrUlIDBVk3tDhujgAIKKKCAAgoooIACCiiggAIKKFCtgMFWtVLOp4ACCiiggAIKKKCAAgoooIACCihQUwIGWzW1O2yMAgoooIACCiiggAIKKKCAAgoooEC1AgZb1Uo5nwIKKKCAAgoooIACCiiggAIKKKBATQkYbNXU7rAxCiiggAIKKKCAAgoooIACCiiggALVChhsVSvlfAoooIACCiiggAIKKKCAAgoooIACNSVgsFVTu8PGKKCAAgoooIACCiiggAIKKKCAAgpUK9BU7YzOp0BvAg2jGqOhoSmmjZsT40dP7m2Wt722r7M9tuxeHe2du6L7QNfb3s8vNDa0xJiWCTG6eVzxGBvbdm2M3R1b89s+K6CAAgoooIACCigwogX27OuM1at3xtat7dHW1ll1X+adOCFmzxoX48c1R+Oo+h2rgN+bK9uis/NAjG5tiJkzx8Wk8a2HddzbsT92tnXExk27o21nZ+zdsz8t09A4KlpbG2Py5NaYNmVsjJ/QXPw94p/MhwV1BgWGWcD/S4d5B4z0zTc1tsTY1nFx7el3xsUn3FxVd9bseD1+9PLXY/XWxdG+f2+fy4xuGR8nTz87Tpx8RsybfGb8/PXvxKJ1T/Y5v28ooIACCiiggAIKKDCSBNat3x3/+R+L4ldPr49lS7dX3fQ77zotPvDBU+PMMyfHxHGHD3KqXvEIm3HN2l3xzX97NXZs3xczZo2JW289KS67ZPZhe7Fhw5548cVNcf99K+K1xdtifbEf4sCBaG5piOnTx8b5F0yP694zL845d1rMO37CYdfnDAooMLwCBlvD6z/itz5q1KhoamguRmydELMmnBirtr8abfu2xL6u9j77tnn3yujs2hvdcaDPeXiD0WBji3Br8viZMXvighjbPL7f+X1TAQUGLtDV2Rm72nbE0sUvxkvPPX7YFS049Zy45OobY3RLazQ2Nx92fmdQ4EgE1qxYGqvfXBJvvrEo9uze2e+iHIcaG5vilDPPj8uvfW+/8/qmAgooUGsCLS2NMWPG6JgzZ3wx6qg7Na+joyt27NgXW7bsjS2bd8WCBVPi+DlvDVemFeHLmLFNxb9/o2qtS0Pann3t+2NdEW5t21b8bdHdHbt39z/qraOrK/bu3R8PPrAyHnt0dRothzdh1sHpQLQX63zpxc2xauXOuO32k+Pd186NGdPGRGtz45D2zY0poED1AgZb1Vs552EEdhaB1nNr7o8V24pwa++WPufet789Nu1aG/u7+j/w9LkC31BAgaMu0NHREZs3rolH7r87vv///b/R1NQUoxr6vrThsnfdFGecd2k0/P/svXd0nFd65vkClQNyziACAygmMYlUoKRWS2pJLXW3O6zt9nS37TnT9trHnjPn+A/vePa/3R17zxxvj8PuetzuXrun7emsZGUqUCRFUswZJEiQyBlVQGUU9n0uVCQAAmSBJMgKz+UpFqq+dO/vC3W/53vf5xYWi4vC1l3fH9m+wkvtJ2Xvu6/K/g9el/HRmd+TaX2SHtfXtN6U5OiDD4t15vi0Wix6vNrkkc9/icJWth84bD8JpCGB4iKnPPX5Blm/scJEHaEJY2MhFVYGZf++XvGNB+XRx2rliy81z2ldU3OB1NV4xM40uTlcbvUBotbAYEBee+2i7N3TI40rCmTDhlJ5aGeV2qvkKu+IYX/48IC8v/uSuFw2qar2itdtE0cBha1b8eV0ErhfBChs3S/yGbjdaCwiI5P9MuDrkrHA4l5Y8fiURNRnCzcpLCRAAqlJYMOWR2T1hq36JNimIsKNT4NXrFoneflFYrXbU7MBrFVaE2hoWSu5euzVNrZK8LOIrd6uS9LXdVnwXlZRK1sffdq0EcdnrgqxrW2b0rrNrDwJkEB2EnCqn1N1VZ4UFbskEp7xnh0cCsrYaFjOnB7R32BRYcUjGzU1bnYpyLeJx2vXzIkbf6Nnz8e/5xLo75+UT/b3qb9WVMrK3fJrX22VrdsqNSLOo9kiIojeWr+xVEo0QsvvD8ugimB7P+6WpqZ8KSrI3pTPuRT5iQRSjwCFrdTbJ2lbo6npmEyGfRqtNSq+wGDS7bCo+bzDouaMrhIN8XWLTU3jo/GIfudQs0avGmLeeJhiGVuuQzzOYk1RzBOr3gBpYrxGgU1JIDomwciEmtMH9On+TFSY11kiTqvHdA5yJVffc8VmcelyVpnWsOVQbFImoz4JRSZNmmTSleeMJJChBFau2yzPff3fit3hUIHhxieUTqdbnG63TPjHZUhfEB8ikbDE9RxENKbd7pTq+mZ9d2hqRUTGhvrUFHdUohoZhi440hcLisr0peewN99E3ADl1Uvt4hsbkbyCQpnC+Twxbt4hXng8OpiEW59O67Z9o0MmRQ3zOBwuFdkKpaikXNx5+Rm6R7KrWRXV9WZ/rlr3oEktQeuPH/hQjh38UI+5MWloWSMvfvP3rkHB8YGHJQN93eJPHBuxmEZ16W+FHovFpRWSX1Rijstcy+KRiNdWyD9IgARI4B4RgPE7BJMiuS6auJxWOafCCqKFcH0rKnZKY93c37ep6bhMaNpdh3pDwV9qYiKqv6W5+puYK3l5diktcWt6nUt/c3Mkpn1dvy8sIzrfsIpmHo9GZet6xzTdMaam6yh5apJepNFjlWpI79QoMPxW9wxMyujIjB9uUaH+rlfOtQXp7p9Qf6oRqa31Srmm8mG7Q0MhudAxKgX5dhNZi7ohxRKm7E1NhVKh88Wm4rresMBfbDIQkXAornUXTa20m+XKtd4F+Q5Td1M5/c83qX0Jre/AQEB//2O6zinJV259vZOaOjilvwHJCXwwiu/s1D6/pht6VRjcsbNaduyo0vuKub8NSHG8ovPlqtoVCERlKj6t9xcxE9E1NBzQlMeYuN0Wrce0SX/Eb5BNUxWLdV+VlujvTqErUXVjvuKb0LqrSDauEWEBbQuWwz6w2XLMMsUlLinRZe2f9bk0PlmCKnQODgVkZBgDC0T0vkb03kVMvSG8YfAACJv4h/nHdR9jG2NjEZNuiShnGOF7dICBynKPFJc4dH69D9J/LCSQaQRuVAwyrYVsT8oTgHhVmd8gm+uelLqiNilx18pwoEfGg/0yER3VC7zzhjY47R4pcpfI+prHZWX5NilyVAiENcx/pm+vXBg6Kl3DHRJU3yCUxpI2WVGyWn+cLEYQc+g6qwpaJN9RpqLWhFzR9Mlzgwfk0tBZvUnvumF7/IIEso2AQ8WjAhUCHA6nRsPcKGxBHIZAcOncSTl74qB0dpwV38iQhIKTRnAqLqmQX/v2H0lJRY2KWv2yb/crcu7Ep9qhG9UosFxxqUi1YetjsnHbo9K6dpMKWcUG8du/+Ec5dWS/rFRBIxQIyBX1WAqGJnQZu9Q3rZTKuhVSVdOgAsceudpxTueZkFLdRqsKcdsfe1bTI7dk267KyPbaVPg0N2gu3BjM3HRBAMXxiGMPgmlhcemctuN4OH30Ezl56GMVSM/pjVJQHC49jkvK5KFdz8nG7U9IRVWN+W7OgvxAAiRAAmlIwO+PyNlzI/Lzn100qXNXOsfFoYJYsUZ+ta0tll2Pa/riC80qnOTqA4GoHDk6qJFHPfrqlYYGr4r+Fjl2dMhEJUFgaWkplC3bKuRrX1spDfX5Rvx4750rsn9/rz5gmJbtD1XJt77ZNofU2291yl/8HwflpS+3yAsvNsnathL5UH2r/uv3jqipfYkZUfDokUEVWaJG9Pn9P9ggL6pnFUYj/GhPl7z8yw65dGlM/bHC4nRapLYuTx54oFSe/UKjbNMoKpv2FxIizEU11t+nqZnYZtdVvwp5EVm1uliKi1zqRRbQ34fkbmstKgTBIB5tgrjl84WMcDV/JMU12pbf+tYaI0BB9CvR7cBgHimK7717RUUvv/qieZRfTIUyPISbNsLetu1Vyr5GPv9kg2GFXzAITGfOjMgb/3pJ99WwEcwmVSyDPxpEJ0SMPfxIjXzuSXh5zXh9YRkIf6++3GEGFjhzZlimYjryo8tqosd2PVEr/9M3VolblwcniJcnTw3La69ekhPHB9U7bEIf3osRsxoaCjSVtUl27aqRggKn3gtR2JpzIPNDRhBI7gqQEU1lI+4FAfww5uKGV/1PFirqkGK+xlMNndM8qWgqWScrKzYZ8/mpqbB6dB3Xpy76pF2jqWrdq8SlkVaJgvVbcjTXPb9JNtc/LnkasRWLB6TH3663Plj3tNQUtqjpfL75wer3XZWJ0Ih4HHlSoeJZuadBgjGf9Pku6uuSDFt7jSl9kbtctjc+J2GNOBnTaLMpjRhjqmSCOt+zkQCitGw2u3b+ELE19ynmbB6BgF+jZK5K+6nDxpOruq5JRaoiKS6rNELyxTNH5cAHb0g4HJC8Qv2+fGakothUTIWpszKp0TdWq10aW9tMRM3wQK90d16UXJtVSsuqpbltg84zrk+jh6Xj/EkZ7NVU56YB7di5pEnTISd8Y+IfHzHbqKyql3qN5HFqBNfN6jy7/vw7NQnkmCfQVt2P1+tn0WMCx6X5ndEnzjg+UcLBoAz1dxtBdN/u18z3VTUr9BiyyZRGCwZDATlz7IBMjI/Jo898WSprG3UeDnhwnSz/IgESSEcC+1Rw2vNRt5xTcQsiTUtrkV4jZwSLC+3j5iEAIog2bCgTj/pDIeKn46JPjh4ZMEJTfX2eCiQFJvUuoMITRJs9H/UYgcuqYlidpkcOa6QQBBKsv1X/nl8wvbNzTHq6J414FkcklopUly/7TARZYaFjJmLIqxkZGk3m8dhlZDRkxKlDB/t13T4TfYQ0TIg8EG4OHuhTkctqhKIN60s1ctxi0gbffvuKSQmcnIiZyDL4Xln0twD17tWoLWwLkWO3KohKa2srlQ92d2t02aj8QoVB8GpozJfSUo220mixMo2GyvfaZNODFRKLaTSZ/iZ5vFbpG4iZSLOzZ0bNCJaIGkOE24ObK2RSI+ZgXH/82IC5hygrd0ltTb4+iMmVc+dH5IP3u+TDD7o1Cs8qdQ15M8Ka+n0h0u7kiWGzPNIdvSqiuR02OXZ8yIiKMLhHBFZVlcdEwIFxT4+mU+7rM+tCtFlFhUdOnBjUbXQbEQzbxP5FX2hK69/dPaF+YVf1GAjLM8/qA0KN3qK0dasjhdPTjQCFrXTbYylcX6T4YYREm0ZW2KzXw6lnVxlPH+L6+CCuwhGewCClcF31Ixqt9ZRcHT8jp3s/lmNdH0ppQZ20lG6U1WU7jfA0ONlpVgPDYIfVKU2lD8gLbX8gh7pekeM9H8rFoVNmerGnTJ5o+Q1pLXlQJsJDGuocMsIWJrqsXmkq3iidYyfk8shpuTRyVkJhHWmmbK1sq39Wnmr5jlwcPCEdwyc01HjKRICZlfI/EshCAkgpjGrEIzpFufHr6oJ5dgrRQc9FiA8okXBIIEhVqWDwyFMvSVllnRQUl5hp+99/Td57/V9k+65n5TEVFTZsfVxiKiBfvnhafvqD70n76aNSroKUN7/ACFtYKKZ+faO6vjXrtsi3/uDPNDVxVI58slv+/r/8mQz2danwPCUv/fq/k227vqAdzEF5+Ud/Kz/5h/9Lrmw7Z4Qua5FNIz3p/WV2QBb8h1ETz6uwenT/+3Li4EfyzFf+jTz14m9qKmyLidw68OEbcvCjNwUia9PqdeqbUkFhKwuOCzaRBDKZANLO3tVoqrff7DRpitsfqpSvafROUKOAILr86J/OyqGDfTI0qJGrKgxtVoEGBSJKf79PKqs0TbG8XCOS2kyU0ZUrE/Kf/7cDcurEkBFGSjQtDsLWnZTuLr8R0L75W2tl5coC02dY01Yk/SpE/ewn540YVaRRUF94rtFEgwUwUuGbV+RnP21XUatLI6GiUqNCVZ6KYRc1quutNzrl1MkhnX+FPPJYtWzeUiZvvH5FBZsuGegPat9hJrr3VnWuqnRLfl6ViYRCZNMvftFuRkdcrRFaq1YVmWi3devLpL5WH4ojlRMP7efJQBAJMWoltrl1e6X83nc3SL+mAO5REeo//++HjIiINNAnPldnRLg9H3araNhlPNO+8esr5UUdCACphJcv+dTvq1de/pWOBHzVJ597Sh/QNeSLu8wmH+/p1ugrjWjrGJc1a0vkO7+9TsU7uxG1fvgPJzUCbFj35aSJwMJgKm9pJBvErs7L4/IV9Q17+pkGs28//XRAXtf17NNIvfbzY7J2bammJbrNfditWHE6CaQTAQpb6bS3UryuRZ4q+dzK35Itdc9KREc+XKggxbB77IKc6NlrhKNir3rsuEoFIyUevfqhXBg8pimIYxLSaA69d5XqvGap8DZ+5qElxieroXS1piGWS7//kpzrPyJne4+KPzxjVj8R8slp7z4Jlmh4cOEqXde4dA6fM1VBFNZIsEe6xttVwDqlwte4+mlF5cpwu9QVrNbIr4hGduVLgbtY6x/Wm+fYQk3gdySQFQT2vPMrudR+Sp+gXk8DQMO9Go21duNDJn2wec0GwwLRlW5NLSyvqpM167eqR4ZXfSECcuGknpsaTVVQVCrNqzfotO0mmiuu53eTdb20aDQWPO66r1yQiot1KjqsN+tzOBGNtV59lNpM1Jfbm2fWAX8tT16BrNm4XUoqa41xfaGmS3o1jREpatGICtnqz+VVvy27/mPJDgKBCb9cOHNMow5Cekw9KC2rN0plTYNG9bmlWlNXdzzxvIkO7Oq8IF2Xz6vxfI00r5k51rKDEFtJAiSQSQRGxoJy5eqEEUXwwPiZZ/Wh0qPV0qhRQFEVWuAbBQELaYef7O+RxzVlbYMazycyEfC+XoWb519okhoVrxxOtQdQL69mTUUcGdEHVeqRhSioOy2VVV5ZramCm7eUS+vKQs3myNEI2qicPjWiEUSTUq7iyu/8ropeOk+VRhzFNCosrF5ZOpvs29srh1WQgR/YyHBQdr97VaszrXUskCdVLELKZLkKQxBv3G6rXFVRCNFbyRREsXk8OfLVr7dq6qNX0/aGjEE8vLq6NToNkVXwCkP0V0troaYV1hnjfo9uJ1Fgg1Wg/l4QonaqRxce1sNTrFEj4DZvqVDxyS/vv39V211gvK3K1Fdsy9ZKjQorkCeerJfVq4pN6iWizCpVaPv0UL+KTqNaj6B5wWvrvH7u1cgsRI098liNbNyk0WuaPoqoMqR+dlwcl8GBoFkP9tnBT/pNdNmXvtJq0lCRSmnTisJPDdFef/f/nDD7FZ5oFbrNBo0mYyGBTCJw/QzNpFaxLfeFgF3N2KvymqTIVak/TjPeVvMr4vF7JRydMEKVPceu3lq1mjboVsN3/YEePSvd4xc1mium3liT+nQkVzpH9MZao7oq81aYVTmsLqkubFIfrgo1mA/rHFaNxMo3r8S28IONVMaa/FYZ9PcmvjbC1VhoUL/r1pEb8QM5U4YngjIaGNborog4bU6tT56mOyZvfp9YD99JIJMIjA8PaPh61KQyzG4XRKoyFZWqG1uufW1Vx1cIW0UaCVPz2ff9PVf1qewV9a2YVBPwMqltaLk2DQvC5L2+caVGevWZaK/+/uvnJIznsR6IEzkqrDk07dCpYpnd7lJhK19WtK4VCFrYrlUjMV0qeFmsNj2H9dqhnlv6qPda3fhH5hMIa6phb/clNUCOqoC6To/NZinUYw7F7ijX47JcSjQFtrfrsqYs9sjwYC+Frcw/LNhCEshYAjCAR/phfz9M1NW7StPOghrtdOLksGkzvnOoX1VYsw+uXh1VMUMHVNJUQ6QT5uTA4DxXBZcieUg9s5zqS4XHV/kehxE/INbAu2tcU9/utEC4WtNWbKKgVtQXmNUdPNKnnlrjGm0dMtFHSLsbVDN4CGooMLgvKnaYaCh4aA2rqBUMTmn65KAxcYf5/MZN5bK6ZcaXs0gN2mPqbfWK+lAhDTCZgvY6VNx6RD2t4Cv28Z4eOXZsUJkqKxW3xjRVEsLe1Ss+OasiELhZ1eAd/mGJAoGpQKOn4I0F8Q7x60gfRFriug0lmjqoD+w15bNfI8ng/YUorDw1w4/rwzyITDD9H9GUzVA4pvWP632Lynb6wiiM47rshO4DpA/69H2dpmM+pOmGCSGqsEAf3WkU3vl69RVW3y6sd0gFwMsaqQWBEub12IcQxlDiygfiFkZ7hJE/0kRX9QWurc/MxP9IIAMIUNjKgJ2YKk3wqWi0v/OX0uW7oKMjzlxM59ctGPWbURMRLVWqYcBFrnKN3JoSf2hIItGQid5ILBNVcWw4MCBl4eFrwlaupjrmO0rUK6tOavNWyTOrvi0PN30psYh5d9sKVKBy6XOdaTk/eOTatJhuJ6D1wgiI80tcp0Eog00XRqdJpFjNn4+fSSBbCKzb+qgx3M5VHyMYrSYKzLgrq+tVKKhOfGV8jyAuYVqiIJUxOKkik3aiTQSV88ZBIFxqBu7yeGVM0wlDk7POS90eRjq0axRWoqAGeIpr0aePiOjK1Sixa0W/N+es6Rgi3Tm5dIRry/OPtCYQ1/DeiA40gKf5+TrKJoTR+QVRhIjgCgUDepOkxyULCZAACaQpAQg4PSp6BAIxHSEwKH/zX48aryXzI6ltQiR0REch9Onoe0iVQ9rckHphYRQ+RCs5nTrquEYfJUStBAarNUcfFuUYIQcjAN5pgWhVrCIV/LoSBYIW6gyRBcb1/+GPP5ypNn7gtcDPKqa+VfDuQjrkyLAKPWruPpNy5zCRRogwSxQshREkISiNjs6M3piYdqt3h4pT1SoyPf10g+x4uMqMcojt9vZMaFTZsBGmjms015tv6EMRjYj6n/9ww7VVwvAdVfaqDxfWkygQzBCdBc4jOuoj9lFenlV9zkqlW9eLtMJDh/o0MmzSpIkODE6aNEoY48ODDCIX9i9M4zHyI9pXVe0x0W3XtqEjVtbW5KmZvVPWb9BBsNQAv+PCmNpCxLXuY/J3/+9xE9mFAVhMMbty2gihENkQFQbhjYUEMo3ArDuDTGsa23OvCYSnAkbU6hg6LuMaAbVQQXpfVFP+4H0Fk3mrenFN648nRKxp9d5KmMtjWXyO6DojaiifKMhzt1kcApFqWNMKe/wXZExHT5xdMGIWorYgVHWOnJk1SX8sddtTmn64UDHeX1oD0WdXLCSQ7QQqVLxau/lhIzAhHTFRYN6NtD/bLPHA+E/o90hJTJRcTQmAwABnimhEz7vYjam9Mf0er4QZeGJZdOSwHaxjTtEJiXnxzkICIJCjx4nVbpe4erdFwmG9KbvxWItq9GEsqjcJOm+uRgGzkAAJkEC6EoiqaDWpogd+IiGwwPS8QFPaZpfp6RzTv55SoWStjjIIQQPz4wU/Jiv8M41scn0p7T6b39iZ6KHrwtbNfm5nsiSur2P2X3YVtBBBZJm1grCKL9FI3Ag/LjW0X7m6aPYi5m/UHQbpEKtqNFXQdzqsA9BoiqJ56IV2zP39R9fD7bYok+Su7Vd7/ep1NawRY07jcwVxKzESYTCi5vAa1YSUwcIih+GB0Q+Pa0QXpLqivQAAQABJREFUosfy8mY4w+gewpFFhcDZHNE3wfdgGIupX68Ki4ima1fh6fChATXGnxlhMh7X/aMz5WnaqNtlN6JTVMU+3IMgQgxRaBhlEesDQ+cs8Qzbc6m4hVdxoUhnt8/wwXIeXd9KjcZDRBnqNrs0NReaNj/wQIkR32ZP498kkAkEkrsCZEJL2YZlJxBTwcgfHJWRyUEZmxxIcnszP5xzL73XFzVil4pYiYL58PJHhmU8NCyfdL4mHUMnEpNnvWMuHcY3ev3pjfnx1ZCsuEaQsJAACdycgEtTC0s1fWsmOkp7u7coieG4E7MhTRCG8Iiw8o2PmpHrIGInoiHx98SET0cB8pmRFx3O69FeiXXwnQSSIWBBKqx6r8VGh030H0ZJTBxreMcdRlB9uEIaqeVw6AhdmtrKQgIkQALpSmBGTIqbkQPr6vPl3/3eRoFYgTRDFAhDKIhehsACo/CYRnFBcDEPh3QyBK6FS6KPPPOeWOfC85rLqxFoUKf5xWrV0ZU1TTLns5EaMR3iC0a7hS8Woo3+4396yCyW2M7sumNkP9S9S43tE9rYQtuBGISBbpJ94HXu7Kj8838/LyvUD2utcstXMchVMnNLbASjcqtU66iBlZUuaVTR8L/8n4fVM2tC0ycjRiBEhdHcBZpsWERUuEPK4YxQOC3Dmtr47jud8ua/dhpD/zY1gn9AxUaIZ/A1W63i3n/6j3vV9H9EI+SVjwp3VmWW2EcLbgd1wD+diKg8cEVpVvHq3/+Hzcaw3qujOKLMZoqIvEJNXcxXPzAWEsg0AhS2Mm2PplF7wio6jQT6JLfMIvn2Is1316F+9Ul6wrTdqn8XukslzzGTR4+mYTQ0nxrFl07XSJm3Xr/RIYBDfn3XHMLPSrn6dmF0RJfVI4MTvToq4lhiEt9JgATuEQGkfsEAvvPCGRnXVMP2M4elZkWLNDSvlilNMxga6JHzJw5Jf3enPLB5p9Q2tt6jmnEzmUYAgwu06MADJw/vl1OH90mderdV1q5Qb7dy9W/rUWP5ozpAgfo3anosRkqsqlmRaQjYHhIggSwigPS3KjV9h+AR0FEQUfLVdwmjB6KENOqoXz2UTp8e0XS/QXnu+UZpai4w05b634xghNGPpzQq6HpfO6rCzYSOWoiRC6P6m54QVm61fqQmwjAdEVhBNYq323PEq1FQLo0oQxkbR9phQA4fHjBG8i+8uEKjkKyagug1PmEwUw9pBNTsEvmsveOaellUdGvBJqTbHdG0xdHDapQ/HFAfsBIpLUGE+YwgmFj3lKZFIjIOEhIi11FXRLqhgDtSPJHuGdZoYIdtpv5B9cyCkX1Q0wPLSt3aNrsKYmE18e8z6ZdPfK5BHttVIw9uLjcG9S71QoNfFgoi8ZAC6tDUyooKt0kXhTjZ2zshg0OBOVFl8ADbt6/XmOo/84UGjdhzmkg87AsYyiParfqzUS1x74RBBZBS2aOm/Ui7RFSX131rVqZi/I8E0oQAha002VHpUE2kADo0tRCCUti2+BDBSDicUqP2iKYjDqm5O1JESlwFKlTViE+jsMaDw2LL1R9oV7FUqBl9oavyWvORXjg80S1V+SukuLRG8p2lGoqrP3ZhP2KxjCl9eV6d1BXhJlkjthYZnfHaCvkHCZDAshBApBdMvCtrGk3k1qCadh/Zt1tGB3TUHo3uHOzr1tGO+tR7w25GP6xpaF6WenClmU/A7c5XYWuTDOiABeeOHzQjIB7VY61QBzMYGug2whZSXksranVQglYp1khEFhIgARJIVwL5GnGDaCNEPfX3wyDep75VBVK8ciZNbtw3ZUbYg3n54U/7VUQp09H9bm8EPKTBOTTlrb8vqD5TARnUdDxEfgV0dMPz58c0mkr7359FCyXDs7TMY8zTsQ4YpJ87N6bm8oUaNWUzi49pGuDxY0MmbQ/RSBjREV5bq1YVmZEDr+j2YH4O0ShPo47GxsPqW+VT8WfS+HOJLH7/kaifw5GrIxg6tP4jZtTFA5/0aspgXIo19RACFu5TMDojzNeRsohcERiye7SOGiBsCsQxGLHDXB4eWI1qDg/B7arW79wZ9fNVw/uW1iJT95Cy6tJRLNGe1asLZZuO6Lh9e5Wpb4/Wu0P9tXw+TZdH+qHqaPDaKihwqtimA+eoyIXpZ8/m6yiNOriVRnONqD/Wp7pfP9jdJbvfuyobNpUZA3vUUfVGOXFiSOukox5qNJ9d2zo2HjWjPWLkxS4d9XGVRoghRZWFBDKNAIWtTNuj97E9dvW+KvZWSmVkREcGWTytCH5aPvXgiqqw1TPWqQbx/VJb0Cobax9VYcwup/r2S4GrROqLV8uasu1S6CyXieiMGX0oosaLw6elsqBJCpxlsqZii3ppBeTi4DEjlnmcBbKxZpfUF6yRU/0fSSR23Z/rPqLhpkkg6wjA3D1P08PWb31YO1pTcvbkQdn73iuy+/WfmGeiVpvNjKz44I4nZd2WR6SipiHrGLHBd4eAWwcuaNLREGEKHw7r78qVDvnFP/21Pv2OSK7ehThVZF29fqs88OBOHYp9lRoNL/77dHdqxLWQAAmQwPIRKC12yaaNFmlQMeWyjjD4+qsdRmT52jdWahq2SIcalP+Pf2lX0WtShZoc87Lpb3KyqXqza15e7jKjFMLw/NTJIdmvIhDS2EY1ve71Vy9pZFXfZ/5dc6OdZq9j9t/16pnVtrZUKtXXakhNzP/vvzkmL7zYJDt2zAxI876KNT/9SbsKSDmCERBtOhrhiqZ8eerzdcbnql3Fprff6jS+VZserDCRUB++36Xinl+N3JO7rUX02hdfapK//esJI1z9/d+dEIhbW7ZWqFhoM+JQj0aGHVYh6JP9PaauD26uMOIWouRQ4H8FEe5VHY0RHlovahuuaMrkwQN9cvBgn0kF/OJLzWYfwSjfqZFZEMLa28fMyIvDaqKPUR8//KDLjOiIEQ0RggfBCQKYVQWs1RpJBiEPghRGNqyp8eh6bJoW6ZeXf3nRjJpYV++VCk3XRITWJh0tEqLWKy9fNPyQylmm006qAf4bmgZ5UkfNhKiXp6b+hTr6JQsJZBqB5K4AmdZqtmdZCGA0wrbynVLhXSHh2OKjTvlCI3K2X1OQfFdkVP24LujIhXZNOyxwlqhQtU3FsWq9oNs0BbFAwlOT4ouOXDNmnPpMFOscOSuHu94wIxhimTJvnXoJxMRusYlXlxuc7JIroxdkZGKusfyyNJwrJYEMIGCx6oijhaVqGL9T/GPDsnLtJg1rx6g/N++sVlTXyZr129RktVzqmq6nE8JLC+dxZW2TbFHBGqMflpTpqEO+cbNOeGpBjGjWFLKKylozYh0wQuQqLKuQ5lXrTH0SaIs0+mb7ri+IW72/KlUEc3u9iUmyoqVNHn36y7J20w4p1mVtaiTOknkEyitnjjWrzSGNmtKaKBCv4OfW2Npmbgg6zh3XFNcr+sQ9aEbWzCsokraN2/VY2yB5BSXGiyWxLN9JgARIIN0IYOQ9u6aeIaUMosqVKz6NzBowQgv8mZAiODAwKcWaXrdJo3lgLo/f8lv8nC+IoUlFpXXrS+XEcfXP1UihH//orBkJEILZxETUGJu7PU4VTK6PDLjgij770q3CTOOKPPncU3Vy5MigRjL55b13rppRCFHHPo1gCms638qVpbJ9R6WKai4VYewmXXDzlgqTrnfxwrhGWoVk395eGRsNGwEP0WuIZEumlJWqMKii2KOPVRs/K78/LCdPDBsfLYsaW0G8Qh0wOiEM5LdqhNWux+s0SsylKYEz3r2IOANr8D+u6Z4YpdKvUVcQu4p0tEIwe/TRajPq4riuf+u2Sm3jiJnv1VcuyVFdBtFVaAfM9DEIALYLpuMahYa0SLQ3oHXY81G3iVL7/354WoW+XAkGdPTD3oAxgN/0YLlGhhVKeZlLnlSm8OXaq1xOqJgF4RBRZthGZ6dP0xtd0rqyWAUyr9lvybDiPCSQTgQobKXT3krhuk6rwbtHfbI2VX/hlrXsm7gg4XhQJiN+TSvUJ0C9e3UUxX55rOXLsrJsmzzW/E0ZDXZJv/+yXB47IW5Na6wraDOphnHdTigWlMtDJ+UNjeLa1viCbKh4QrbX1ZntBqPjcrxvt5zs2SNneg9qWuPgTH301wKhxTCjz1kgZBpPR7BupC/O9uuaWZj/k0DmE7A77FJWVSNPv/Sb5pVsi5tUgMJrsZJfWKQCVZERsRabZ/b3z371W7M/Xvu7qq5RvvWHf3bt8+w/Nu14QvBiyWwCjS1rBK/Hn/vagg3FSJ54PfT4rX+HFlwBvyQBEiCBFCKAB0QQT3LVbT13nioF4eOF55tMWt8//vCMikT9KoB0megsr5qht6qH0k4Vvn73dx4woglS3bCKmfWp0foC5vEQlmamz4yOCBQrVQhBOX9uVD76sFtefeWiEVfK1QPq6WdWmLTEYRV73CrMzFQRJu7qgKv1xjvWObvgU221V771nbVSWnZJ/uXH50y0FCLAMFpjRYVHVq8pkmefa5Rnn1UrA12vRSvrqbLLr321VUpVXPrJ/zivJuz96u8VlPr6Qo2o8gpM3vPUzwr1nxlmavZW5/6d71HzdH1989+06baK5Zc/v6jRTEMa7TSoo+fOpOglGD71+QYT3bVDUweVzjVhC5FPEKNKVDxEauQvf3HBpA0iEu3pZxr11SDbt8ykvTs0WuvXvtaq3C7Kz37aLq+/dkn9tmLqoWUzUWkQvYBpYiKm4lhEfb9CpsIP76w06/dryibErR//93Pmew9Gk1xVLJs1wuzf/u4Dhj28vxA15vFYje/Z0aMD8vGeLhNZhpEcq1XMQmTcC19cYVIUbQln+rlo+IkE0poAha203n33v/Ix9cryh8bl3XP/omLS3qQqFIhNSs/4BRkLzIhO4WhI+nxX5f0Lv5IjXXvEZfNqpFZQgjpfIDyuP+b6NN7xnlwZab+2/klNSewb75KPL74up3sOaQrjTGpJTCO6RoP9Zt0BnSdROoZOyfCk+vloZNiYpkHOL0hl/P6B/1UGVEwbmexWI8iZH5X58/EzCZAACZAACZAACZAACSwnAZjBb9uO9DeHRhbVyONP1t6wOXhMPbCuVL7922vlmd5GE70EIcnlsqho5JIVKwpU6LAbISpfLbY2bpwxLN+q6921a+aB8OyVQoxpaytWscoi9Q0zUdFIiYMJ+Ve/3qr1qZIBNXa3aJogRKTmZvWVCsVNpFCLju6X8P16RCOh/pc/e0gjxfI0FS9P/azmRlHbNOKsRKOadqmJOkzSYa6O6ChoLfmaIldW5lQfqGJth3WOoFevaXdPPlWvXlNeQSpfMBAzUWlIjUS7ITY5dZlV6m2VTEGU05atlSbFcKA/aIzr4XGFAjGqTKcjummFjl4IIRGSWaJAiPJqSt9TTzdIOUZuVA8tjACZr1yaWgqkru66pxna0aJplV/6cotpF4znY9FpYxoP03p4dCEaDqMpIuoM7USx6qjSdZp++OVfazFpkmCP4lCj/TJNEcX+haAIUQu1syvXdevLzPRn+xpNuiiiwrB9cMXoi1UqHDrsyUXXmY3xPxJIIwIUttJoZ6ViVTGCIV5n+vaZ1+3UMTYVNpFV16KrklhJVE3hx/BaQKRaaPFB/xXBa7HS77+kEWKXFpvM70mABEiABEiABEiABEjgnhBwqWF764oi8/rC0wtvEvPUqeiE160KRu1rVLEFr889Xr/g7BsfKBe8ZhcIJkUqijy8vUZfs6cs/veaVrUW0ddiBTIMRuRbu1rtD/SVbCktcgteG9Sj626URORWS2Phba0OxvpI9Xxo64w/2GIrsatAVa5m93g9tDX5wUvAqajAJTu3uUS2Lbb2698jsq2hJt+8rn/Lv0ggewgsEIiaPY1nS0mABEiABEiABEiABEiABEiABEiABEiABNKXAIWt9N13rDkJkAAJkAAJkAAJkAAJkAAJkAAJkAAJZDUBCltZvfvZeBIgARIgARIgARIgARIgARIggWQI5ORioCkY7WPu2c5bySzNeUiABJaLAD22loss10sCJEACJEACJEACJEACJEACJJARBGC+vvPhaikqchmz9yY1cGchARJIDQIUtlJjP7AWGUYgHsuVeNQiU2GbTEesMj2dq68Ma+QCzcnJjUuONS4We0zbPzNk8gKz8assJxAJRyQY1FFPJ/w6olJAYjE9brLgBMnRocztNqe4vV4JBYNZfhTc/ebzuOJxdfePKq6RBEiABK4TKMx3Cl43M8e/Pjf/IgESuJcEKGzdS9rcVtYQiE3aJDjolGBvgYSH3Tqsr4YqT2V+uLLFERerNyquKp+Ec6ayZn+zoUsjMDo8JJcunJNzZ45LT9dlCQUmJT6V+ceL0+2RwpJSWbl6nfT19SwNGue+JQEeVzyubnmQcAYSIAESIAESIIGMJEBhKyN3Kxt1vwggUsuIWv15MtHtlZyJIrFF8sQWx6mWBZZ20ajIZEhCPRYJ2zQKJyckokxYSAAEEFED8aH93Ck5c/xTGRroFd/4iEzFolkR0RiNhiQaCcm0injjg916SdBzIzfzBe/lPvp5XPG4Wu5jjOsnARIgARIgARJIbQIUtlJ7/7B2aUYA6YeBIadMdnskcKVYw5XLJK+oUBxOp97DWtKsNUuvbiQcksnAhIwN5krEqmKFd0Likcxv99JJZecSoWBAOjrOyekTn8rpYwckLy9f8vPzs+r8CAQCcvnCGQlOjst0jk19Zyn83unZwOMqJDyu7vQo4vIkQAIkQAIkQALpTIDCVjrvPdY95QjE1VMr1FOgkVozopbHnSd2u10jl7IjKsNqtYrL5ZbpeLHkRmIyMR4TCXlTbj+xQveHQGDSL+2nT8hwf68RtVxudxaeHy5BeFo8PjUTvZXLn+E7PRp5XOG6y+PqTo8jLk8CJEACJEACJJC+BNijTt99x5qnIIF41CrhUZfYQnkmUguilsWqURlZUnItVrGriId/0VhE/JNqkB11ZEnr2cxbEQiFgsZTC+mHiNTKxvPD9pnIHdaURL/PzoitWx00SUzncWUVHldJHCichQRIgARIgARIIGMJUNjK2F3Lht0PAtM6EOBUOEescYtJr8qWSK3ZrJFyaVNBz2rRm/aYpiFOMdVqNp9s/ntKo5RgFA9PLaTnZvP5YdHoxjhGgsyC0VKX+5jncQW7tpnrLo+r5T7auH4SIAESIAESIIFUJEBhKxX3CuuU1gSm4yrkTOdkhafWYjsKN1lKwHBYbB5+n30EpuOagqfG6fF4POvPj1w9P7IjQXn5j3MeVzOMcd3lcbX8xxu3QAIkQAIkQAIkkHoEGEqRevuENSIBEiABEiABEiABEiABEiABEiABEiABEkiCAIWtJCBxFhIgARIgARIgARIgARIgARIgARIgARIggdQjQGEr9fYJa0QCJEACJEACJEACJEACJEACJEACJEACJJAEAQpbSUDiLCRAAiRAAiRAAiRAAiRAAiRAAiRAAiRAAqlHgObxqbdPWKMsJZCbmysOh10KC/KlsqxYzbXVXFrdpTFw2rh/QgaHRiUYCkkkEp1DqLK8TLwepwyNjEkgeH261WqRPK9H8s3LK119/TI65puzrMft0nncUlpaLC4dyTAnN0fC4Yj4JwLSPzis2wsbo+85C/EDCaQAARy3eR6v5Oe5xafHa0/fwIK14vmxIBZ+uQgBHleLgOHXJEACJEACJEACJJDCBChspfDOYdWyi4DVokJUnkfWrmyWXTsfFIfNpuJWjsRV2Trdfkn2HTohff2DNwhbq1sbpL66Ug4ePyM9vQPXpjtUqKquKpfWFfWyqrleXn/74xuErYLCfJ1eJzsfXC/lKqbZbBYjoLVfuiof7jsskegwha3sOgzTprWlxUXS3FgnK/XYbr90ZVFhi+dH2uzSlKgoj6uU2A2sBAmQAAmQAAmQAAksiQCFrSXh4swksHwEED216YHVGrGVJ8dOnZfh0TEJhyLiVbGrSAWopx7dJu999ImM+/ymEjkazoWXx+UUl0Z6BYNBCUciKk5ZpU6Froa6Glnd0mAiWjDf9KzEY4slV6xWq6xpbpSmFTVy7Gy7TBwKSCQclYqKEnG5HLJ6ZYM4nXa5oCIXCwncbwI4hnHclhQXSn1NtRFrqyvLTFSjiIY2zis8P+YB4ccFCfC4WhALvyQBEiABEiABEiCBtCIw61Y3rerNypJAxhFwOBzS3FArBfkeudrXJyfPXpBPT5yRsxqtFY3GVPRaJcVFBXojr7mJWiwa4QUByqqRXVMa1RXUNMRpffdq6mGNRmq1NNZIdWWpSUWcD8umyyBNsaamXIWCIrl0pUcOHTst+w8fl/MXr+i6wtKk0TC11RXzF+VnErgvBJCa63a5pKKsRFY21euxWWnOBxzLN8paPD/uy05Kw43yuErDncYqkwAJkAAJkAAJkMA8AozYmgeEH0ngfhLQoBSx5lrEYbV/5rE1E6WSqxPiU1MyHZ8RtVBHt0ZqVWj6IDy3+odHJRqbEkR91ddWqeDllNFxnwzo9wX5eVKtUVizC5aF+DU9NS1DgyMyPu5Xb62wmaVvcEjX45R1a1pkTL830V4w+mIhgftIwG63SWV5ifGgi8QicvbCJbHbrVJdXrpgrXh+LIiFX84jwONqHhB+JAESIAESIAESIIE0JEBhKw13GqucmQTCkbBcvtItZRqRsqq5wYhUk4GglJYUmXTE42cvyqjPp1FZM/EpXohYNVUSjsVkSNMWo9GoEaH8/kmJRfQ7h00saiAPYWq+sGW3waQ+TyO94uKbnFRxLCJTU3EDdnIyoGbcE+J2OsTrdmvKosVMi8dnpmcmfbYq1QnE9fgMBEIyoIMa+HUwBRzbhXl5UqYRhwsVnh8LUeF38wnwuJpPhJ9JgARIgARIgARIIP0IUNhKv33GGmcoAYhYR06el+2b18mXnt11zQTe5XTKsTPt8uYH+3WkwpFrrfd4XNJYXy3nO65I/8CwGr3HzIiGPhW2UBCxUq8+WzCfn19gEp+nwlhcI8AmdaTF2fNEoxH12oqYERLtmuaFVK/p6ShN5OdD5Od7SgD+cV29/de22VBXraOBus2oode+nPUHz49ZMPjnogR4XC2KhhNIgARIgARIgARIIG0IUNhKm13FimYyAfi85Od5ZcvGNvP+5gefyJCmEYZCYSlU4/hCTSd8YscWHanwUwnqd4iwgnCF1KyTZztkZGxcYpqKmGyBTRciuUy5Ufe6tpq4xI1vl8hNZro2N/8ggXtH4Fbxgzw/7t2+yKQt8bjKpL3JtpAACZAACZAACWQLgawVtnQ8OYFzfk7utEntShhyZ8uOZztTiwBGKIQX1uqWRhkd88veg0c1OmvYGMLj+y0b18qOB9fJuYuXTdRKQDUpp3oOIV0QEVaTk8HPBKjk2oUIrVh8SsUt9fRSE/rZJSfHYvy94OcVVw8upCDClJ7l9gmAacKrDFxzcj8TFW9/lVxyEQLgjIjEbDg/eFwtchAsw9fZdFwtA760XKXpJ5ohltTjUh/u4DOv3Gm5K1lpEiABEiCB+0AAv50oCODIuQdDFt6DTdwHislsUnsnORbtpChl3LQnfIuSWZTzkMDdJgCz9sJ8ryD1DymJXT39ElCxClFY4z6/id4aHBlVs2ybenAVS1lpsVj1774hFb80lXCpwlNUfbkmdP0WFQFcOhpj7iyhBamHNrtDplTQiqoxPYQzpCyy3D4BiwqXFotVptQHDV5oLMtHAJ5whfn5WXF+8LhavuNo/pqz6bia3/Zs/TwjZlrNQ4lAYEofBt0qni9bSbHdJEACJEACJDCXAEStUHjK3EPa7RYNpFh+2Wn5tzC3jSnzKVfhutW7yGax6837TGRKylSOFck6AoiKQhRVrkZP2fTkt6kQYtRtzRnMVfEVoghELQhY6GzDUB4C1JXuAQkEQ0vmFdIREAfUrwvCbrGmOsKrCKIaSlFBvpSUFIpfTeTH1UR+RvilsLVkyLMWwCiVTqdLgoEJfflnTeGfd5uAzWY14m82nB88ru720bP4+rLpuFqcQnZNgZjp9br1t9iqIwyHNYKawlZ2HQFsLQmQAAmQwO0SiOmgTyPjUfWAztXfUo847PbbXVXSy2WtsGXVjsrMzbxTjbJVVGB/JemDhjPefQLwzZpQIQkRVPDaqlDvLKemGaJD7UY0V4FXSosLNdonJiEVsspU2HKo0HXpao/4JwJLrhDEsO6+QSOkVZSWSJGKW06Xw6ynqqJE6qoqZHTcJ8Oj44xmXDLdGxfw6uh9uKhPTozKpH/sxhn4zV0jAIG2uqI0K84PHld37bC55Yqy6bi6JYwsmQEpzfmFefpgyS49XSF9iBTLkpazmSRAAiRAAiRwZwQi4WkZ6o9INJwjxSX54tCH/MtdstZjy2V3S315i/giQ9Lnv6BRMnGxGdet5UbO9ZPAjQSQcjiiItKeQ8ekrKhQHlI/rbBGVU2p2m3RzjWE2Pf3fiqXr3ab0RJLdZ4xFZ56+24vYgvrDevIh2fOXzTphqtbm2RlU73EolPizXMbb63T5zrkSlfvjZXlN0smUFFWatJHx4f6ZaS4V6rrm5e8Di6QHAFEOyJV1++byPjzg8dVcsfE3Zgrm46ru8ErE9bhcLiktrpWAvrg6eyZcSkudUhlaSa0jG0gARIgARIggeUlEAxOScelgAQCdmmsb9IgjYLl3aCuPWuFLY/DIy0Va6Tf1yWdA+3icCsN17Lz5gZIYEECSEX0T0zKqdMXpGlFrWxoaxVrUb5JQ4TJ+1VNOTzb3iG9/UOapmiRUCRsUgUhhsV1+kIFvlgQx4wANjBkIr0S85nUR93mpSs9glDRdauatdNeLBY19/NNTqogMCiXLncLfL1Y7pxAVVWVVPUOSEd3t7jzi1U4jJuUUprI3z7baDhqohUHhkZk3D95bUVInYWPGVJpM/384HF1bbfftT94XN01lGm/IqfTLY0NTXLx0oicOnVVWld7Jd7q0UegtJBP+53LBpAACZAACSwbAfhr+dWb8kL7pApbZbJy5RopLipetu0lVpy1wpbbUSBtdZulo/+8BPxT4s7TUW/iuZr6lUDDdxK4twRisagMjWqqWjAgly51ybT2nXM1NRHeW5FIxHhpRfSGHR5b7+85JDCAh0CikxcsmLe3f9Dc3J9rvyw+/8QN842N+yWk5vPdalZvUx8v9NcheoV1exAGEEnGcucEGhsaZFBHuTx46FOxWD0SDgXFpqb9iMRjuT0CI2NjOtBCQDo1HRfnR6KM63GeLecHj6vEXr977zyu7h7LdF8T/LXa2tboYC6X5djxMdm6vcQY4TodOnIwxa10372sPwmQAAmQwDIRiEbjMjwckdNn/FJSVCPPPbNJSjV7ZblL1t5VOSwOqSlqlLrSZqksrJecab+E9SbJ4c6huLXcRx3XvyAB+LxFdBRCvMY1jepmZXD41pFUEKhCmkKB1/giK0Nki4luuQ2frkVWya8XIFCq0XB19TX6tKJAYpFJaT95SGpXrJTi8qoF5uZXyRBInCuIdJxd4EOXLecHj6vZe/7u/M3j6u5wzIS12NXotqqqWiorasTjLtNI5mk5eXpSVq/0SL4na7vPmbBr2QYSIAESIIFlJNDRGZJz58P6CAgDklVL44oG9ZDOX8Ytzqw6a+OTbFaHlHqrpKl8paxtfkDc1iIJTkzLFL1Bl/2g4wZIINsI5OfnS11NrT79Xy0ue64c3vumDPR0ZhsGtvcuE+BxdZeBcnUkMIsARlYt0YFaVjQ1yrr1D8hAn1X27BmVMR87irMw8U8SIAESIAESmEPg+DGfHD8SksrKelm1slUHRasQl2v5PZ+yVthK0G+ubJMvb/2ONJavkpwppwT90xIKLJLblViI7yRAAiSwRALFOqrl4489JqtamsQ/OigdZ4/J2eMHNRXat8Q1cXYSuE6Ax9V1FvyLBJaDwIoVK+SF55+Xgrwa6bwclY9V3Dp1ntft5WDNdZIACZAACaQvgav9AXlr96AOuBJSyxyvbN+2UzZu2HjPGpT1sdRVBQ2C17meY9I7fFUGJ7slLAH1wRHzoufWPTsWM2ZDObmaU6jGVzB1hx9WTk726ccJQ3uLnkg5OZaM2bd30hCPxyMb9Kn/iBryHz16VMYGu+TiKRGku5RV1YnHWzhzvOSq0VmGFvjS5FrUn0YvrDw/9DfmLpwfPK7Ui5DHlbli8Lq7PBfOyvJKwau9/bz6VvbLyZM+0V95yS+wq9hlFa+bnlvLQ55rJQESIAESSHUC02oUH1FPrVF/TM6cDsjevWPiH8+TUrV82rh+izQ2Nt6zJmTfHfciaB9b85y8sPU3pNxbK/GQQ/wjaqCtkVvwPWIhgWQJQMOyOKYlJ3dKIjoiYXwq+8zXcXMVVTPvXBVovHlecTjsyeLLivlWr2qVb/7G16WsyCNdF0/K4T1vyvkTB42h/NQiI1xmCphcHdHT6fboQwMrz4+7fH7wuOJxxevu8l4pd+54WJ547GmZ9BXIgf0T8tOf9MrZc5PGUB4jQLGQAAmQAAmQQLYRgKjV3ReWt94Ykvd3j+tIiFPS2rpZnnvueU3nL7mnOLI+YitBu76kWZ/5igRCk3K6+5BcHmyXYGhUfPpZAyok15arT9f1XYWLXAuicNiJSbDj+3UCubaYOIpCEh/zi39iVNyuPHE6ccxYsiJyK64mdTCjD+rIji6XU2qry6W0pPA6IP6lF/licbtdMjo2Lg69uAyN+uTq+eMyNjyoZvLVUlhaIV6N3nJphJfDpTfruRoNYMmMZxB2p0uqahpkWgXfyYlxcbnd4tBjgufHnZ8YPK54XPG6e+fn0c3WUKs+idr7E58OWNHd1S59Pd3quTUhHR2T+lvnlJIymxQV2jSCyyoOZ66OesuxE2/Gk9NIgARIgATSi8CUZiSFo1MSmJzSgc5iei8T1d/DkPT0xqS3xyI2a61s2lBrIrVamlv0fsd9TxtIYesz3C67V1or10tz5Vr5+Nxb8ouD/yCnO07I0JiKE16LjpYYF7szR+yOXFGNSwvFrXt6pKbJxnIdUXFVjclELEdGr+SaZ7hIN7Kjg5u5GWbX9k4sFtNRGEN6wZvQ1I1iefTh7VJXXXFtOv+YST1E+uHzX3hGNqx7QH75yqty8OCn8sGbL0vjyrVSj9eKVVJeVS9FZdUqbrkyRtjyePKkdc06iYSCcqr3qjkckJbI8+POzwwcUzyueFzxunvn59Jia4DxbXNzs8Bz65ODn8hrr78mH7x3SiYmBzXNvFDa1ubJmjVeFe+dUlZmF5f2GTUZf7HV8XsSIAESIAESSCsCELUgaPV2h6T9wqSc06jlo0fGZGw0V38D22TXrkflKy99yViOwI7nXhcKW7OIYwdYtBvSWrVWDeW/JRvq2uXKyAXp912RQX+PjPj7xO8PSmwqqhZKU7BRYiGBOQTisYjEJqMSy4lLzBMWv6bkhYcC6gFj0/kyI+pmToPnfbDZ1W9EI43W6eh/G9evkYe3bNSRMErnzcWPIGDRKL7i0hJ5/NFHzIiJlzZelolgRALhSek4eUDOHd2v1xpNcNELDV6ZUKLRsPjGxmRkdFgik+MyrtfSycCkRqXhx4/nx93YxzyueFzxuns3zqSF12H6iXrtbmpskueefV5Wr2qT/v5uiUSGpbt7TDo7x9XCYlTi0zpyovYTWUiABEiABEggYwioVpKTY1XhyiZWi1dfZfLQ9mLJz6+QZn3os6Kpydzf3K/2UthagHzCUL6ttle6Ry/LyasH5WLfGbnc3y7+yYBGpIRlCjec9FRYgF6Wf4UzSlMPxWOT6SJNspoo0PxWr0jUquLEvVeu7/XegJF1ZUWZbNn0gGxav1bWrGy611VIq+3lwVB+w3ppamqWURV7Tp46LecvXJSuqz0qAA2Jb3xcUzsjMhXLLLM/jz1XPFWlMm11yHSunjSZ1bxFj8F7dX7wuOJxtehByAl3hUBlpRrK62v1qjXS29sjp/TafelyhwwNdMro+ISmWgfUaxKDZGTGQ4m7Ao0rIQESIAESSGsCNrt65bocUljglQr8DlY3yprVq/U+pslYrSBz4H4WCls3oV/gLBZHmUsN5avloZYnZVIjKaZiUwKDZ4paNwHHSfqgNkemY5p+GNMbrCk9zbJA1MJut2rapcOBC16+5Hs9PBKSJODSHwmrtUK2bXXL2rY29SgLaQRARCIxjQ7VG6Pp6cxTfqYx0oKmISKtO1vKvT4/eFxlx5F1r4+r7KCaXCvz872aAtwopRp9u3XrZn3wGdTRoWIabav9RPMANLn1cC4SIAESIAESSHUCudp3t6jXuFUzdJwOp4pcbsHDVHhp2WzITrq/hcLWTfjbNJoArzwnza9vgomTSIAE7pCAVUcJxAtCRCkzN++QJhdPEOBxlSDBdxJYHgLoyOOVl8cHOctDmGslARIgARIggeQIZL6pSXIcOBcJkAAJkAAJkAAJkAAJkAAJkAAJkAAJkECaEaCwlWY7jNUlARIgARIgARIgARIgARIgARIgARIgARKYIUBhi0cCCZAACZAACZAACZAACZAACZAACZAACZBAWhKgsJWWu42VJgESIAESIAESIAESIAESIAESIAESIAESoLDFY4AESIAESIAESIAESIAESIAESIAESIAESCAtCVDYSsvdxkqTAAmQAAmQAAmQAAmQAAmQAAmQAAmQAAlQ2OIxQAIkQAIkQAIkQAIkQAIkQAIkQAIkQAIkkJYEKGyl5W5jpUmABEiABEiABEiABEiABEiABEiABEiABChs8RggARIgARIgARIgARIgARIgARIgARIgARJISwIUttJyt7HSJEACJEACJEACJEACJEACJEACJEACJEACFLZ4DJAACZAACZAACZAACZAACZAACZAACZAACaQlAQpbabnbWGkSIAESIAESIAESIAESIAESIAESIAESIAErEZAACZAACdyaQHd3txw4cODWM3IOEiABEkhjAqOjo2lce1adBEiABEiABEggGwlQ2MrGvc42kwAJLJnAz3/+c/nggw+WvBwXIAESIIF0IgARv7S0NJ2qzLqSAAmQAAmQAAlkOQEKW1l+ALD5JEACNyfQ1tYmX/ziF28+E6eSAAmQQIYQaGxslIaGBikvL8+QFrEZJEACJEACJEACmU6Awlam72G2jwRI4I4IPPfcc/LUU0/d0Tq4MAmQAAmkE4Hc3Fyx2WzpVGXWlQRIgARIgARIIIsJUNjK4p3PppMACdyagNVqFbxYSIAESIAESIAESIAESIAESIAEUo8AR0VMvX3CGpEACZAACZAACZAACZAACZAACZAACZAACSRBgMJWEpA4CwmQAAmQAAmQAAmQAAmQAAmQAAmQAAmQQOoRoLCVevuENSIBEiABEiABEiABEiABEiABEiABEiABEkiCAIWtJCBxFhIgARIgARIgARIgARIgARIgARIgARIggdQjQGEr9fYJa0QCJEACJEACJEACJEACJEACJEACJEACJJAEAQpbSUDiLCRAAiRAAiRAAiRAAiRAAiRAAiRAAiRAAqlHgMJW6u0T1ogESIAESIAESIAESIAESIAESIAESIAESCAJAhS2koDEWUiABEiABEiABEiABEiABEiABEiABEiABFKPAIWt1NsnrBEJkAAJkAAJkAAJkAAJkAAJkAAJkAAJkEASBChsJQGJs5AACZAACZAACZAACZAACZAACZAACZAACaQeAQpbqbdPWCMSIAESIAESIAESIAESIAESIAESIAESIIEkCFDYSgISZyEBEiABEiABEiABEiABEiABEiABEiABEkg9AhS2Um+fsEYkQAIkQAIkQAIkQAIkQAIkQAIkQAIkQAJJEKCwlQQkzkICJEACJEACJEACJEACJEACJEACJEACJJB6BChspd4+YY1IgARIgARIgARIgARIgARIgARIgARIgASSIEBhKwlInIUESIAESIAESIAESIAESIAESIAESIAESCD1CFDYSr19whqRAAmQAAmQAAmQAAmQAAmQAAmQAAmQAAkkQYDCVhKQOAsJkAAJkAAJkAAJkAAJkAAJkAAJkAAJkEDqEaCwlXr7hDUiARIgARIgARIgARIgARIgARIgARIgARJIggCFrSQgcRYSIAESIAESIAESIAESIAESIAESIAESIIHUI0BhK/X2CWtEAiRAAiRAAiRAAiRAAiRAAiRAAiRAAiSQBAEKW0lA4iwkQAIkQAIkQAIkQAIkQAIkQAIkQAIkQAKpR4DCVurtE9aIBEiABEiABEiABEiABEiABEiABEiABEggCQIUtpKAxFlIgARIgARIgARIgARIgARIgARIgARIgARSjwCFrdTbJ6wRCZAACZAACZAACZAACZAACZAACZAACZBAEgQobCUBibOQAAmQAAmQAAmQAAmQAAmQAAmQAAmQAAmkHgEKW6m3T1gjEiABEiABEiABEiABEiABEiABEiABEiCBJAhQ2EoCEmchARIgARIgARIgARIgARIgARIgARIgARJIPQIUtlJvn7BGJEACJEACJEACJEACJEACJEACJEACJEACSRCwJjHPgrMcPXpUfvu3f3vBafySBEiABEiABEiABEiABG6HwKlTp25nsRuWGRoakj//8z+XH/zgBzdM4xckQAIkQAIkQAKpTwC6k8ViuWVFlyxsuVwuqaqqkosXL8rbb799yw1wBhIgARIgARIgARIgARJYCoHa2lopLCxcyiJz5i0vLxe32y3Hjh2b8z0/kAAJkAAJkAAJpBeB5uZmgQ51s5IzreVmM8yfNjY2JlDNxsfH50/iZxIgARIgARIgARIgARK4KwQ2bNggjY2Nt7Uu9FU7Oztva1kuRAIkQAIkQAIkkDoECgoKZOPGjTd94LVkYSt1mseakAAJkAAJkAAJkAAJkAAJkAAJkAAJkAAJZDMBmsdn895n20mABEiABEiABEiABEiABEiABEiABEggjQlQ2ErjnceqkwAJkAAJkAAJkAAJkAAJkAAJkAAJkEA2E6Cwlc17n20nARIgARIgARIgARIgARIgARIgARIggTQmQGErjXceq04CJEACJEACJEACJEACJEACJEACJEAC2UyAwlY27322nQRIgARIgARIgARIgARIgARIgARIgATSmACFrTTeeaw6CZAACZAACZAACZAACZAACZAACZAACWQzAQpb2bz32XYSIAESIAESIAESIAESIAESIAESIAESSGMCFLbSeOex6iRAAiRAAiRAAiRAAiRAAiRAAiRAAiSQzQQobGXz3mfbSYAESIAESIAESIAESIAESIAESIAESCCNCVDYSuOdx6qTAAmQAAmQAAmQAAmQAAmQAAmQAAmQQDYToLCVzXufbScBEiABEiABEiABEiABEiABEiABEiCBNCZAYSuNdx6rTgIkQAIkQAIkQAIkQAIkQAIkQAIkQALZTGDJwlYsFpORkRHx+/3ZzI1tJwESIAESIAESIAESWAYCwWBQBgcHBe+3W9BPRX8V/VYWEiABEiABEiCBzCawZGFraGhI3njjDfnkk08ymwxbRwIkQAIkQAIkQAIkcM8JtLe3y49//GPB++0W9FPRX0W/lYUESIAESIAESCCzCSxZ2MLTr927d8uhQ4cymwxbRwIkQAIkQAIkQAIkcM8JXLhwQV5++WXB++0W9FPRX0W/lYUESIAESIAESCA9CXR2dsrp06clEAjctAG3JWzt379fjh07dtMVcyIJkAAJkAAJkAAJkAAJLJVAR0eH7N27V/B+uwX9VPRXKWzdLkEuRwIkQAIkQAL3nwAisN96661bRmAvWdiKx+MSiUQkGo3e/1ayBiRAAiRAAiRAAiRAAhlFAL5Y8Ne6E38s9FPRX0W/lYUESIAESIAESCA9CRw+fFg++OCDWz6oWrKwlZ44WGsSIAESIAESIAESIAESIAESIAESIAESIIF0IQBbAqQi+ny+m1aZwtZN8XAiCZAACZAACZAACZAACZAACZAACZAACZBAqhKgsJWqe4b1IgESIAESIAESIAESIAESIAESIAESIAESuCkBCls3xcOJJEACJEACJEACJEACJEACJEACJEACJEACqUqAwlaq7hnWiwRIgARIgARIgARIgARIgARIgARIgARI4KYEKGzdFA8nkgAJkAAJkAAJkAAJkAAJkAAJkAAJkAAJpCoBClupumdYLxIgARIgARIgARIgARIgARIgARIgARIggZsSoLB1UzycSAIkQAIkQAIkQAIkQAIkQAIkQAIkQAIkkKoEKGyl6p5hvUiABEiABEiABEiABEiABEiABEiABEiABG5KwHrTqZxIAiRAAmlGYHp6WuLxuLz11lsyMDAgTz/9tFRVVV1rhd/vl3PnzgnmKy4ultHRUTN/XV2dFBYWisvlujZvMn+Mj4/LyZMnZWJiQmw2m6xatUpqamqSWVQmJyfl8uXLkpubK6WlpeL1epe8/aQ2xJlIgARIgARIgARIgARIgARIIEMJUNjK0B3LZpFANhOAaPX+++9Le3u7bNiwYY6wNTY2Jnv37hWLxSLr1q0z84RCIYlGo7JixYolC0sQtE6cOCFdXV1mHU6nM2lhKxgMmu2Hw2EpKSkxolhFRYX4fD4JBAISiUQW3Y1oI4rdbhenyyn5eflLrvuiK+cEEiABEiABEiABEiABEiABEkgTAhS20mRHsZokQAJLI4BIrMHBwTniEMSgoaEhI3qVlZXJ1q1bTdQURClET0Foqq6uXtKGICxhXWfOnJF9+/bJxo0bZceOHZKTk5PUehCtdfz4cTl8+LB8+9vflk2bNskbb7xhxLJLly4tug60ZWpqytQXAt0zzzwjDz744KLzcwIJkAAJkAAJkAAJkAAJkAAJZCIBCluZuFfZJhK4TwQQYQTh6MiRIyatDyINhB+rde6lBqLMyMiIHDp0SIqKiozAhOWQOtjZ2SlI70MUE6Kf8vPzpaGhQRDJhHS9ZAuisCBUxWKxa4tgm1euXJG+vj7xeDxmfeXl5aYuSAlE1NT8gsgpRFAh3bC7u9ukG84WrSCIQYC6cOGCmf7hhx/OX4VJe4SA5Xa7pampSR544AEzD9hASEP64/DwsBHiEFGGedF2zL9YAZ9EGiX4btmyZbFZ+T0JkAAJkAAJkAAJkAAJkAAJZCyBuXebGdtMNowESOBeEEBa3tGjR+Uv/uIvpKWlRRobG43ANV/YggfWxYsX5S//8i9N+h0EsPPnz8uePXvkzTffNOITvLDy8vKkvr5enn32Wdm1a9eShK2F2gvRDCIU0hAhYmHdqAvq96tf/cqIcvOXg3gET67vfe97cuDAASNCYflESUROIZURItprr70mb7/9dmKyeUdkFbaByK4XXnjhmrCF9q1fv14gZkE0czgcpj5f+cpXzN+xqeui3JwV6oe+3j6znYQQOH86P5MACZAACZAACZAACZAACZBANhCgsJUNe5ltJIFlJoBIqN7eXtm9e7cgYgneVojEgqAD4Wh+6e/vN0IOIpNQkDIIMQgRXDBxX7t2rYlWglCG6K331S8LEUqrV682whIineYXRHxBGINA1tPTY6LGUK+/+qu/MimCEJA++eQT+fTTTwXbh0j1p3/6p2b9+AzBC+ISIqcgMKEeEKHQBkSi4bvKykp55JFHBFFeKIgIw3REVyXEO9QT382OVMP68UKkGJZBgSA2MDggez/eK4gue/HFF836sW6Y2mOdNytTsSkTzYZ6sZAACZAACZAACZAACZAACZBAthKgsJWte57tJoG7QCAh+iBq6ODBg0acQsQWIpBuZnwOTyuIT0gthACGVD9EcCEV8bnnnpPHH39c1qxZY9aJCK7vf//7JgUQQhcEpIWELQhg8KmCYIW0QIhaqAPELohemA5hC9uBkAQhDtFVSCXEZwhNiM6CAIXUQIhoO3fuNOIRUEFsamtrk+9+97smygwCFdqBZZFeiBENUTe0C9uC4OTxeiTPm2fENghqr7/++py6Dw4Mmjoguu3Xf/3XTcQXhDHUHRFg80ui7dgWCwmQAAmQAAmQAAmQAAmQAAmQgAiFLR4FJEACt00A/lOIzoL49MorrxgvrG3btpkIq5ut9LL6WV29etWMHrhq1SrjM/Wd73zHCDqIrEJkFArEHbyQ+mcioGxW4z+10LqxzNe//nUjikGg+uu//msjPP3O7/yOEZ0QyQWBC+uDyXriBbGro6PDiEoQqB5++GEjokFwQ9QWRKr5BeIVRkJ85513BCmT3/zmN01KIdIbIfDt37/fiHRY31NPPWUWR/3QVqwTBZFsEOrAz2azme8gCJ4+fdqkRSK6a36BuFZbWytPP/208RybP52fSYAESIAESIAESIAESIAESCDbCFDYyrY9zvaSwF0kgCgn+Eohwgnm7hgREN9B2LlZgYE7op0gIiFaCV5TDz30kBGdYMyOtEBEfkGMQoQVIrvgh+Vyuq6l/M1fP8zgYcqO7SOSDJ5ZiAR79NFHjRgGIQ1G9IiwQkFkFP5GVBfELiyDd3yH+hQUFBjBCQbuaNuKFStMlNexY8cEgh5GQYRQhnkhvCUM5ZFCiBfWi3ZghEPUH1FWaGtzc/O1qmMeiFmoJwqixyBoYd2oB7aJgrphGgQ1RJRB/EOdWEiABEiABEiABEiABEiABEgg2wlQ2Mr2I4DtJ4E7IAABB4ITopFgeI5UOUQs3cr3CaIWUgEx2iHEG4hCEMfwjnTEl19+Wf7mb/7GiE8Qjp544gnZsWOHEZFup7oQtBA9BSEJRvCnTp0yHlw///nPjUiF7yGIoe5IT1y3bp3x0kKbampqjCAGcQnTEZkGgQni1le/+lXjwwUGENZQHnvsMZNGiW28++67gm1A2EJqI9a3ctXKRZsAkRD1gAiGiLI/+qM/MvMiKgwC3969e+WDDz4w2150JZxAAiRAAiRAAiRAAiRAAiRAAllEgMJWFu1sNpUE7jYBRCohsgkF6XQQiJAymIhemr89iEFI7UvMh2UhXKFgGawDnxG9hQgliFwwc0eEF6LA4LtVVVVl/K7mr/tmn2HIjhRJCETwr4JpPVINW1tb5ezZs0ZkQ2ogBDoY1yNdEJFVqF/C4B4pg4ggw3eYXl1dbcQ2iFqI6kqMlAiBDttDe7AsRC0IYZiOyCy/zy8V5YtHW0HYwrJYD0ZRRIFQiOgwsEU9MQ8LCZAACZAACZAACZAACZAACZAAPbZ4DJAACdwBAYg1EGASBal8NysQdpCeh5IQtWYbwSeEsieffNJ4UyG66r333jN+WTCGR6ojxC94TS2lwPsKQhbSGwsLC02U2JYtW+T555+XX/ziF2akRERLbdq0Sb7xjW/MWTVEJLwgTiHKDBFmSAXcvn27mQ+CE0piPohSeKEg9RCRYoiywoiLMJyHYHezgvVA+EOKIgQ9FHhxIUUR7ywkQAIkQAIkQAIkkGoE0HcZHRsVh91h+lqz64dp6AOhD4c+EvqLiQFx0PdL9JtmL3Ozv7E+PCxFwfKzHzDebDlMS9hOoC6ow+1s/1bb4HQSIIF7T4ARW/eeObdIAllLABFYhw4dMmIYRJ9E+l4CCDo2iQgp/I00QPhmwXQdnlNIBUT64sqVi6fzJdY1+x2dGHSAIF4ttaAe6PR88YtfNNFiGNnwyJEj8k//9E+mIwYhCuvFNvCO9MyEWIdpKIj+woiKaAvqf7OSGG0RBvtI2UTBuhFthncWEiABEiABEiABEkglAujvwMv0Rz/6kYlqx4BAswumYXRoRMajn4SHdXhICZsG2C/gu6UUDPqzb98+I5Th4SWi8vGeTMFDSgzUgwwA+JWiHol+WzLLcx4SIIHUJLDswhZ8aZA6g4sI1HXcqM6O8EhNLKwVCZDAchCAsIWoKVwH0JmBsAXBBqMYQsTB9QLRUJjukWIAAEAASURBVIjmQkFaIlL50FmBaTrSEhNP6BarH643iRcinOBLhfRHPJXD8hCOsL2EefyBAwdMFBlEKbwwH7aHzlcizRDiFsQ0TENKIj4nIq8SohnWjRciupCmOLugvRDnsL5E22ZPn/031g1xD2JaoqOFz6hv4no6e37+TQIkQAKpTADRqrhu4wYS13xc21Kt4KYc11f8NuC3BtfwpUYGp1qbWB8SuJcE0O+C1QNGmp4/mjTOLwhReDC4c+dOM7ozrB1wPUAfKjE69lLqi2sKzlUIZOgroo+WrLCFZXFfigeI6JPBGxX1x2e04Wb9TLQF88IqAn079PnmP6RdSjs4LwlkEwHcg6FPgPsbCMuJ+527xeCeCFtoBKI0cLF47rnnKGzdrb3H9ZBAmhEYHBw0xu3wtoKXFToDCbHrzTffNFFZf/InfzJH/EEnAoITCkLNETp+s5KYH50lbO8f//EfTZQUfLFQ0OFCxBWEIoycCPELf2M5XKf+9V//1URWYcTGL3/5y2abie1BmPrDP/xDicaiEp+Km6+RMnj8+HEjoH388cfy7W9/W1566aXEIuYdYj58shJC1ZyJ8z7gqWVtba3ppP3xv/9jM3XCP2EENYh0H3744bwl+JEESIAEUpcArrd4cPG5z33OXNtS8eEmblTRV0X6O1LHn3nmGQpbqXtIsWYpSgABDOh3zR61OSEEXbhwwQyog74Y+lIQkXGDC5sH9O3mPxC8VRMR5VVTU22ENJy76HdhW3g4eKuCm2mr1aJC27tGxEKfC/eoP/3pT43vKvqlixVcK9AnxUNYCGK/+Zu/SWFrMVj8ngTmEcB5//7775vfV/QJ0B+4mw+7lkXYwg0lIhdOnDghJ0+eNEPXo1MDbxuYQi/14jWPCT+SAAmkGQE8CUeHB6IShCB0YtCRgIgDcQvRUZiGp2UILUdkFFIV4TGFCC90iPBUDSMFzu4wzcaAyC/Md/LkCTl27LgJiUe0F54EYpRDCGkIPUdKI76bbR6PjhU6K3h6MNs8HqMpzi6o1/yn+BCs8F1CdMN1Duu53QJO8O2C4Pbf/u6/mdVAeMN36DCykAAJkEA6EcADA4hFe/bsMQN24BqLtGz4Dyb8du5He3Bziv4qHkygr4rfB/wG4fcA6ePwYWQhgVQkACEHfQRER505c8b0D3A84wYRfSv0nzZv2SylJaVzbhrRF8Myr776qhnRGX0j9LOwDpwDiETHPOjPIBJpw4YN5sFgYiCbW7FIiFjoTyUK6op7QERXQXRCX66xsdH0+bBdRG7hZnd+6R/ol/Pnzsvu3bvN9PmjbaPPiD4RIsFwHv/t3/7ttQF3sK5EXXDjjP4evFvRHhREdq1fv0EftJ425zvWhf4eBG0IVuinLlYQIQavWPRdE7wWm5ffkwAJzCUAARneyTjH3njjDTMoGPoDuBbhvLxV8MLctd346a4JW7iA4IYR4ZuoNNJ1EIGBCAYIXLiBReoRLsQsJEAC2UUAHSVcxCA+ofOFDgFEJxR0JnCDg+/QAYIHQ+LChhsOmMbjmgJBfMeOHUYEW4geOhinTp2Sd95519xAQWDCxRKdGQjqMJ7H9iEQ4WlhsubxC21rub6DcIYXOoXoCCJsHwXXVwhe6GyCWypGPCwXE66XBEggvQkkHlAg7Rui/9atW81NLX4X8FAAkRd4oSQTbXEnNHAtxW8Qfi9wM4vflnfeeccIb4gsQz8WkbV8iHAnlLnschOAEARB6K233hKcVziOIe4khC0IOOgDzTZxx/mG4xtCMyLZ0afCCyNOQ3TG97iHSwhbEMfQX0JUBc5TRDktdH6i3+bz+yQUDBmRCH0V3OtBcPJ4VfyZmDRR8hCME1HrOA8hliFCsrOz0wjKeMf6cS3A9oYGh0x/EJ5dOFfxHQqWRR8J86JOie9wv4mS+A7tQF2wTfQz8VA0IWyhL1VZVWk+J9IXkVb4xBNPmHXc7D94veKGHEIdCwmQwNII4Npw8eJFExmJ6xEELWTI4PqFbB6c5zg/oRstdL251dbuirCVuHhAwProo4/MhQgXXNzI4mKECy0qi5DNxAXkVhXjdBIggcwhgAsZnoajA4TOUkLUQgvR6cDTtBdeeMFc0HDt+OEPfyg/+MEPTAcFnZyEOIWnfIuJOjm5Mybva9asMZ01+C1gW+i4pct1Bx29Rx99VMrLyw2rxBPKREcOgh8u9mgXvmMhARIggVQnsHnzZhNBe+zYMRPNjxtQ/B787Gc/M1G4eGDx+OOPm9+CxEON5WoTol9xg42+KgQBiFkQCdBfxTTc/KK+uMaykECqEsBx+/d///emehiYBtHs6CvhRhHRkXjI99prr5mHeYhCQsE03FCiHwYRBzeNOA+Rfgcx6Otf/7p5cIg+Gc4RPFhEPwzrxfmAdzx4m18w3yuvvGKELKwfD+VwPn33u981hu7o1+Bcg4iFe8J//ud/NmIyxGWce3h9//vfNw/y0L/btWuX/P7v/77ZDPo7qCvOycSI1bjnxAjbuFagTij4Du1CO3BTjAKRDmIZosLQzkRB3wnXItQZDzgxMBCiyBLrSszHdxIggbtPAPdj0INwzuK8xDmK6wX6Bbhvw7mO+yAIXrgWLTVN8cYrVJJtgFoOdQ2jXOAi1tl5WS+CJ0x0BW5MkZ+MiwcugrjQ4MILJTyhuCe5Gc5GAiSQRgRwAUInBuagiIpCJyURgYQLFCKz0FGZPTIgpuOFDgY6JLheJC506GzAjwEXQURf4fNixemY8aaCaJYQfxZKCUTnB0838Q7BDRFhSD/BRRZP8hMF29r04CbxemY6i+gcobM3v6BzhieT6LShg4Ywf7RhfkEnDAan4IKL90IF7cd0vG5V4E2B+iaeXN5qfk4nARIggftBAB3VRMoQDJtxzUS0A/qPiAhBag+uZwnvHaRS4bp2twquk9jGTF+100S6IDoFnWpcu9FXxTUbv0N4EPLiiy9S2Lpb8Lmeu0oAxyr6KjhvICJt2rTJRLJ//vOfNw8IIebgvMI92NmzZ40olKgApuH+DH0fCFW4wcTDM7zjYRoEsIbGBrHkWswI1OjzINoS5yru97DthQrOHfRv0MfDOYTPeOEzznvUBWmO2D5sJxA9BVEN1wGc5+gXoe+D+bEevBIF60sYw8NDC+vDtQLnLvqa27dvN/1MrBtiHoQz1BUPQSFUoS+FdYAXsgJQsE2c92+//bbpVyLwAstjvf9/e3cCNFlVn3/8yqKCMCgIKAYYwHFBwqKyyDo4iICyo6AouMQkFWNpJamUqUpiWUmlYmIlRI1GjUtEcGEVEBSYhUVAEJDFoMFlRAUksihgZPXfn8P/jHea7n6Xed93erqfM3Wn++2+99xzvufe2+c89zm/K5xFryQv+5NvUgiEwPQJ0IHoQa4rrlGuA85b1y2fWfxef+973+2MFeeXqdX6BpPtE0xb2HJhdSFw14uN22BOXC0dCBcVi+SCYjEoXdi5I1cdCNNHki1DIASGlYAOifgEH/jAB0rnhBW+dnBMPzEd0LWj3lFr18OAgihF4HL9cBGrHSbrtzs77e3qex0P+9D50mly3emV3Bkw3VHn7rTTTiv7UibJdeyss84q73Vg/uZv/qbEmXCR/eQnP1kCxJcvW//Znzv97oZavvzlL5f4Fa1Vylsin4vzwQcf3FfY6t6m39+1c4uTa676WpJCIARCYNgIuO7rvHpYh06ra5bkxoLBs8Ek9wQBjFuDg6L2IVe1Ln5HXJ8NrE3tdlfYoFYZTFOq+/F74ffGNZqw5eZIUggMGwHHs2PW8UogIuwcdNBBRXTRRyLeGG8ZjznOCTo1CcXgfDN2MyWPuOUmG0eU453oJF836Jwb+hn+Nm6Td78+BmeFmHTOM32o973vfSWO6UknndScc845ZYyoHNyQyuocJxKZRknodi4S1fTf7KNX/7DWgTC3rBN42kN+GCacr8qtXyduDycWAduDykxvqjcTMbFPdZJch4TMIbqpq1fhc0499dS6q5Ve9QeJiG94wxtW+jx/hEAITI2AcSE9yCw/fQLXtNoncN1y00lsZYK769sBBxzQHHHEEWXsOJk99R75TWJLytpnOxZVT+jSYTDwM1CUDBLrxUNhXahYYrkwkkIgBOaWwB577N68+c0nzMlOnevuuulotBMnl2XQYEEHyjKoU9POs/t93Uf35+2/5e+iKnixDo/OSr+kE6bTZD31OvDAA1dymtXtXOtcmF33XO/qXcv6fX2td0Z1sGqS72TKXdevr6YaCLLPbUYwEwxfvWYr6UgSAZNCIARCYDoE9BEtBuXt/qHrJkFJ0tHVjzTNSL9yJhLxTDwcNx3EEuK6NQiWXLdrWer1W4f6ve9970zsOnmEwIwTcAPQlEFi0gknnFDEIDcECU/6Eo5ng8PqUCJ+1eTcIiLr05i6yNFOCONqcl4SvgjMxCnnifWJTQQwfTf9lV7JdxbnUC2LfpyyWvSjlMk5KG8ikv0qi33ajtjm/J/f6ZMRrIhIXGTe123/7d/+rbjrnb/Kb53qOlNPsVS9Er+IW6Y6y8NiurOy1KSvps5eMas3J5VF3lxcEkGew18ZiHDW65XSR+pFJZ+FQH8CznfnXz0Hreka4byUvJrC7NrgnKc7TSZNW9hyktd53E52hXFBkGpHwXsF9jkVneUsKQRCYG4J+CGeK2Frbms29b1xdek4uVtJYDLFcTKJddYjnWc66QzqdOmcTSWx3BukuevooRzq427kbCX7E4cjKQRCIASmQ0Bf0EC5dlrlUfuKte/IKWJQSuhqO02ms7+6jb6p/ieBy81V7oy6v7p/6xK5/FZaJ9e6Si+vw0aAM4qDgZOBO76dnF+O8+Wd0Aqm7NV4o9Zx/hGRCD6EKtvqDxHDiFCmAhk8GteZheNc0FcyZchNPqkK0OWPSf7nJqdyONcMZI0DnWP2a8Barwf6MsI56MvoFxGt9GmsR1xiojj77LNLPhxmXJWcoIQ0yQ0+XAhh8uGcJ1ITuohabkz2C4WjbMphX5hY95hjjin5mp6ozJwlBPda3vJl67/0kVow8jYEJkHANcbvc/t32Pv6++w7+pLkc7qTa8NEadrClhg5f/iHf1juhHEOsHS6+NRC6SRI7iJwMLCR1QCGExUq34dACMwcAR2hpCcIuPvIeu+6NChe11zw0knUNn/5l39ZYmNMZZ+upe7YuuYKvO+O62w6tuyvX6dwKuXOuiEQAuNJgDvDQ0GqEwSF6litA2bXMQNaA1RTBgWlXtXEneLBJAakS5cuLVOxOEb0VS0G/BI3r76qqfB/9Ed/tKq7zfYhMCsE/N4TprqTY5m4Ynqf+FNEGoIO95FEtDIw1PfhltL/sU5NhCE32Rz7xCzuCEKUqYTWr/v1fipJWY0HCWrbbLNNcW8RpOzf0wWVyUB2t912K2Kbm3zVWaVOBO7FixcX15T+mxt5HOrPX/D8Ilp1l0U53bQk1hmXErec264/zm/Xg9lI6SPNBtXkOcoETP0988wzi4juhpOkL+C6pG/gWsM56TpmCvM//MM/lJv5EzGZtrBlkCNqvQuPARVF34WLZdMF1J0BqRaQ5dUdBq8uoEkhEAIhMNcEqjV+rvfba38u3K6jnvg41aSz2KtzO9V8Jrv+XO9vsuXKeiEQAsNPgJilr+huq+teFbL8bYBrMMqdwa1h8Lr33nuX/uRM1Mw+3ARwrdVR5iAx4DWg5hDTZ5WUyaI8ymG9iPkz0QLJYzYJEIW4rQg3Yh4zGjjmCUAEJA9ikJyD3A+Ob+cakaed6lRGg0jHv6DxHBUEZkHqiWXPee5zyjnU3m6i9xxTziP7c557zylvzMhhxhFFdHbOe+hQdyJK2Y57Q3k40myjLgSzutjOuvXagot8jU8thC7fD0r24ZogBmvl4/pgfwS2QTGi00caRDbfhcDvCDjvnb9uXHXf3CI8O19dJ1y7CPO0I3qTzzg7J0qDz/IBWxOsXCgEAXSHy8XABdXdAnOoXSBqcoFxUWRxpbpF2Kpk8hoCIRACIRACIRACo0uAa+KKK64oU3kIXAaY9Y6sKVELO4FkBYzXoTUQNjA30J6JZD8GpMQtd39NYSJsCSR/+eWXr7gJa18GyQax4gwNmro0E+VKHiEwEwSIN0Sok08+ubgRjcUEOPcEQVP2qhjzox/9qKxnsMgZ2Z3qANPnxnbc5JxPHO6c4WLecVVtvtkT0xK7t+/3t0GsKYfOrakmZRKf6x3veEeZHvyJT3yiTJNUZ0mexpfV7eG60XahEcSIaFygxqkTXVNqHB+xuTwxUbIvgprrktisSSEQAqtGoE55pgtVx3Q9N00tJmT5/SWyO4fdkKIbtc/tQSWYtrDlgmNxAbRDdwH87dXJL06COwhcXGzfKuDC4G4c11ZSCIRACMwGgXqnTt4uhHUQNRv7ms083YUVJ8O1U8dtn333mXKnslf5xIlwTTa4c+dWhy8pBEIgBGaLgKcccZNwW+gHcs6almTQzFkiLo6BtGv1RK6K6ZSRi8Og11I6yes/0Um2T/Fz9FXF/XEX2WL61fxOfCED4qQQGEYCBBeiETNBfSiCEDHMA9wNBCyuI+MyyfFtPEZIdmxLphsSvPQxbOuJzZJtbFu3r3mULwf8R7Q2UFU2T1/0dGznOwFKv8O5df3115cYYMaOzjuf+56DUhwt5RCTi9tMMuDl1CCqWbc6t3xngOyBFPUppxxfNeaW7+27inPVUKGM/ZIy1SexVRHLPrm17CcpBEJg1Qk41z3B1HXH+WgKtOsV16M+gf6A88+1wPlfrz/1daISTFvYamdcL4LuhlnMNV7eCV543nnnFZeWTo27CDoQOjZJIRACITBbBNxdIwrp9BG2XDQNaOpFkUjEXu613cnxfr3OgGejeRuVi2n33QEdHHce6zbyI6JZqng26DPfGVS5g6o8EyX7MwVAx9UdU529qd4t7bUPbIha5reLVRFhqxelfBYCITBTBAyeOaF0Uglae+21VxlEe4qZa2H3tXam9tsrH2VwHd38lZuX6U9+Jzi0ODQIBPqqBuWTmfLQK/98FgJzQcDvOGHKEz+JRfM7YpXf8re85S3lfGpPyVMe559jmgOqOrb8bdqdwOiEJOdlPR/1jx588IHSjzJtkGmhn+hMyCI4VaGJuGV/4uc4323vMwKRc4vDTF5C1vhcn4pwZIyoHPpIVdiqLP3d/Zn+kfLryziP3/nOdxYhq24z1Vf9Mzf7uLxe85rXlM1N4bQfA3FMkkIgBFaNAB3Iue63torPZv+Jhek6VkXo6e5lRoSt7p1T+VlgWctdiFx8zaV0oaW8J4VACITAbBHQQTL15brrriudJrZ8dwHqxZLo/u///u/lLp+OCsHJHUOdM3fo3/jGN5Y7BTo47WTwY7o14cy1TOdLx1CHil1W/q593FAEsBrXwWc6dF5dvF/2spc96WlG7f3U9wQzecvL4u+ZSDqg7pi4y+kJQEkhEAIhMJsExMlwnXUX1l1ZA+stnrdFuYbWAfhs7r9f3gQ1Lg0OFwNwbhcDb0G4lTMpBIaRACGIYeBzn/tcGRxyNrzqVa8q020NFp1rFuKR88txTkTy28+RVF1NBCeLgaZZNkQyfSDjNAPPa6+9rji6fOYc7hd43RiPuMZxJeC8voo+F4GIQ8w5ZtqvcpqxY1xIKJsoePxcsyfMcbadeuqppS72rw/mJiMBTvmTQiAEVo2A64vfXEK66wOx3cLJbZy0qmlWhC0XUSqchdXb4HHbbbctF4cIW6vaZNk+BGaWgA4PB48OkY5PtYDqGNWko+J7nRZJZ2hYg+u6/rg46oyYyifmH+GqTitRDx0qr/M7dwfUU+fFXUQdNyIUl1d3ctfOgMd1rYpWOnREIp042xC32P19VqfW+IwFH1sDOgOoyaQ61aDe0axOsclsO2gd+amvTlwctINI5bsQCIGZIGBQrONK1PfbMROd15kol98KiwFrDVTr909/1ZIUAsNGQL/Ab7e+GLGIy4hYRJDh7OY6lDgT9Wf0SxgN9OFqYOZ6k894TJ+EiKsvsGzZspIP0Unfxo07g03Obn0cAlWvpA9pfX0nyfkupp2Bq1k8bgZyVsnXPqcSPL7X/mb6M+KfsumbKbc+nuuChBWBUJ9PXTB0ozEpBEJgegRcAxZ24mo6z4Sn0h9wvZqpNCvCVrtwCuuiIBiYweVkpuC0t8/7EAiB2SXA4fSFL3yhiDam6L3rXe8qHSHnbRW3iNPf+973mpNOOqkURlC/YQ2uqxPnjiQhSSfPVD4iVxW2CEQ6h+4UiAGhU0O0+uQnP1k6L4No6/y4M+qOo47eP/3TP5U7/EcccUTJ3+DtX//1X8vccVZ26xHPPv7xj5eOaO1QDtpH/Y4ApQOlfNxhtaNVv89rCIRACKwJBAhaBtbDfB1zfdU/FfPLNXsq1+o1oQ1SxtEgoE/AXWUhPDluq2Oq9tfU1GCRqEWo8eRlx7ObbYSwmghVjvcTTzyxWbx4cVn0l/SPuLnFp/qTP/mTxpRhAle/PojP9Rc92ZB7Xb+n3ugzBnSzb5iT816/8dhjjy1TEPW52iz1Gddau9MPe+rTChfck0IgBKZHwDVi0aJFZWzj3Gufa9PLceWtZl3YsjuFTidhZfD5KwSGhcC8jZ5QzYlapmEQgwhDlPTqsPTIZ3fz3JnT6RfLwZ33YUw6WBaPrNY548SqLikOLkKe792BI0TpxLhbqcOnE9bPGeViLD8BT7Ey3bE6sUxRxM5F2veEQE8Rsj9imBgzkn30u+vZzVIeeCufTqrXqSZ3UHWElds1uN91WJ25uMTFUAdckkIgBEJgJgi4pqwJSV/VtdaSFALDSMCxSYQRy7jf77lyW6/2cYhXXF0EKFMRa3K8VwFLn4gYpc9B2OJM4lokUtnW9/3SppttWvqLhGv5KV+vshG4OLfMELDe8k5YCH0vpgd9JeEeJH03T3X81f2/am778W1lWqA+V3eqMb30r9wI/NCHPlRiZHWvpy76tILLi1XanXDQ99NXs0yUlJcLTb/JtkkhEAKTJ+A61BbYJ7/l5Nbsf6Wa3PZZKwRCYA0n8OxNnl3uUpk+R8DypIraedJR0WEQO8Hj2nVGdDoOOOCAUmviS+1w6Mj85qHfNI8+8mjpqOgIyad2iAgn7tpbrCtvIo+LnH0Ihio/n+sweF87Dj6zzSBRSB6s+PZT83G3slpdfc6ZZZGPTp99S0Sjul/1cUfO/nRyfCdvF2LrixfIDVaTTqApAfLX2dGBsp0YGO3kc3lVHvKwKLP8u5O7sIQmwpTyEuT6/RjoXBHedODaaXmn4yjml6k2hEh16pe42sQlqzE4qtu23/r5PARCIARCIARCYO4I+A2f37m5aDnmmGNWecf1RpabWdzo00nlYQydBzIMSvoo+pjCOeiD6V+0U9vVpS8i3t2999xbnGlf/epXS1+ovb73BCb9SX0wfUUB3mufrr2uPo36EdyqsKU8lqncMLQfwp8bhvqrdRaSfJJCIASGg0CEreFoh5QiBFYbgSrqcGG99a1vLU+HImLpABBG3EnjPtKB0NlgN69JAHKB2H3nzp7pijooRB5uLzEJWNh1OtypIxgRasQxMT1l/1fu36y/3vpFHBMIlajG/k7wsW/5EMeUhR1+UMeLgKMDxEmlXJK4KSeccEK5i6czcsYZZ5S7hQQv06NrIhzN73QUxa349Kc/XQQiUw3f9ra3FQGM60vZxLFQNvWtSWfHUj/zSljrTjpEpg/gIQaFfXF6LV26dIU42N6G4OWOpP1pI23QS5jSkbOYMnDkkUe2syh5249po/ZJXOuXdDo9GYwop7Mr7oY4akkhEAIhEAIhEAIhMB0ChB9Clv4ggUkfrz6ZsVd+vnMTrzq/OMl6xQPVr6zilnzcNOwlVOnPuCnbfiCEPlO/9XuVyWcc+p70KEarvtxuu+1W8nzGBr+b3tlv23weAiEwNwQibM0N5+wlBIaWgE6HH3jxFwgnxKkbbrihiC46IwQPwo0AosQlgk9N7lpxJhGgCFZEnWrTJkz58deZIaj4njOJUCN/d+XkyeZO9CF8cQzZnptKuQhE9lGDkhLDiFCDprbYzsKeTpQT60o9lMd+bK9DQtyqSafH3/annDo98qidJO+JPMrbndRDPdWdKMQZxT3VnZRZXQVMrKmWtf7dfsUUe2VSnipq1df2uvJpJ5wtykWQI0ZWp1h7vfre9jqJ2plLjNjGwRZhqxLKawiEQAiEQAiEwFQJ6HPpX+r/6GvV2KMT5aPfxoU+G08jFJ5CcPv5nRuak021v6afZ/vtt9++xChzczYpBEJgOAhE2BqOdkgpQmC1E/BjrdOx//4Li8Ah1hbHEIHk9a9/fVnEXCB4dCd308RNEIRUoFLT+U455ZTifuI84o7iBiNwcVb98z//c4nlJU6EfUoErxq3gPB0yCGHlDtk3GMf+9jHioDGiaWT00vYcldPOQ87/LDm4Ycebt7//veXMhGniFVEIuWwnumJm2666YpqqLvHz3KtKYOkU1UFNq86Zr2cWGJqCTzPWSaGg7uRvWJUPWWtzl3LddZdUXZCGtHvqKOO6jkV8eyzzy75moJIzFK3/fbbr2yzouCdN7WzVeOh+U45CW7aAVfONXc/ByXbE8A8RZLzTdlwSgqBEAiBEAiBEAiB6RDQt9DXc/PPTTp9pdWZlIH7343Sdr9pojIR5vRxH3r4oeaxRx9bcZO1V594orzyfQiEwOwQiLA1O1yTawiscQT82Fte8pIdOq6d24vAQRQhIhFFCB3uvHW7g1SUMETQYfUmPBGNCEjWJWb5nL2cm8nnxCyCGeGMKEZE4tTyapoi0Ucngh3d9EX7tf7tt99e8muLUhU0R5Jy+CfZpjqu1EGcBfGxxBETM6xf54pziUDlKYo6YraVt1cik6cHcZDVDpo6cFdxO3FI+bvGuuIQI+QRjEwF3OCZG6zYr/wsRLN2qs4p++RWU27OKQKh9pjM3ct77723OO/UH3/7mKjzpcyEPc42dSQiem/fypkUAiEQAiEQAiEQAlMhoK/ULz7oVPKZyXWVZ6pl0ifr7q/NZJmSVwiEwKoTiLC16gyTQwgMNQGCEAfP/Q/c3/zm/34X9Fyh/Uj7cdfxqIIVIYSoRGSyEKGIHm2hqLvC7noRg8SPsg2ByZQ74hHLNtFLHpxHFnnaJ7HGUjsLBBQ2dU/xkeRBxPK99QlKRKSpJvsjrJ111lnFKaau8lPWmghrOMnfq7rYb1vUIbLJQ8wtdSMWtQUyglI7EcKsywVWbfjt9dvr1vfai6DFYVanaxIV5WOa6MEHH1wEu9pedbv2K06me6of9xiOOmWDEkbaSdwvZRAr7bvf/W5ptzaDQXnkuxAIgRAIgRAIgRAIgRAIgRCYawKDRzpzXZrsLwRCYMYJcDl5Es15551XApC3d3DccceVGFRcVEQa4s6FF164Iog4gYOjSrBMbqt99t2n8QSc7kQ0IYy0hSLCi8VnhJFuIcbf3EmWmohNhLbuOFLVedVet24zmVcxrwhLRDMiE5HNtEouKqkIfx13lacbCqCurvM7sRf6CTrqW0W6QUKV7ZW9u+6DykzMuvrqq4uIR1wzHZA49fnPf75MreQIw6hf2eRNlLrsssuKwEgU0zYTJWVUL44wU0EJfOKeERm5xpJCIARCIARCIARCIARCIARCYBgJRNgaxlZJmUJgBglUJ5I4U91PliHy+F7i8vHUP6LKT37ykxIYk7ghCDuh5OKLLy4upvWevt5KAdBtS7whYBGm2olY4jOCSRWnfD9I6CEUtQWy9nbTFbaIUJxophcSsQSVJxaJ42VfxCSB602/M+1STCpiWHvf7XpxpBGMOKEG2dnlTVgcJH6181U/cbG4pri/dtxxx1JmZZEHF5f2MV2z11OFqhCpHbm7DjjggGannXYqQl57P/3eaxd1N3XSfgSex0a5BrVZv/zyeQiEQAiEQAiEQAiEQAiEQAjMNoEIW7NNOPmHwGomYCqf2EmEHeJVO3nKn+8JMOJDmWZn+hkh6tBDDy2BNQkkJ598colLRVAxPc/TYNbEJFgoMe9DH/pQEfQOO+ywUh+C0QUXXFCEI0HkiUbdIl27vkQxQd+JYIOCj3o0NH6mcU4mielFdBMwn8vKPsQbIz5yTonX9eUvf7k5/vjjewpb6kbUItB5NLW25b4iwE02cYlhwL1GlBMnzP4H8Zhs3lkvBEIgBEIgBEIgBEIgBEIgBGaaQIStmSaa/EJgyAiYYsjx43V+16ONTckjWhBCPAVx2bJlRTDhbHrxi19ctjMN7frrry/T0pYuXVqcO4SdQVPhhgWBugm4vrwTBP3mm28udasxv8T28rRFU+84ncSwMl3xoIMOehKn7voQCD09EJtB0/zskzBEcJpMkqc2UGblJEqZFvnIo480CxcuLN8RvYhcyk1Ya4tmDzz4QBHS1JtTS9B+7jJC5WST+sjbK6FNXDEuMiJZUgiEQAiEQAiEQAiEQAiEQAgMG4HJj3aGreQpTwiEwKQIEDUsbQGkbki44AIyDc9i2uGiRYuao48+ukxJsw1Bw9Q0U9IIL9xd+++/fxGBpjs1sO5/Nl+VzbRDwowplaZTEmu23GrLZr/99itTK7mfiDhcV6ZpErZM3+s3BbGWV56XXHJJYTpomiGxDDdC1aCknMooLpanNuK+3XbbrXDGeeKidiHQnX322c1NN91UplISF7WHRXr4oYdLe3LVmWZJABtUvl5lqrHDPA1R8PsHO2KZYPYRtnrRymchEAIhEAIhEAIhEAIhEAKrm0CErdXdAtl/CKxGAtxE4igReAQl51baY489iqjVFkR233334t4h1Jie9uEPf7g59thjnxTkfTVW5Um7JgYRZk499dTifuJAI3ZtuMGGZXqfehOUTBUkBBGOBJcnak0UT8r31rMMmqI3kUCm0MpkGiihjGuOwGYaKPGtJsIkd50ppaYnfv/7329OOeWUUk5tIxC+xEF24IEHlnopF6Fuusk0TceCqZBcY0khEAIhEAIhEAIhEAIhEAIhMIwEImwNY6ukTCEwhwS4fUxX49ARW4mQ0R2TiauJu+uWW24pjiBCC3HHduJWWZ/4sd76660ouThVRBeuIY6o6iqyQhWZrGOaJNGGqCSP7phV8vYdoU1g80HB2uUtSD6HEdGuOqGUVYwxU+q+/e1vl2mHgrPLm5uKCGQ7jiiB262rHL5X7m6hS3lN8/P9oPKYEijmVbvuyijZrzKYBipQO7eW8sp3r732KoyeWPOJYPvcWWKiEZzEPCOGmRpKkPTkRG2k3C94wQvqZj1ftSPRT+quV3sDzE3RVD/tnRQCIRACIRACIRACIRACIRACw0ggo5VhbJWUKQTmiEB1ARFTuItMgTMVrTsRfggn73nPe4rYQRAh6hA8/vqv/7oIQ6b5tQUc0xWJIz7v/u6tb31rEXbsX+wv+f35X/x58+gjjz5pypv9/tmf/1mz1lOeKF/bSdZdTn+Lf/Wd73ynBGFXFw4m4htRjKhl+da3vlXKKgg+YY3IRFi65ppriqBEKLKN74l33a4seR1xxBGTCh5PDOw1DZQgpSycV1xjRC5uLMIVMRCz7sSBRXBTR2VasmRJmUJqH0ceeWSZMlpFx+5t69+mPBLxOMUGCVvKTJjrrnvNJ68hEAIhEAIhEAIhEAIhEAIhMAwEImwNQyukDCGwmggQLQgYvYSX7iIRlHrFWeL06pWIVpZeqduVZZ3NN+s93Y1Y1u+7XnkTsziXTOXzFEdTDOXB4fSzn/2sCDpEK0//22GHHUoZiT2bbbZZEcMEejdNkfjDQUb0st0PfvCD8jlBiuNp8eLFZdteQmAtlydMYky4kq+pgjvuuGMpk9hb8pIWLFhQhENl5srCrZfoRLSyKL98ubjkQRSTf6+pj1VAU5Zbb721PPnRvk2/xKBfsv+IWv3o5PMQCIEQCIEQCIEQCIEQCIFhIRBha1haIuUIgRCYEQKcTp4oKAA+x9H8zpMgPZ1QYHziDzGHm4yAVIUdUwD32nuv5vrrrm8uvfTSsq44VuJd2YYDzBRF0wYJPkQv8bAmkwhIgs1bbGtfxDavkidMErbELCMetl1v/fI3lZNrzHZcX9dee21xvvUSoohY1iHEcaTJn8BmuiOnXlIIhEAIhEAIhEAIhEAIhEAIrMkEImytya2XsodACDyJAHGIgOTVdDuvnjBI6OK0Iuw857nPaeZtOG/FtgShjeZt1Oy0004l1hgxiDPKNEjfcbSZHih216okjqrnPe95JQuCFmcWkcqrKZm9hKl+++PWEjSecCYu2vxt5vdclXvNQwGsc8cdd5R9cJkR9WpZem6YD0MgBEIgBEIgBEIgBEIgBEJgDSAQYWsNaKQUMQRCYPIEiEMWwk9NHEqWfqluI4ZVrycJirNVnzzYL4+pfi5PC/FsOolAZ0qnZZDzqopyhLmkEAiBEAiBEAiBEAiBEAiBEBg1AmuNWoVSnxAIgRAIgRAIgRAIgRAIgRAIgRAIgRAIgfEgEGFrPNo5tQyBEAiBEAiBEAiBEAiBEAiBEAiBEAiBkSMQYWvkmjQVCoEQCIEQCIEQCIEQCIEQCIEQCIEQCIHxIBBhazzaObUMgRAIgRAIgRAIgRAIgRAIgRAIgRAIgZEjMGVhS0BmwZU322yzkYORCoVACIRACIRACIRACKxeAp726qmtXqeb9FP1V9sPEpluXtkuBEIgBEIgBEJguAlM+amIniy29957T/tJXsONI6ULgRAIgRAIgRAIgRBYnQQ86XXRokUDn/g6Ufl22WWX8tTYQU/EnSiPfB8CIRACIRACIbBmEJiWsHXAAQes0l20NQNNShkCIRACIRACIRACITDXBAhbRx111CoJW7vuumuzYMGCJsLWXLde9hcCIRACIRACM0fAb/njjz/ebLTRRgMzfcpvO2ngGvkyBEIgBEIgBEIgBEIgBEIgBEIgBEIgBEIgBOaQwOmnn97cfvvtzZFHHtlsueWWffccYasvmnwRAiEQAiEQAiEQAiEQAiEQAiEQAiEQAiGwOgjcdtttza9//etmq622atZff/2+RYiw1RdNvgiBEAiBEAiBEAiBEAiBEAiBEAiBEAiBEBhmAlN+KuIwVyZlC4EQCIEQCIEQCIEQCIEQCIEQCIEQCIEQGB8CEbbGp61T0xAIgRAIgRAIgRAIgRAIgRAIgRAIgRAYKQIRtkaqOVOZEAiBEAiBEAiBEAiBEAiBEAiBEAiBEBgfAhG2xqetU9MQCIEQCIEQCIEQCIEQCIEQCIEQCIEQGCkCEbZGqjlTmRAIgRAIgRAIgRAIgRAIgRAIgRAIgRAYHwIRtsanrVPTEAiBEAiBEAiBEAiBEAiBEAiBEAiBEBgpAhG2Rqo5U5kQCIEQCIEQCIEQCIEQCIEQCIEQCIEQGB8CEbbGp61T0xAIgRAIgRAIgRAIgRAIgRAIgRAIgRAYKQIRtkaqOVOZEAiBEAiBEAiBEAiBEAiBEAiBEAiBEBgfAhG2xqetU9MQCIEQCIEQCIEQCIEQCIEQCIEQCIEQGCkCEbZGqjlTmRAIgRAIgRAIgRAIgRAIgRAIgRAIgRAYHwIRtsanrVPTEAiBEAiBEAiBEAiBEAiBEAiBEAiBEBgpAhG2Rqo5U5kQCIEQCIEQCIEQCIEQCIEQCIEQCIEQGB8CEbbGp61T0xAIgRAIgRAIgRAIgRAIgRAIgRAIgRAYKQIRtkaqOVOZEAiBEAiBEAiBEAiBEAiBEAiBEAiBEBgfAhG2xqetU9MQCIEQCIEQCIEQCIEQCIEQCIEQCIEQGCkCEbZGqjlTmRAIgRAIgRAIgRAIgRAIgRAIgRAIgRAYHwIRtsanrVPTEAiBEAiBEAiBEAiBEAiBEAiBEAiBEBgpAhG2Rqo5U5kQCIEQCIEQCIEQCIEQCIEQCIEQCIEQGB8CEbbGp61T0xAIgRAIgRAIgRAIgRAIgRAIgRAIgRAYKQIRtkaqOVOZEAiBEAiBEAiBEAiBEAiBEAiBEAiBEBgfAhG2xqetU9MQCIEQCIEQCIEQCIEQCIEQCIEQCIEQGCkCEbZGqjlTmRAIgRAIgRAIgRAIgRAIgRAIgRAIgRAYHwIRtsanrVPTEAiBEAiBEAiBEAiBEAiBEAiBEAiBEBgpAhG2Rqo5U5kQCIEQCIEQCIEQCIEQCIEQCIEQCIEQGB8CEbbGp61T0xAIgRAIgRAIgRAIgRAIgRAIgRAIgRAYKQIRtkaqOVOZEAiBEAiBEAiBEAiBEAiBEAiBEAiBEBgfAutMtaqPPfZY88gjjzRrrbVW89SnPnWqm2f9EAiBEAiBEAiBEAiBEAiBEAiBEAiBEAiBEBhI4OGHH24ef/zxZt11123WXnvtvutO2bF1zz33NOeff35z1VVX9c00X4RACIRACIRACIRACIRACIRACIRACIRACITAdAnQnehPdKhBacrC1t13390sWbKkueaaawblm+9CIARCIARCIARCIARCIARCIARCIARCIARCYFoE6E70JzrUoDRlYYtSduWVVzY33HDDoHzzXQiEQAiEQAiEQAiEQAiEQAiEQAiEQAiEQAhMiwDdif40446tRx99tHnggQeaX//619MqWDYKgRAIgRAIgRAIgRAIgRAIgRAIgRAIgRAIgUEE6E70JzrUoDRlx9agzPJdCIRACIRACIRACIRACIRACIRACIRACIRACMwVgQhbc0U6+wmBEAiBEAiBEAiBEAiBEAiBEAiBEAiBEJhRAhG2ZhRnMguBEAiBEAiBEAiBEAiBEAiBEAiBEAiBEJgrAhG25op09hMCIRACIRACIRACIRACIRACIRACIRACITCjBCJszSjOZBYCIRACIRACIRACIRACIRACIRACIRACITBXBCJszRXp7CcEQiAEQiAEQiAEQiAEQiAEQiAEQiAEQmBGCUTYmlGcySwEQiAEQiAEQiAEQiAEQiAEQiAEQiAEQmCuCETYmivS2U8IhEAIhEAIhEAIhEAIhEAIhEAIhEAIhMCMEoiwNaM4k1kIhEAIhEAIhEAIhEAIhEAIhEAIhEAIhMBcEVhnrnaU/YRACIRACIRACIwXgXvuuae59tprm/XWW6950Yte1GywwQbN05/+9ALhV7/6VfOLX/yi+fWvf908+uij5bu11lqr+e1vf9tsuummzbx588YK1sMPP9zcfffdzc9//vPmZz/7WbPDDjs0W2+99UoMbrzxxua+++5rFixY0Pzf//1fs3z58sJ1iy22WGm9/BECIRACIRACIRAC40QgwtY4tXbqGgIhEAIhEAJzSIBwde655zabbLJJ86xnPashXFVhi+hFqPFK2Np8882bddZZp3nooYeanXfeeeyErd/85jfNT37ykyIEXnPNNYVTFbaIfY8//nhz9dVXNz/84Q/Ld9hefPHFhRl22D7lKU+Zw9bNrkIgBEIgBEIgBEJgOAhkKuJwtENKEQIhEAIhEAIjR4ALiXB17733Nt4TZ2riNrrwwgubH/3oRw1RhwPpu9/9bvOVr3yl+cEPflBXG5tX4hVRrzrZ8Kjp/vvvb3784x833/72t5ubb765cLTeDTfcUMRBYheGSSEQAiEQAiEQAiEwjgTi2BrHVk+dQyAEQiAE1lgCBIwHH3ywiD+EkN///d9vnvnMZw5lfTixlPUZz3hGcWURbyyPPfZY89Of/rThTNp7773LdDp1uPXWW5vvfOc7ZTqedebahWRaJMHorrvuKq/KrhzSuuuuW+qx0UYbFXdZdaC1XVLqa3tinjy0lTaSnvrUp5Ypmc95znOaZz/72c36669f3Fbly85/uDzyyCNlffslBNYkv5tuuqn53//93/I5Z5uFUGjqItGLK86Uz6QQCIEQCIEQCIEQGDcCEbbGrcVT3xAIgRAIgTWaAPcTAeijH/1oEU8+8IEPNLvuuusaUydCEeFGHClurYMPPrh5xSteUaYemopXxR2C0NOe9rRm7bXXnrO63XnnnUVAWrx4cXGP3X777UVoIjoR57baaqtm++23bw466KBm9913f1L51Ot//ud/mssvv7y57LLLmjvuuKP55S9/WcpPECNqvepVr2r23Xff5vnPf/5KwtagShIBL7nkkiJcPe95zyusfu/3fq9wI5jddtttzUte8pJBWeS7EAiBEAiBEAiBEBhZAhG2RrZpU7EQCIEQCIFRJED4IaAQTaoraJjq+fO7Og6i5T8uzqvrrruu+f73v98QiD7zmc802223XUOY4XIy7ZCj6Vvf+lYpPkcUV5LYURdccEHZhivphS98YRGC2oHnZ7q+xCfOp69+9auNMj/wwAPFUSXgfXWNcUdxUZn+R+jintpv4X7N5pttXorDNaX8F110UWkXopz62l6yrfp+4xvfKKLekUceWerGqfa1r32tuNcIVKZoEvjOOOOMwuClL31pc/311zdXXnll4Sao/qc+9akydZOIJmGD85ZbblnEs5122qnZdttty3f5LwRCIARCIARCIARGnUCErVFv4dQvBEIgBEJgbAiYCkeAIX55JcBIhCTOJ+KRxXoW7imf14DuFZTtCTFEmTrtzbp1m3betpFnXe/OO+4sIoxYWYQesaLkI27W/PnzG04j7iduLeXy1ETryZtLy3LppZeWQOnyXrhwYfPiF7+45N9dTt/PRCIQmhZ59tlnF4GIA44ja6+99mo23njjwojDbOnSpUWE4p4i1nFvVWHrv//7v0vMMOLYZptt1hx++OHNLrvsskJgUkcuriVLlhRxTGB4eRO2vv71r5d9EyzVHwsCn3haxxxzTCmTKZrcWRbvtY/162ff/OY3i6ilTISuCFszcWQkjxAIgRAIgRAIgTWBQIStNaGVUsYQCIEQCIEQmAQBLihPGuTw4UASdJyotOGGGzYLFiwoYs0BBxxQhCTrEUhMYTvxxBNXyv2qq65qTj/99LINoYQDiEOMMCNQuffiUcmb2PTyl7+8LOJ9cQ3ZxzbbbFPK4amI9i+WFgFMvCjuI2UjvizsCFfKQFwi/ii76Xp1eiUBaIsttpi1+FHEPwLS5z73uSIS7bfffs2hhx76hGjVedqg+hHgTCX0njDHteWz6uICDxturx133LGU3RRLsbTUXSJAqQeBkKgnFpc20i7HHntscW/5nAvLVFPTFTH0N9HMvkzZxJEgpv2IZNhpI9McN9100xJr6wUveEHZZ/4LgRAIgRAIgRAIgXEgEGFrHFo5dQyBEAiBEBhpAtVhdfXVV5f4TkSitvuHCGOaG3HE1DZxuvzNgURg4gqq8aw4hghe559/fhGoiCViPN144w3FkVQDonvlGuIuInLZH+GGGEN4IbiISeVJfhxMhx12WHP33XeXvE0/JIrZJ/HH9ER/m4JH/LI9Qcv3BBui0mwkIpOyc5MRpYhJixYtaohb6tJOysBdRYzbYINndAS6e4vzjCPN1MXvfe97jRhdBx54YMmDGNhOphCqk3VuueWWIkKpq7THHnuUAPrKwM1G9CL4mQqpbBgTxuy/ClgcZD5TLnwJbjhu8bwtmnkbzmvvOu9DIARCIARCIARCYKQJRNga6eZN5UIgBEIgBMaBAHGG++fiiy8uwhGhioDFPUUAMd3vC1/4Qnnl6iKEiF1FlCG0mFbnM0/VI3r5jDhGYBInimPoiiuuLK/yFjydAMO9ZQqfuFEXXnhhEXSIN/0CvhOqCDAcWVxhhLiTTz65Oeuss8oUPAIRUUdZ1cX+CUXvfve7Z6UZiXjcZ+pvv4S4Pffcs+9TJpWf0HfwwYcUsYnQJNYWVxVu6r3DDjsUF1a/AhOsdttttyLgeTJiv0To8+RF62oni3YkFBLECJKEQssVV1xRRC5tftRRR5UyaIekEAiBEAiBEAiBEBgHAhG2xqGVU8cQCIEQCIGRJiC+lWlyXEKbbLJJEWfEpSKM+M4UN24twlEVrDiSiFk+56AyndC2RCzTBW373Oc+t7iACGcEG0ncKVMOucA4xQhnBCLryL/G7eoFnCgk/pN92o4gpJwEOMKSAOzEMp9xK3E5eXrgbCVOKHUlEqkL9xPXEydUTdgQA5WXS60mfDBTF+KW7bEmdil3v+R7y0SpTn8kVhHeCFrKtnlneiSGWJmOSIzDT3kw065Ex6QQCIEQCIEQCIEQGBcCEbbGpaVTzxAIgRAIgZElUJ1Er3vd64r4QkCSuLg4ibh9iC6SJwBKRCyxmHwv5hXRRD5iXBGZCEpEEnlxFpliuP/++xcBhSB03333lfU4i4g79al/BJ62MFR29v//23SzTZt113nCbUSMsY+3vOUtxZXlqX6eDiiA+/HHH98cd9xx7U1n5b16ELUIVoQk4qCYWN7XJCj7OeecUwQ/0y0l2xEFlX1+JyC+7cXqwljdK+uaR/u1BvT3WXs/7XXqdwQyYuVNN91YvjZF0tMUud5MFf3IRz7SvPrVry5OuSoEdueTv0MgBEIgBEIgBEJg1AlE2Br1Fk79QiAEQiAERp4AgYSYwllkaqD4WVWEIUoRbyxEqiqsVNHE9DYLJxaxSyB17itPBSR2WZ+Qw8m1ePHi4k7izDIdzj5NvyOWDRJpagM89JuHmoef8nARwupnq/NV2QlZBC31VG914Yiq4hQO8+Zt2HFs3b7CseXJh9azjfU4sNSfqFdjj/UT94iM1d2FYb/1iIXWw/7hhx9ZnZiy7xAIgRAIgRAIgRAYagKzLmzp9JmWcPc9dzePPvJo6TTrQCaFQAiEQAiEQAj0JlB/OzmuTCMUsNwUNEKM74gehBRuKYkgY0qd6WqmznFcSUQT2/RKxBtuIMHJBW23EGjsj8DlCXwClRNiTA+UNwGMM0uyPVGoPe1OuSztpLxEIMIYwY0rjFhDAOL6Eqhev8B0O/smwFn30ksvLeXnjFL/2UiEJXG81EEZxKviHBN/rD7N0HsOKdMt9WckZfYER3UTl0wAfNsTorSZfEzj7JWWL19e6koQ44irTzDETX51WqcA8/JVf0wkQfy/+c2rOu2xWWGEK2baxXRIQqRF2yhXUgiEQAiEQAiEQAgMAwH9Pv2jddZdp9lk401K/3QyN0UnW/ZZF7Z0XnWKr7n6ms50h3s6AWMPLB3lyRYw64VACIRACITAuBEgoPjtXLZsWfOpT32qecc73tEcccQRRejxHXFJZ4Bo5ZXgYTqhgOwErje+8Y3NjjvuWEQb4hYRhoDV7kCIw+TJhZdddlkRxohXhJVf/OIXRRzZdbddy9P1CE7nnntuEXMIN4cffnh5aiDhpApqYmUJwt6d5Eewse9TTjmlCENEM1MaldPnn//855uvfOUrpU4EOWLXl770pWbJkiWl/ALNv+td7+rOekb+JrIRrQhMnG3iVgmET0SswpbPiVa1Lnas7lhaxOUyDZBAhiHHm2mW/YQtbYq5tM8++6wQtvyNFRFL8H4MtOnBBx9chDDfX3LJJSsEP6yIWXhZT13E43KciIcm9lZSCIRACIRACIRACAwDAf2VJUsWd0JabFyeQq0v5QbjTKVZEbaIWQpuSoTHX+vwuqPoDuJLX/qyCFsz1XrJJwRCIARCYCQJEEw4eog/t956a3FhEUqIFf72NEHiFlGFcEUEI4ZUZw+HkwDvvrc+FxERiphFGCPSyN/vMlcWlw8nkTx0NAg99W6a/fickGJfRBt5S0QcziL7rcKP98p9ww03dNxF3yyCl++4oghG8q7T/zjEiELqxX1EWNKH4JISQN56nsooudOnHPKU1y677FLqp7zTTYRB29sfkUkZPI3R51UcImppD/USQF5/hvNMnWyLsYVIiLMYZRJW2Corwcp3GF9++eVF0Nt5552LI8u6WNnONFKOMe1CcMNGbLParj6TJy7Kwd3VHTzecUKMSwqBEAiBEAiBEAiBYSHArbV06bLyoCE3+DjW9b/0dfSyx+R5AAAtdklEQVQH9UtXJa3a1l171hm1iL2hY3beeec1yzp3JnXWFHTBggVF8OraLH+GQAiEQAiEQAi0CBBWqqBCWDL1jVjBkeOGEXHE7y1Rg1PHOtxUBBh3v7z6mxhlaiJHjxtORBbrElok+yFqEYlMNbQ+QYmYVDsYVbCSJ7FGIjIR05Tr61//enEOKa8ycXwRcU4//fQiwBFf5LfbbrsVp9ZWW2/V3HzTzcXh5PMTTzzxScHjOc66g8cT5oh0nF+m5xF/bK9M6jHdpF5ELOUQjN20PvsispmOiZl1ONJ8xxXnvc89idArVupH0NP3EZCf6MU1t/XWW5e28ARD0yu9ys/6L3vZy0qxiXVccb7DUWePU4uzzfYc71KCxxcM+S8EQiAEQiAEQmANI6Afet1115W+nP6ivufChQtLH8rDhPTr9Kdq/3Oq1ZsRYatOi9DZdhdZgbm0dGwpczqcCutuqCkISSEQAiEQAiEQAoMJED8II550SGQRuJ0wQrAiKr385S9v9t577yLyyGnRokXFUUQc+fCHP1zcWVWI4vghBhFhuI7cgKqJg0rgeL/bOh3unNW4T9bZ5NmblLzdXfMb/5nPfKY588wzy2+733cuLPG5CGBELfvxuTzsj/jEdWQhoqmXZapJh0fe8uFW+vu///vmmGOOKaKYMhCEppv0TXSw3vSmN5WbcaZfEu2Iffo4NelsWZcgtf322zd77LHHCv5cbOql7hxdV1xxRVnqtvhYCFoY77rrriu2JVpy2XF9aQ83Aud3nrbofW3Dmk9eQyAEQiAEQiAEQmBNI6D/RA/SF3KjkovdTT19S31GN2/1kbi4pnPTctrClru9lLa77rqrCFg6gZxZ7mSK5WG6gKSDJ7itDqA7jxG21rRDMOUNgRAIgRBYXQTcFDr66KOb888/v4gsBCoCDsFjzz33LB2Eat8m/BC7uI38JluXe4uYxNlVhS3rc3nVRBQisrgp5Tt5EI9qmrfhvPKERPlyKsnXq06HaYncTvoEnGCm5MnbVDlT7XyukyIIer0DRzyTuL44m0xnlJc8l3c6OfZTn8BoPbGrTMGrwhYBijNKLCziEVGIwGcK3nRFIOW1vPrVry6CEhHPzTqxy5STuGUapz4MAUrHTP2Ure4TZ+v4WyeNU87NPfXRD8JGGbmuOMHUqU4Z9Ll66StpK9MNeyUCojprS4wIlERP+9IfIyTiP3+b+c3mm23eK4t8FgIhEAIhEAIhEAJzTkAfih7kJqjZfWYJ6Ad6L+aqPpe+jBuw+rn6p/o7dZbBRAWetrClk6ez5u7xss50Q504QUzdRba4oywRtiw6vqxmOo5JIRACIRACIRACExPYdNNNi6BDTCEouaFEJCGe6CD4Ta0iFZHk8CMOL50G0/90BKzre7/D/iYu2ZaAVRPBxbS5v/iLvygijo4EEammKqQddthhRUzz+1/z9h0xx3c+J2DJi3OJOGY9ZbT/7lQ7Np/97Geb0047rWxPRNK3+OIXv1gCytuG4HPssccWNxMB6DWveU0pnzt+XGY6Quqg/nitSlJ+9eEy05dRHnWQsFRfS91fFevqPnHj5nK3UZB97WXBw7rawrbWq4KYbYmJ3Hnq0P685ltfly5dWpx7BEtt7Ji46KKLSl9M/lirg4cNvPa1r62b5TUEQiAEQiAEQiAEVisBfc+FHT3IjTk3bOlFVTPSJ2SQEnNUX85NUesecsghKznnB1Vg2sKWO6s6okQtTi13EXUCdTR1br1KtRPuzqoOYlIIhEAIjDKBQw89tFyMR7mOqdvcESBgWDhxJkrEIy6dqTp1CCIWYk6vRJSpgs5UhKPqRuqVJ5GoijCm5XF+9Uvs6cQ2+WGhDMQugpMnJz744INFjOolnvXLs9/nU+HdKw8ctZXF3cbJJmLXoLT22uuscN8RNLGwr+7kc3n1c3x1r5+/Q2AyBNy8Nl0kKQRCIARCIARWlQCXeb3xVzUjOhLnPxeXxXv9OwvdaTLpyb2iyWzVWcc0B8KWJx+yjNW7w92bU+EUXOfTY6qTQiAEQmCUCRhUusuQFAIh0JsAoYyAZCoed5Og7QcddFDvlft8SoSzCN5+5513FHdY22XWZ7M19mNOL2IZtxpWRDPOuKQQmAsCZmf8y7/8y1zsKvsIgRAIgRAYcQJMUISrKmqprvc0I8n3P/zhD0u4BTMC6U7c9BOlaQtbYkC87W1vK4/FproJ5EpRkxSmWvdZ6nVgdcT23XfficqT70MgBEJgjSbANpsUAiHQnwBX0fMXPL84i4Qp8BTG6SYxqUx55GKaCcfWdMsx29sRAN/97neXoPLiTehXJYXAXBE48MADB06RnatyZD8hEAIhEAJrPgE3S772ta+VaYgELomTv/bjiFj6dsI0HHDAAc1JJ51UYpZOVPNpC1s6Vh5FTbhyF9EjsGuwWsFMiVyUNwW06Hx6epHYD4PiR0xU4HwfAiEQAiEQAiGw5hIgytQpk4StVUkCto9Dmt95QqIlKQRWBwHx3yxJIRACIRACITBdAkQssbQs4oMyQnHxW4hZnPfCVHClu6HnwUCe+H3qqafOrrBFrHLXlQvLI67ZxK655poVMbfa9jK2MkHCTEV85aJXTjn+x3ThZbsQCIEQCIEQCIEQCIEQCIEQCIEQCIEQCIHVR+De++4tehBdyAw/yc1Owhbzk/ipZr54Urd4qsJN0Juqk2uikk/bsaUAduJR13bqrimFzd8eT14fk33nnXeWx3KrgPV22mmnCFsTtUq+D4EQCIE1hEB9alx98t4wF5ur2FP07rvvvhVT5ycqrwDd4qZtvfXWU54yd88995QbPp4C89KXvnQlm/VE+1XG6667rgRt94Q9d7IEcJc8Ce/uu+8uTw9048h3fo/d+dIx4KKeShKk080pj1fW0dCxaD81cVBenmD4y1/+ssTZ1C8Q5L2Wc9B2+W52CeS87M9XENqLL76o02nerHnVq15VzkvH7mRSzsvJUMo6IRACIRACIfBkAnf/4u4Sd50upM9KN/KwGzFX9XU5g3feeecSQ9W4ov4219cn57jyJ9MWttrZ2JmO7Ete8pKyHHnkkSXg11lnnVUeS22aoqcmeqrKvffe294070MgBEIgBNZAAjXgo4Geh4eYnu53oP741CCQhJe6rmp6bx49wag9n74iIKzUxWfys42l5l0/q9u016vv5d/91DiBKD3Zy+8RYcj+ByX7VCc/uu4gTTUWlBs7Z5xxRiMmpen48prsXScPZfnKV75SfvQJa8997nPL9spLMLvxxhtLHTyghZikrt7rEExV2PK77EEwXNXa0r7ss/IexOj+B+5vbrvttubnP/95qZs7a+6+Yafta7zNQXn4Tlu0OzETrZ/vexPAXcp52Z/Pj3/84+Y//uPj5Xx+5StfWVbMedmbV87L3lzyaQiEQAiEwNQJ6G/Sg/TD/e4yQ5lqSDvadtttiztr6rn+bosZEbZ+l90T78TQMjfS03sMBAwmOLh0WilzSSEQAiEQAms2AbEU/UB96UtfKk6fww8/vNn+JduvcOQSdQSG/M53vtMsX758haBDtNpyyy07DqZdmt1336N5wQtesBIIN0JuuOGG5pZbbinCCJGGo8hjgAktngTHHcy15DOpflYfYEJkE3CSG6OdOIs86GR+J1bRXnvtVQSrQU+W4/Dy4/v973+/8+S9O9tZTeq98tx6661F5FHvKjpMZmPT+Ylv6ux9WyAyML/wwgvL7ymrNg5cKMQu8QnUbyoJT440YhqRSp39hk9GIFtn7XWK4HbllVeWMuio+J2Xl89+8IMf9C0KHhZl9oTD448/fspl75v5mH6R83JwwzsPudlcP7gNHa8TCdztHHNetmnkfQiEQAiEQAhMnoD+of63PjqHFjHLos85EzHYZ0XYcudYwS3ib+lEXHXVVWUQtPEmEbYm3/xZMwRCYNQICJj405/+tIgVxH4XdAP76o4x0CdiEFLcFDCF27V02B68oYwGeZw6hJ8rrriiNNUmGz/xdDoikifm3nTTTUWgISAZQHKSmPamvttss+2ThC2iyre//e2ynR85Ig1hjEvJ9p5+RxgjwPhMwocrihBlsGoaHbGmW9giANlGntZhfca+X+I4UlaDYILBVBP3k+21oQF1W5yaKC/7JoyZZlhdb44N+ai7O146B4RB7ipTLLHWHtbBqh5T9qU9iIzy7HayKSdu2FsIUurbPR1R+bnCuLO1gaSN7N/vPDHLMWsf/nYMy69fUi/7dhxpOw+k0TZzmdrnGxHO8aDeXGtt0bMKIgRExyMhkJPPOt0857L83fvKedlNZOW/6zHnuHMsd58nK6/95L9yXj6ZST4JgRAIgRAIgckQoAMt7MyA0C/eY489yo3RmXzK86wIW+2K6fCZmrDbbrutuPve/j7vQyAEQmCcCHAj1ad7cNu8613vKtPU6uDYwJQosGTJ4ubjH/9EiXf0ile8ojFlxkB6WBLBhTB32GGHFdFt2bJlRQDyFBODffUweCTcHXXUUc2CBQuKAHD55ZcXkWVQPeTtaXkvetGLithxwQUXlAeQEFFM6WNb9jQVri6JM5iIJW/iDXFnULr55puLk8gP66AfVI40bjGizzAk4oqyEIEISAcddFDpGBCWCEgG6o4dQhFW7elVnGPvf//7y3p+k9upijtEP9t+8YtfbIQSaG9vfe1JHPyrv/qr5u1vf3vJok499Dhmd9wIYkShAw88sPzuE7n6JfsjFJmuuboY1+PU+faxj/1HcY6Jh3b00UcXsbSWXd3FIDvzzDObk08+uTnuuOMaLkVOs3ru1nVX52vOy8H0Hd/OE21WA9YO3mLib3NeTswoa4RACIRACITAxs/auPThqz7k5tJMplkXttwx1jnW8U4KgRAIgXEnwF3EfrtkyZIiwohrRFjwYA2JmPKNb3yjE3T8W0UAMlAlGIjPNEzJj5LlhS964YrpclxTBosGegQNDh7inRsbBC4iAreRqXT9hAxCiTrjQEj45je/WV7lZxsBJwkixKvqouKAs17Nl+uGY6tf4voivohN1XbldK9PdLEo86BUHUrqp50G7dvAuk4xNNWPAIWjxN3FDfTd797SXHvtdUV8U09CijgEjgO/qab2E7AEl8fb9jXmlimKuPuMm8ujkvG0Pp6Su2SS8morx59Up2VxpUj2pdNROx5EWftW/pq4ssTnInIK+mlbTjjtbhmU1BcrS7/jYdD2M/GdumG1ccdp6BglGnLoEaywdZwQQrA755xzGqKoduPq0q/pFv9mokyrkoe6WHJe9qZIoHQuaFvn3mRSzsvJUMo6IRACIRACITCYgN9effDZSrMubM1WwZNvCIRACKyJBEzj2mabbYpowWG0ePHiMsjiUCIwGFifffbZRUwhZOy+++7Nwo5t13cG2ISDOpgmTHSLEv62ECwk4oSBrm28l3wvn7ao4XPfW8/6dV2ft5NtqyBi+3kbzitP/CNq+MEi7BCciE9ED6LF/M70MmKA6XC1HPZfB5nt8hFhDDgJOhxZRD7JPtWfqEK48STeKpxwI1166aVlPfvj4OqeRudLdSJkcH3tt99+ZT3r90v2f8011xSRrR8P26qrcqmTKaOD8uR4MnUTK3UgdKq/pO0dE4LGm1ZoAG6/hCPHDMFI3txaEjHv+uuvL/slmFkcT/KQHDeccpx+8sGegPqRj3xkxfGkTR7/7ePNuuusW9zVykJkwlpbExqJVrh98IMf7Ahu1650bGDPxbTPPvuUxzM7ZrWfsvdL8lL/YUi4KC+nIQff3/3d3xX2pnpqG+wIl9rMeWnd1772tQ0XpemIGM3EeenYcYxbtFPlU/P3OW6+s3SnnJdPEMEBS23SKzlPHfOO83qs91rPZ44N7UDUzHnZj1I+D4EQCIEQCIHhIBBhazjaIaUIgRAYEwIGpcSC+ph5won4VLvssksj/hYxRYBzbiJPCRGnkGBx7333Npcsu6Q577zzipuEUMShZKqc7wVi5JjidCKQcBkZ4BF4iA7yIXJId/3vXc2ypcuK+6QG9yZeEGWUY9EBi4pg1cvNZH/KSFQRO1EiAIj3xFXE4SJovHqpAxFJGQgC9iE2E5FA/C3lXLp0aZlmaVt3cQg18iYWEb5qMmBVT2KaAb7X9vft9eQ/v0esJszsf3nHFVVFtyoq1e3br5w7RA0OMGz6JWUmRMmLwNdr33Vb/KzvFZeFHfGJqCkRrkyztD0ByRRM+95zzz3LANuAHBvl4i7ad999y3RNx40pmGKT2d6xIMmH0OR4606OgVv++5YV+yDUEATtT172bzEtz6KMhDjCrHLWpJ24uBxbRDsCjOOCCERc0E7tRCjQBqb69Tq+2uvO5Xvuq+2ev105VwgaNWYcd+XXvnZB5+8ryzGs/occckipw0yel5x2HHiOC+egqY6SKaamhRJkiL6mePq+O+W8bMr1AaeLL76oOf30M7oRlb8Jro5Z107x/t7whjf0XM+HrmWOU8d9zsu+mPJFCIRACIRACAwFgQhbQ9EMKUQIhMC4EKiOC9PzDIxN7zJ4JQZxIhEprGNAbQBt8E+guv9X9xfhgrDFdUO0MIgjZFkMbKszh2PKdwZuxJYqBhEfrPejH/6oMQWS28a6BvIWghBxwlMFiRwGdN1JXoQVjqo6OCScEKW4teyP0EE4IoYYhFdhxfdcLvLlPOIMMtVPmYhU8lYO6xPp2sn3BqS1rMQRA8/u5HviSd0nYYogpLwELd+buojNZBIxjjPMvokdGBO55F9FMYHbiRLqxVk1KFWBDjvinnqIJabNMbQQx+RDYNIWYpRpT38TDCXHhfoTBAke6qesyufY8d621blmHdPrCDjyUWavFkKVAb/jTPm8tz8CKxHRMaGNCFVEtraw9eCDD5QplL53PBO2HEdEOfvvDkPguPA9Qa+dzyBmc/EdnhZTN9XXtENCIQfc4sVLVjxNk2hYhSXrzdR56fjSJqbaOr9w1hZE5IsvvriwdZzU6bfdTHJePqdcU7TJ3Xc/IVx1M/K349Ti2uOaYn1irrbvTpi6djifXI9yXnYTyt8hEAIhEAIhMDwEImwNT1ukJCEQAmNEgACx8847N4JuEzgElCcMEDa4BPbff/8iWBAWCA6S7wk1BlwEoje96U1lkMZZI2aXKWvcWUQDUxiJIAQXCyHmiCOOaJZ3xB3rW5eo8pa3vKU4UQhMpsARHuqUq17CFtfTrrvuWhw6r3vd6zrOiNPL1DiilYGi8slXPdSNmFJTdWwRapRTsp11lY+r65hjjnnS0wytR/AzHYgTjSglcDpxsFciXlVBxzQifM8///yybZ1mV5n22r79mfUJDfhcdtllRWzUNgSlKmxhpny4dAty7by8Vy7TIAlRyuS9fbSFsu5t/I2N9sDUNDl1EntLWzkuDNZx+cIXvlDEGNPquAI9nECa3xFC//RP/7QIJ5/4xCeK+Gg7ri8xt7CsZTAtz/FJxFnWeSgA7px1YnZ5iIH2HZSIBQSB17/+9eVYbq9rql99Kmj782F575wkzhGUnCv/+I//WI5r7kNPbeRM7E4zcV7W88F5yUXp2FAOrDgbCc1ve9vb+oqBOS8PKdc9x6bjrlc7aTc3EIj6XJPOEU5F10uiVXcidjkPsO2Xcl72I5PPQyAEQiAEQmBuCUTYmlve2VsIhEAIFAIGRAbLBlYcW2JJ1c8MYgknXDztZKBrEG16GdGBc4ugIREeCAqcPoQJAzXiDecNcYKQIvmM+ORzTgX5KYdBHgGHI4QA1W/qHTGHOGMhlph2xmlGgCNSGQgSWAgDBJt+g0JuFNPpCF+cR9UxoW7KZYBvUC/vZzxj/Y640JmO2XGmcQ3hQkwSMF3iMFJuwg/BD7sa54pTSf7cLsrDEYNNFdy41jhzuMt8xu1FGOuX1LkGDVeW6m7ClANJ+Qcl9dRGyuq9OhIeCSpVjOu1vfZQJ8eAunP3cODZp2OA4Kc86qCuuLfdY8RQx4c21j4EAG1FULG+6aQ1qZ9jcZNnb1KOF3kReXxGsFLnQUkZHWfKbOpeOxHPlFP7D2NS1+rOETTcsYGTdnVced+dZuK8dIw6Bomj2pIzU77OK8eczwmLjs9eKefl/HL+ON8J5f3OQ9dZ1w/XCSxdUxyn+E4n5bycDrVsEwIhEAIhEAIzTyDC1swzTY4hEAJjTICAYDEobQ/eDaa6RRODMCILRwwhgHBRB2WDRA6ChilTBCAiDIGIYEBYEg+JUCGZQmc6GCcVUUciWlkIWpwg3AtEFQLEYYcdVsqgrAbUU01EAWUj1hDaTOOST7dQhAtGRD0xg+rgsO7PYJMDjWhG4CK6yLud5F8ToYYIYYoYB1Q7PwISBjifcsopZeqdfZ5wwgll8//8z/8sDigOjxNOPKHZ4Bkb9BUP1EN98JEISpxa9k+sMZgmUAxKjgHlI1ZgRXA02Pb3oDaXr/0SpohStuXgURdT+zhRuLfUq8ZnapeDIEVA0+aOM+4jTi3imjoRq+rxqp6WjeZttMIZJ7aX6ZPaw9SsySRt3C2COS9WR5rKeYmPmHSmaTpvCH1EQq/VpderDqtyXhINCWrcjF/84hebL3/5y2UX2v2d73xncepV8bfXvgd9Nm7nZT8Wjm/XJuermwKuGcRxbkzHRz2v+23f6/Ocl72o5LMQCIEQCIEQmHsCEbbmnnn2GAIhMMIECC5VkCFCSAQn4tPb3/724vrwmUEWkcEAlrvJwNkg2iDr61//ehG6xNnpleRHyKoDsSpEECiIVgbJUltUqqKFgRh3ApFieceFQ+wwra0KLgb0ppsZZBNgppOIRNxBnt7HUSS/mpTDVDpxg7gmuNMIfL2S+qmLAb369kuEO4JD5dFvPXwNasVPEj9KEuOM24sD6rxzzytlriJgO5/qBFEXg2LJNEeilH1XYQrzySR1N6URC4PrQw89dOBmeKrfdIUhIudrXvOa0tb26bgzbbEeI9pFvQ3w1bXN0nv8OYZMZ52/zfyBZZUHoc/UVvHW2okDCq/p1qOd11TeT/a85Lzj4iMSal9iqc+0M0eV86vfdNNVOS/VhVBNlJa/vJzXnJSuHVyVq5rG5bzsxamK0NyObiKYqu3656EP2rleg/tdi3rl6bOcl/3I5PMQCIEQCIEQmFsCEbbmlnf2FgIhMOIEOHiIJpwtbWGLcGCAXJMBlkGVuE2EGQ4ssXUMwAgPxByD3F6CDqGhilcGv20xhUDVy1VShS1uFKKK2EocKDfffHMR2OzXlEhuKeV59atfPW1hi3BGuODWIYaIxWXAqJymQMqf+KccXC696ogTBgQZot+ggb2BqX0RAwYlZTKoVUfODcl7n1dRkTPJe2Wq5RLY23tlIG5gaRvi4LLONE9ih2lqnDFtQWhQWbZ43halDcRBwx0Xg+S2K8d+tAtxSB21OaedunJgOcaIIb5TlirQEWGsy6mGsaTdufnUn6BqWyKqZD8Wzi91N53R+jVpO21gGh5BYKJU+RARTatrJ/l3u+/a38/W+8mcl5WBNiF0aHPiI1GMu8cxiwsOvdp5Vc5L9XZMWWo+Xh1b2oxYuKpp1M/LQXy0n9iCrsmuexycpjg7R1yLnfecodrcNXVQcpzkvBxEKN+FQAiEQAiEwNwTiLA198yzxxAIgREmIPaVwZIg33UaFpHBFMP2U+AMki+66KIiMnBJ/fEf/3EZTBtUe6IcEUhAb8LPoClqU0VpQEZgIxgRrwRrrwLElVdeWcrwX//1X2VKnbpMJxFBiEFEGKILV5TpazjYBxFGnbjHiEUG772SMppKKA4UQalf4jgj5rXFmF7rGrTar6dNHnnkkWWV0047rVnecW4oH+GHW0depmcS5bTDV7/61cLMtvIgPmhbQqT6mA5oWuVU2mnjZ23crLf9eqXM3E04GXxXN1AVh+zDFEr75N5ZuHBhYUuE+vznP1/cZ8qiXYl0XFiEGGVxDJrG1k4ccpg7BgiMEtGEePK3f/u3RZQVcF79ayKwVHb1s0GvVZgx3fHYY49dadX3ve99Rchri7ErrTBLf0x0XlbeF154YZlCS8wzVfMP/uAPinhoujARWjsQ9wiKM52ch8uWLS1CpnOFwEIIJFQSbZ2vq5JG/bwcxMb5wkFIOHZNrW5UD1gg7nPJOv+dG47ffqkeJzkv+xHK5yEQAiEQAiGweghE2Fo93LPXEAiBESVArOEIMHgyCJYMUJ/29KcVEcPglUPAQJkrhNPHQJmwQowwqOLkIlR4UiIBpjotZgKZmE4CqNepN6997WtXPMWQc4iwo4wG1FNJBnzyNvhXJ/GmiAkEmy996UsrhB9TEAk5BpSEo0EuK4KNshhEDkqmPHI8EQMGJfsl5hCyrrnm6rIqkY2oY1uiEjEDBy4pQiR3EZGO0KEduHXkwfWkjWw3vxMfS4wy60w2VWedgbT94VSn7Wl/wqfjxDFEVCKWOrYIKpgpF2dVO3i8cpm2xunn++rWapeJ+NctAKo/No4/IqNj1xS86SbHArEM2yuuuGKlbLRTFQdW+uL//6Ec2p1r0boENsxX1eU10XmpDcTUMlWSG46DkqsRQ3Hb1OfMM88s54dpnD7DeqaSY4n4snjxkiJQ2r9EHDZV1TGw8y47N/M2nLeSq2+i/Y/TedmLhesY16CnIOJIGMaWO8v5Svx1nFrHser6y83VTlxeRONxPi/bPPI+BEIgBEIgBIaRQIStYWyVlCkEQmCNJWCw1E/gMMj0lD+iCpcRIeiNb3xjiUHFSUAgkcR74roxkBYonOhFfJiJRCwxJYcrjBhDONh0s02LS4lIoxzK389F1V0GdbIoH4GJO0sQeoPDo48+uriNPv3pTxc3EnGB+8RTGznUJnI4mT5G1MJp0LrWIwxNVObqbBIwn4ghcUlxL/mOI4rLiHBhwQN/IiBOBsGEJVP+DIaJHUQ8Ligi01QTwZOYZkqg48L0QEnwcMKOqYnyJxAuWrSo2Xr+1s3NN91cBuXEp7e+9a1PCh7/5je/uWfw+KmWbVXWr8cE8VYMt3YiVBI9+zm2CDnW4a5xHqgPsZEYN9EUsfZ+ut9PdF4SFQmwjjciknhkddolQdOx4LzR7p/73OfK8Uj0UteZSI5DgjMHIGeVeHxETW6iD3/4w4XXQQcd1Gyz7TaTErZqG4zTedndDhg4llxvCVvOM0Iwcct5zJnpWOTWIiq6Lmjn7bffvghc9XiTh+NjnM/Lbrb5OwRCIARCIASGjUCErWFrkZQnBEJgJAlwonBlEHZM9TPQJpSYhmjKXU2cBKYcEU/E6jI10QDLVLeZGERz8xBMOI4IQqafERkMon1u/8cff/yTXAu1fN2v6kV44vQiiplyqZ4GjdxIhBuDSYIBpxTnkTIQqgwiJ0rqbuknhNi+flcHov3yVD5uOm4xjhuJg4yASPAjIpjyOL8jMBITuXd8Jlg8l4fBMEeHV2IWVgQvbTjdRDwx3ZKopvyEHU42Qo5yEMw4gzBUz4nqON1yzOR24lLhxFnW3caOMe4rAk2vZH1ciUZcNKZWOrYck44d7TeTiRvHsclpSFTiVDP1FXuuOgl3Agih1tMnic5EOwKYtluV5JwmkJqWLF/5KQPhUvK944+L7KMf/Wjh4LqB76A0judlNw/XTwLx6aefURi/4Q1vKK5L7Vb5OZ8WdoQunLW/p7E694jJRGXJupZxPi+72ebvEAiBEAiBEBg2AhG2hq1FUp4QCIGRJGDgVKdZcQdxLRFXDJ7a06wMqsR64S7gWCEOcAwYWBGJuKw4n2oiIBFsDITrFLX6HZGAaEZIqtOmDNCVhbBFNONcUi75E6UM3jz5jpAyKBmME8OUjduImCVuDbeJ6T9ELINxAh3RRn1MlZOv/dmvzwkV6kxEUIZ2Uh/rGOybjtYvqaf993JscWOZ0saRoZxEKS6sGgSeSwZDU404zpSH+GI9AeY5XvCTt+lqyqO9cFQubdUr4WNbrKV+ghQBjXhlsI2lfXK7EcuIXtpP+STfS44f75Vd22NLBMLdMXPppZeW9YiHyqkumBNwCDm1TGWlzn/KaiF0ypvrTtt2p1oHx2z7GOxeD9tBMdHq+j+/6+cr9lPzdhxYCIdYqAtxAgdPCfV5r2Ol5jnVV/V0jHolNhM0CMtE2cpd2YhtnojpmObeIXZ5T4BzPK3Keak9HKf2Y//avfJVLtcJ5wse2keyTWXWrvM4n5euI5hoF2K744Yz1rXOcXPccceVc61bbMUcZ+eTc+m8884r5xKR2fkjT+f9OJ+X7WMs70MgBEIgBEJgGAlE2BrGVkmZQiAERo6AwTjhiGhkIGWgTHhoi1oqbRBl0LzXXnsVMcp7ogrRiADCudV2u1TXyHve854iyLSnxMnfNC4CjEFfTUQCsbUMmAlCdZCsjLaxr+7BX922vhJKqquMcGRgL9j9wo77gQB0+umnF+GMAKNOviNUmZp27rnnlkEnDgS+6lrrFraUw8ByMsHjbUvA6U4EH088O/vss0u5lMVgl4iDrbg5xAKDWMKX9Uw34xKyf+wNkNWJA4RzywCXCFKFj+59+lt+8jVgluzL0p0wwV/5sdeeBExJm3Uz8TneyvfZz362OeOMM4qARtSyiMt2zjnnWK04fTyR0tQq7fzBD36wiFvEj3ayfwtWyswZpH7dCTuLY41IsCrJ/h579LFyzGIk33Zy3BIZaxspE6ZcW86jXlza20/2vXpqT4KrKbQEpV7Hf/f5q620j4UINt3z0jGrLniaBut4k3dNzlVx9jyggODqXMakm1ddf5zPS9cg56Rph8Qpr65RhMKFneuS6wwhuDvh7Rh405veVKYlLl68uJwLrg3OHzcNCP45L7vJ5e8QCIEQCIEQGB4CEbaGpy1SkhAIgREmYCBqcGzgXN0Y/aprXYN3SzsZ6BvYtpOBnKVOXWp/Z38ENEs7Ea0mU472Nt3vDcblY8BHcCD4cGv5TLwr4hDRQHkNCJXPd8rCQcFVQZzh4jKwNFj3vcGkxXcG8gai/ibm9EsEGcJNjZVlPWKOga5yEi1M7yL62Qfhwj5xtp19+dt3BsLYcOEQ1TAkaCmL6YoCyddytctDEBInibNGLCbiEfeHtqkCWS9hqy3Q2Jell6hU9yUP3+OI/SBnne/tG0NCEheVelaxrebptX6v3O2pWu11vMes7Z5ba60npmkNElu689BOHHQ33nhDh9V1RUxznBD5alI/TjnTRn3uOKlCXy+Odbupvmof4rJlfmf6Yb806Pytx3l726mel+rffW7LzzHpOJxsGufz0nHl/CFaL+84Rh37rgGmbhKuum8iVKa2sS4x1XHm/HZdcM1xbavnZM7LSiyvIRACIRACITB8BCJsDV+bpEQhEAIhMPQEDPYshxxySJkiJtaUgSCXBFGL0CPgucDbYgRJRBPOE1Pdli1bVp78J46VbauTQtBwDql2MkVoKkme9msgu9XWWzWLFiwqg9teeRjQEsaICtwxHDQEIYNhAooyGzCLvyPgvumFBr/d4pD6EmtOO+20EmSawFDdVwSTWr9eZZjsZ8QVggmhwxRIweO5fCab3vve90521Umvp56EJ+WarODExYen+Gae/si1R4DodtwRdgVMJ6QRuogTxN22GDjpgo7JiuN8XjoHna/OT68ceM5jLr+2aNrrUHB+Ok8dZxyinI+EbGIWpoPSuJ2Xg1jkuxAIgRAIgRBYXQSe0rlLO6VH+oh38Y53vKNYuk01SQqBEAiBEBhfAtXVQIQwsOSW4NgyuCQW1aljCPm5IQj94u5fNHfcfkdxbvlb/BuCheTJgLZf1UT84fghlgwSlYhwHGHKyRFkQKwsnFAGrMpsepeYPdaVLwGs29XE2aHuyk+4I/Jw24jNQyjrF4trKvW0D44xZeEGIwZxlq3OJG4XhxpHHmceMXEiIaDGYMNT3ChM1YOjrpcrxjFW18OTsKVtkvoTGMfz0jXIeefcEGtOLDjHFVFrsmKoc51ji0jNvena5Jgj3PZL43pe9uORz0MgBEIgBEJgJgkcc8wxpa/+yU9+stl33337Zh1hqy+afBECIRACIRACIRACIRACIRACIRACIRACIbA6CExW2HpyJNvVUdrsMwRCIARCIARCIARCIARCIARCIARCIARCIASmSCDC1hSBZfUQCIEQCIEQCIEQCIEQCIEQCIEQCIEQCIHhIBBhazjaIaUIgRAIgRAIgRAIgRAIgRAIgRAIgRAIgRCYIoEIW1MEltVDIARCIARCIARCIARCIARCIARCIARCIASGg8CUha2nPe1pjSfPPPOZzxyOGqQUIRACIRACIRACIRACIRACIRACIRACIRACI0WA7kR/okMNSv2fX9xnq4033rjZc889m/nz5/dZIx+HQAiEQAiEQAiEQAiEQAiEQAiEQAiEQAiEwPQJ7LzzzsVURYcalKYlbC1atKiZKONBO813IRACIRACIRACIRACIRACIRACIRACIRACIdCPwK677tpst912E+pPT/ltJ/XLJJ+HQAiEQAiEQAiEQAiEQAiEQAiEQAiEQAiEwLASmHKMrWGtSMoVAiEQAiEQAiEQAiEQAiEQAiEQAiEQAiEwXgQibI1Xe6e2IRACIRACIRACIRACIRACIRACIRACITAyBCJsjUxTpiIhEAIhEAIhEAIhEAIhEAIhEAIhEAIhMF4EImyNV3untiEQAiEQAiEQAiEQAiEQAiEQAiEQAiEwMgQibI1MU6YiIRACIRACIRACIRACIRACIRACIRACITBeBCJsjVd7p7YhEAIhEAIhEAIhEAIhEAIhEAIhEAIhMDIEImyNTFOmIiEQAiEQAiEQAiEQAiEQAiEQAiEQAiEwXgQibI1Xe6e2IRACIRACIRACIRACIRACIRACIRACITAyBCJsjUxTpiIhEAIhEAIhEAIhEAIhEAIhEAIhEAIhMF4EImyNV3untiEQAiEQAiEQAiEQAiEQAiEQAiEQAiEwMgQibI1MU6YiIRACIRACIRACIRACIRACIRACIRACITBeBCJsjVd7p7YhEAIhEAIhEAIhEAIhEAIhEAIhEAIhMDIEImyNTFOmIiEQAiEQAiEQAiEQAiEQAiEQAiEQAiEwXgQibI1Xe6e2IRACIRACIRACIRACIRACIRACIRACITAyBCJsjUxTpiIhEAIhEAIhEAIhEAIhEAIhEAIhEAIhMF4EImyNV3untiEQAiEQAiEQAiEQAiEQAiEQAiEQAiEwMgQibI1MU6YiIRACIRACIRACIRACIRACIRACIRACITBeBCJsjVd7p7YhEAIhEAIhEAIhEAIhEAIhEAIhEAIhMDIEImyNTFOmIiEQAiEQAiEQAiEQAiEQAiEQAiEQAiEwXgQibI1Xe6e2IRACIRACIRACIRACIRACIRACIRACITAyBCJsjUxTpiIhEAIhEAIhEAIhEAIhEAIhEAIhEAIhMF4EImyNV3untiEQAiEQAiEQAiEQAiEQAiEQAiEQAiEwMgQibI1MU6YiIRACIRACIRACIRACIRACIRACIRACITBeBCJsjVd7p7YhEAIhEAIhEAIhEAIhEAIhEAIhEAIhMDIE/h81VHtqinV9AQAAAABJRU5ErkJggg==;" vertex="1" parent="1">
          <mxGeometry x="-810" y="60" width="346" height="164.11" as="geometry" />
        </mxCell>
        <mxCell id="0aMXtVE6ToLzCRf37EBO-2" value="" style="shape=image;verticalLabelPosition=bottom;labelBackgroundColor=default;verticalAlign=top;aspect=fixed;imageAspect=0;image=data:image/png,iVBORw0KGgoAAAANSUhEUgAAAggAAADrCAYAAAAMs25mAAAAAXNSR0IArs4c6QAAIABJREFUeF7sXQd0VsXW3em99x5IAgFC77333hGpggUVC5YnPvXps8uvDwVFREGQ3nsPvbeE3hNI76T38q99Lh8EDCQfBk25dy2X+uXeuWf2nJnZ98wpOkVFRRuhXioCKgIqAioCKgIqAioCxRDQKSoqKlIRURFQEVARUBFQEVARUBEojoBKEFR9UBFQEVARUBFQEVAR+BMCKkFQlUJFQEVARUBFQEVARUAlCKoOqAioCKgIqAioCKgIlI6AakEoHSP1DhUBFQEVARUBFYFqh4BKEKrdkKsdVhFQEVARUBFQESgdgXsEgcEM8WmRyCvILf0p9Y5Kh4COji7MjaxgaWJTJtlTUoDISEBPD3BzA0xMgLg4ICEBsLICXF2B/HwgIgLIylL+38YGSE4GoqMAQyPA3R0wMACio5XfbW0BZ2cgO1tpm8/zObbHdmNjAVNTwMNDEZH3pKUBDg6AkxOQnq78xovPWVgoz/BZ/jd/Kyy8L5OTM2BvB7AvlNPQUJGJ/+ZziYn3ZcrNVdrOyVH6S5mSkoCYGMDYWHmOWLBvKamAvT3g6AhkZgJRUcp7+RzlIE7x8YC5GeDuofwtMgLIyFSeYX9SU5X36esrcrPffBdlKo5veDhA2Yib4HsHiIoGjE0AN1fleT53544iE3EivhHEN0+RydLyPr5mlMldwZBypxPfuzIRa/6mo6M8Z26utE182Qafy8tTsCROfJed3d0xj1bGms8ZGSljTpk0Y8772ZeCAqW/bE+DL3WLz+nqKs9xvDQ4ZWUC4REAY62oF5Sf+PIftsHnBN9IZSwoE3FgG+wL8aHclIl94TutrZXnKBP7wj4RX8pK/Hkf73d3AwwMlbbZHvvK+6jv7Atl0uihRn+JGdvW6C91ViMT8WVb7Cdl4phr9Fcz5pSFcvMdLi7F5lQMYGjw4JyiTNQJysC+y5wivs6AtY2ig7FxgOldfKm/EeFAesZ9/dXMKRlzV8DM/L7+El/KUBxf/j9xKo4vx6X4mFMm3kd8KRP1VzPP7yQB0THKekKcOD6cG2np9/GlTFGRQGFRCXPKXGmLF8eO/X7UnOI7NPO8tDWLcnKesy8yz+/qoa0d4OJ8H1/qr2ZOEV/qIceR40kMKVNGhjLHKRfn+ePmFNtim9QnzluNHmrw5Vr1uDml0V8Nvhr9LS4T+0I5NOsD5dOso5o161GbQjGCUIhFR/8Hc2Nb6OsZlmkTUW+qHAiQ/GXmpsLbzhdtfHqUKjQXPirssWPKxG/ZUpm8584Bly8B3jWApk2VBeDoMWUjaNYU8PEBQkOBU6eUzaVNG2XynDkDhIYAfrWAxo2V+0+cALj4N28BeHoCly8r7fM9fI6L6PHjyoZctx7QoIEy0fgc/9aihbIIBQcrMrm5K7+RdBw5omwEjRoBtWoBYWFKW5SJfeHCFxwEXL8O+PopMnFROnpU+Xfz5oC3t/L3oDOAjS3QurWyAbJvxKZOHUUmLhKUie9l25yoFy4AFy8qGwOf499OHAfi4oH69YF69YCw28DJU4CRoYIBF5SgIODqVeXdzZopmwT7wo2lSROgZk3g5k3g9Gllk2N/uWHy/4mv/12ZSMbYF44PZeLipcGXi1arVsrmxr4Q34C7MhHfUycB6Chy896gYODqZYXo8DkuyMc55skKvrVrAyEhigxmpkDLVgrBYdv83dcHaNxE6cPhw4pM7BvH/No1pc/sO/tCfE+eVPAlRgEBCr7Uw6JCoFVrZQE9f17Bl4ubZsw5vryXMvn7K/hSBhJV9oWbFvWQY1qjhvIcF2E+xzEnvtRfykTdsLJWsCO+HN/bt5V2GzZUSMTRI8rG2ayFsrFeuqToL3WS+sPNQvQ3GmjUUBkb0d/jgJ6+IhMXbOrv1SuAp5fyXGaWcg/nCGXy9VXGlrJz827LOWWm9O1WqKK/xJMEhe/T4Ovlpch0nnPKXukL8SWWHPN6AQq+JEOcw/qcUy2VMSe+ly4CHp5K2yQtGnwpk8yp2woulIV94ZziWMqc8lXWh5Rk4MRJhYQ2babgLvgGAzbWQOs2CllnO9zo6hDfRsqmzvcRX45T8Tnl7KTMF+JLHecGzTHh2LANPkdiwOdIZATfq8q7KTs3YWJAfIk3x/zGDQVPzin2hUSB+nz7lqLflInryfETQE72/TmlwZcEm8/x4vtjYxR8Odcp08kTCukgvlwTNPOcZESDL+c55y3XIj8/ZR3l+mBprjxHfCnTzRv311Fu+seOKh8e7K9mTlFXOKc4X/le9o1yaOYUMaOOEV/OVw2hLWljeJAgHJuJALe2MDEyL3UTUW+oPAgUFRYiKiUUpgZGaOvTs0yCk/VTubgZ8+KELJ4xg//P63G/PeqehzNvlLXtJ32uJDnL0pfyuqe092uDr7YYlGWctHl/aX15mu97mm3/3RhUh75oq6uaMaiIOlaWtaA0ubXRMW2xe1J9IqGzMAdc7lplHt4c/kwQ3NvB1FAlCGXaRSvJTYVFhYhKJkEwLBNBILM8dEhhwPzyUi8VARUBFQEVgaqFAEnImtWKhaZN25L79hBB+B4B7m1VglC19ADaEgSeic2eDQwerJit1EtFQEVARUBFoGohQIKwbTvAYxsev5R0qRaEqjXmJfZGW4JAC8L27cq5Fs9J1UtFQEVARUBFoOohQL8H+qbQ16YMBEG1IFQ9FaA3sHZHDMSADnJ0IKIfgnqpCKgIqAioCFQ9BOjUSj8zkoQyEISZCFB9EKqcFmhLEGh60oQzkiQUv6Syl1req8rpSLXrkI4Eazz2UnW92mlFleywxoGxpM4xeoJ+ZozKUglClRz+0julLUHgEcOqVUDHjkpYmebKLyjE5VtJuB2T9piXctktDwZRXu08StTyar+82il9HMt+xz8h05O880meKTsKCgUoQRd1AAcrEzT1d4S+3t0wnYeaLSwqQtDVeEQlZkDnUe1oI8pj7y0vHMqrnXLrmBIzq64H5QmoVm3xY8/NwQxNajv+6Tn+bflyJcyxQweVIGgFbFW6WVuCQCfFuXOB/v3vJy0iHjm5BQg8HYGsfF3YWZtWJYjUvlQXBIqA5LQsJKekYnT32jA0KPkMrbCwCCv2XIeVpSVMTR5hf60umKn9rLQIJKZkIicrU3S9pEuTU4X5IFQLQqUd5r8muLYEgcySSV+YmIeZATUXCcL+4EgYmZjD1dHqrwmlPq0i8A8gQN2OS0xDyO0YjOru91iCsGrvDfjVcIWFmfE/IKn6ShWBv45ATEIqIqLi8MwjCAI/Bnk9ytdMjWL462NQ4VvQliCwQ1xIHz67EoIQFAkjU5UgVPhBVwUsEQGVIKiKUZ0QiE5IReRjCAKzVjJbLrNIqhaE6qQZxfqqLUHgIspUtkz5y/TEqgWhmipOFey2ShCq4KCqXXokAo+zIHAubNqk+JkxpF0lCNVUkbQlCDQ7zZsH9Ot3v7APoVOPGKqpAlWhbqsEoQoNptqVUhEojSCsX68Uo2KdE5UglApn1bzhSQjCihVA585K8RnVglA19aI69kolCNVx1Ktvn0s7YggPU4pb2TuUiSCoiZKqoippSxAelQdB9UGoitpRvfqkEoTqNd7VvbelEQSGtNPX7FG5EqqVk2JeXh4KCwthYGAAXV1dZGdly78LCgtgZGQk/10VL20Jghwn5CjZtYpDojliMDYxh4saxVAVVaXK90klCFV+iNUOFkOgNILA0vSWFkq58Wp/xHDx3EXExcahRZsWQhI2rNyAWnVrISw0DE1aNIGbh1uVVC5tCQJZ5a5dSk334rUYVAtClVSPatUplSBUq+Gu9p0tzQeBR8lMlNS+vUoQcHDvIdy6GYoBQwcgNS0Vv876DUNHD0HQySA4uzihc48uMDA0gM7jclNWQpXTliDQSfHHH4FBgx6s5qg6KVbCwVdFfgABlSCoClGdECiNIOzbp3wE1q9fjQlCUVERMtIzsGfHXoTfDkP3Pt1x5dJVLJq7CN41vRAbHQdDIwP4+fvhuVeeg4OjQ5UiCdoSBFoQDhwAGjQAbG3vK45KEKrT0lI1+6oShKo5rmqvSkagtERJ6elKkiQ6KlbbI4acnBwhB4t+WYS0lFTYOdgjPy8PLdq1wIBhA7B943bUbVAXjZs1hpm5GfSqWAlDbQkCFSU/X1Gc4sYUlSCoy1BlR0AlCJV9BFX5tUGgNB+EjAxAX19JllRtCQI7TufEA4EHEXozBP71/LFy0UqxEvjU9sWlsxfh4uGKZq2aoUvPzjB8uIShNiNSAe/VliBwEY2KAuzsAONiWWZVglABB1cVSSsEVIKgFVzqzZUcgdIsCIGBgIODYi2u1gSBnT+4R/FB6D2oF4JPncXpY6fQsFkjHD1wDDX9aqJZq6aoXbc29EmpqtClLUGgD8IffwA9egCurveBUJ0Uy6YUJKP5+XkwMDAs8aiqoCBfCtzpFrNUafxeCgoK5BlNRA2Px2jt0jco3TcmPz9fLD56eor+8v950SJW1fxqyjYSf75LJQjaI0d9ps7q6+lDp4RIr8KCAqnXWNzyWlhYIB9l+vqPLnSl6KtOiRZbPkvdf6DNggJwLaN+F9dn3sd5o8t5o6cnzxXk58scorzVWfcfZ0GQao4rAHdXoL1azRFiQQg+HYxmrZshIy0djGpo0boF9gfuRy3/WmjSsik8vT2h94gSsNpPrYrxxJMQhPnzgd69q2ImRfqjpCM6MhzeNf1k4y3vKyIsFOtW/YHO3frCwNBIFigHRyfY2NrLq04eO4jc3Bw0btoaYbdvwtLSGk4urtDR0cWZk0dgZW0Lv9p15d47SQnYsn4FBg0fK5E34WGhyM7KlL/Z2jnCydkVekJoi7B7xyZpq3mr9kIODu7dIQuqh2cNuHl4wdzcsry7WunaUwmC9kMWEXYLB/duR4++Q2Bn/+eywefPnkZebg7qN2oOEgM9XT1cv3YJoTeuoveA4SVu0CQAB/ftlKIvbTp0E90ufoXdDpHn6wQ0gr2Dk2z2169ewtXL59Ghcw9YWtncuz0jPQ1HDgTC3dNb7s/MSMfObevhXcMHurr68K/bAIaPsqFrD0eleqK0IwYJc7R80Bm9eAerRR4EKmNsdCzWLV+HyxeuoG6DOvDw8sSWdZvh5OKMm9duwtHJQYjDkFFDYGT8iAOZSqUa94XVliBwEb1xHXB1A8zMHrIgVPJqjtSFs2eO49svPsDMX5bC3t6pXEZV88XDxm5cvYSvPn4XAY2ayheUvoE+WrfthMbN26CoqBA7t65HdnY22rTrjPWrF8sG37ZDd9Tw8cXCebNR07cWuvYcgCLqbUwkfpvzHaa88T5Sku/ghxkfw8raDncS41GrTgDGTnoVVtY2KCzIx7I/5gkJ6dl3MAryC7BhzRKkpiRL/+o3aoomzds89ouuXICo4I2oBKH0AeIXOK0CmuvG9cvYtHYZnhn/Ipyd74aC6zBHimKZ2rpxFbKyMtF34AgEnzoGFzcPREdF4FzQCUya8pZ80dMqK3OEHtB3j3xPHTuIwB2bMPXd/8Dc7G7Z2LsWhZAbV7Fu5SJY29hg+OjJMDMzx5lTR3Di6EEMHTVBCDffzyv5TiI2rVsGv1p10aptZ2RkZmDBz/+Dp7cPQm9eQ89+Q1DLv949y1rpCFSdO0ojCDQy0ij0qBRA1YIg8Gvq7BkeKZxGo2aNUa9hXZw7fQ7Xr1xD195dsWX9VgQ0CJBcCAxzVJ0UAa4PVJqq5qTIRYoLzdcfv4ufFq6VL6L83Fzk3zXta44FaKKkdUESaRXkiwmTmz0XTibcKoKy6PF+HicEnTqGU8cPySKUGB+Hc0HH0b5zL9n8uUBaWdmgfefuuHzhLDauWSptDhj6LG5cvwQDfUPk5GRjzHOvYNWS3+BfrwFatO6APTs34+TRg7LQtmjTETV9/RF68ypemfYBzp4+hhvXLmPQiHHQ19fDtk1rxNJgbGKKAUNGo6ZfbWxZtwJxsdGyuNL0+tyUN+Hq5ll1Vr8n6IlKEB4PGnU1NjoSC3+dhcL8fBQUFYo+3751Ez6+tWFtYwtdHV0Ym5pi9MQpsLGxw5b1K5GVlSEEYfXS31G/cVPk5Rfg6MFANGvRRtob/uxkBG7fKHNEjs3y85CXmyvzgeTV0EhxdnL3rIGRYyfL5p+SnITw2yFCcml1i7gdIsSDxNjJ2R39Bo+ElY0tFv82W4iDg6OzyMR0d0sX/QJraxsh4vaOThj73CuwtXtEPuEn0KPK8khpPghhd1Mt0w+hpKtaEAQqZG5uLooKi8Q6QNZ7eN9hfPf5d2J6ykrPkjBHW3s7vPz2FNRvGFDiWVtlUYqH5dTWgkCSf+oUULs2YGVV9SwIxQlCTnYWli6Yg7NBp2BqaoZnxr0AR2dXbNu4GkNHjUdNP3+cOnYAB/ftxuARY3Dm5FH5W3paGlq17yQLDzfljauXgNEy7Tt1l6+WHVvWYuykV5CVnYWkxARcuXgWQ0eOh7mFJbZvWouc3Gx06NwTOzavQUDDZvK1P/a5l3H04B40bNJSCEFyUiICd27E3l1bMPWtj+TYYOuGlUIQgk8fw827BMHC0hKJifGY8cm/4O1TC81atkPgzk2yMBsZmciXn4OTMxwcnGBk/Ih4psqq3FrKrRKE0gHLyclCxO1b8sV/6UIQFs+fA0cnZzHxv/PBF/CqWUtIKcn16mW/Y+XiX4U0U59d3NzhW7sebofcwKqlv8G3Vl05sv1uzhKkpNxBWmoq0lNTsHbFIjRu3kqOJYpfRsbGYhHjPHN184CruydysrOFLJwPPoXgM8fRZ8AIODo6w8beQUj6hbNnsOjXWWjToasQ4O2b14oVr1XbTujcs5/ITnJAMl/drtLyIKxerfiZtW1bjQlCSV2/dvkawm6FoUGThjC465RI4mBmYfan87DKrlTaEgRaD36eA/QfUHKipMqcarm4BWHOwrXYsXktMjMz0LZjNwSfPo5dW9fjoy9+wB+/zkabjl3RvnNPLJ7/I/T0DFC/cTNs27AKXXv2F0vT8oXz0HfQCLRs20msAlwAaeK/ef0yTp84gtbtu8DezhF+derJV1CzVu3kSGPnlnVIz0gTX4HNa5fL7zFREbLY3bxxBZ269kFAw6ZCCOb873Mxw374xffy9bZ66QK8/Oa/HyAI/D0hPhZTJw0Xv4S3P/gc1jb2OHPyMHZv3yhfdny/h1dN1G/UrLKr81+SXyUIZYOPH1X0dVkwdyb09A2QnJQgzrL2js5CfE1MlbPHzIwMbF6/HJnp6XKktvKPX5GengoTM3M4OrmgZ7/BWLt8ET75avY9p9z42Gj8Musb2Dk4oYZPLWmHzoQuru4IaNhEiEnwmRO4eC4IjZq2EIJAX5yQ61dw7cpFIQKWVtbiQ+Rbq44QhPdenyTz8JW3PoCuDoTU8GjPv25DpKWloEWrDnL0Ud2u0pwUt2wBnJyA5g/ytHswVQsLQklKwQnAf0gKqrqXq7YEgRaEDRsUVulYzCepMkcxcKzpEEVva40FgQQhMSEeXLDS0tJw6XwQdm1dh0VrdmH3to24k5SI/kNGYf7P36HPgOGo6VcH165cQG5Ojjg57t62Af2GPIMefQaJL4GBgRHaduiKO0nx2LBmqTgQGhkayUbPf3gWamFphVVLF8ixQffeAxF2KwTtOnaXM9KY6EhsFofEMfCq4Yu42CjM+/FbHN6/C207dJMvIloOXnztX3KkobEgWFlbY8+Ozfjjt9lwcHKBn389GBoayRHE1UvnZOE0M7cQZ61O3fpUeX1/3CagEoSybZGcLzwiOLw/EJ269cb+PTvQuXtfrF25EMNGTUSjpi3v6dGWDSuFgNJJcNG8WaK/FlbWuHQ+GF2698HyP+bhg0//d48g3Aq5hl9mzRALhDUzsRVBjjAsLCzx5vRPlaO8wgLxa7hzJxHnzpxExO1QHD+yHxZWVmjQqLkcc5CQkPDSord80VxxZqQz79XLF3Au6CTy8nLQsGkr6ADo3X8YfGvXrXa6X9oRQ1wcwKh+a+sqbkEg60xLTYeevi7Mzc2lt1TytNQ08SlgAqTqemlLEIhTcrLioFjcubiy5kGgHnCzTU5Kgm/tOmK+nPHpe/hxwRqxIFy7ehFe3jWRn5cvRwULVm1HXEw0li2ci269B2DXto14ddoHSEyMw4o/fpWzTntHR5w4vB8du/VF9z6DsHLJr3BwcEa33gPFvBkdEYaI8NtwdHGBjY097O0d4OrhJZaGfbu3wbumL/oMHIGjB/fKVxKPKWimXfjL92IhqNegMY4e2otzZ06ATmJ0MEyIi5GoiAnPv4YzJw7f80EwNDDAgnnfIyoiHA0aN0edespXU3ZWFg7t3yWm38jwW3D3qIGO3XpXu0Wy+LxXCULpqyDnCyNx6BzbvktPuLl7iX8Lj9+OHd4n+j16/Etw8/QWH6WNa5aJb0CT5q1x8ugBNGvVXqwAp44dQtOWbXB4/25Mm/6Z+POwbc4/5ajs3/cie3Zv34DwW6EY9/zUe2Hmt0Kv4/ihfejVfxgyMtKwYO736NVviFgCOAd5ZJCUGI+5P3wjctQJaIh6DZogMvy2WNToMDn82eeEWLTv3AO16zSodrpfmpNibq7ia/aoyP6HLAiVt9wzUyn/MmseXF2dMXL8KJkFdFCZ9/08uHm5YdCIQVW2WmNpU/5JCAJTcDJJUnHFqawWBDoY8myfTn+TpryJE0cPYN3KP/DlzF/x6fuvY/DIsWjZtjOOHdqHWTM+wW/Lt8LKyhpfffIuMjMzJVzquSnTxIGQ/gWvv/uxbMDffv4BOnTpiW69BuKP+T9KHHYNn9py1MCvobjYGHE4vHXzOrxq1JR3pKYm40DgdhQyvKt9ZyyaN1t+09XVgbWNHQ7u24VR455Hp669RUZP75o4dfQQXnjtXzhxdL9EMgx7ZiJOHNkvCzXJSUZGOs6cOobE+Fj41KqDnn0Gi0pkZaRj4a+zcfP6JVnkxz3/mnxlVedLJQiPH31u4DTnL5z3g3zBd+jSS3xhDuzZgZ79h0BfT0+icOzsHDH+hdfEmrbk9zk4c+IoOnTpgYLCQjk645HBtg0r5ezfr3Y9Idp04GWba5YtEOvcK2++D927OTvWr/pDCO3wZyfJBx3DgLdvWo2Q61fx8rT3sWPreoTfCsGzE17C77/8IMcMJM2XLwTJvNXV10O9gMZo0YYB/TpCHD59/w24eXmLs+LIsc/DwsJKJQgPDT99zWg98PWt4haE9PR0zPpmNtw8XDHu+XH3CMKsr2fBw9sDI8aOUAmCgSHa+vQsdX/QHDG0aaOcT2muylvuuUjM999+8SFys7OQmZWBzt36YMjIcZj17WeyWLl5eIsfwInD+zB7wSo5G92wajEW/TYb0z/5Fs1btZPNe82y3+U4gAvd2TMn5IuGsd4/f/8VOnXvhcAdW2BjawcfX39ER0fC1tYe169ewITnX4eTixIiRh8EOi82aNQMX//3X/Dx80e7jt2wZukCtGzfBWG3bmLIyPEij6u7Bxb/9hMmv/q2eItTro5de+PI/l24fPEs7Bwc4eLmhXr1G2HjuuVitu3Vd4h8wdExcs73X0pc+NS3PxJnSS74D8ecl6oQVegGlSCUQhAKC8UP5tCenbCxs0doyHWJhCEZrVu/kegzo2kSk+LRsk0HnD97BtcvX0T3PgPFekVdbdC4megpHWe9vH2EkHt41YBXDT9cv3IRv/38HUaPfxGNmra6JwzDEp1c3NGr/1BZp5l7Yf7P/8OAYc/C1sYW3339Ebr3HiSOtscP75NjhI+/ng1zCwvEx8Zg3+6t8KsTgFZtOoGOx0GnjuK7r/4DNw9PITL6egaoVbtetcuHUJoPwrJlgLsb0KFjmQhC5bUgFCcIYyePvUcQZn8zWwjC8DHDEX47HNs2bEdsVAz8A/zRc0BPWFpa4srFK9ixeRcSYuPh6u6MgSMGwdzSAot/XQwbOxuEh4bDzdMN/Yf0hY1dsepFlWTh1NaCQCfFn34CBg6sOtUcaUXgxhsVcRumZuaoVacezMwsERsTJVYBhh3SM5pkoVbd+hKWeCcxASE3rqBuQGOYmpuLM+ONKxeRkpIMc3MLGJuYwNTUXCIS5v34f5j+8QzxDQi5eUW+sLiw0g/B1d0LAQ2awMTEVDburZtWS2Kjlm06SWIkLqKL5/8kXt1de/THvJ++Rb9BI1G7bn0kJsRh3uwZkheBiY9GjJkszln0S6CplkcTTZq1RpMWrbGMoV22dqjtX188uRkWxljwiPBbaNi4OW5cv4J3P/yqymUK1WYaqgShdLQ4V2gZYEQBL/q6bFy7VMmD4OIuv/ELn87dnAt0ruXXOe38dOil9axzj/7i3JiZkYr5c2ZKSCIdC0kgvGr6YtjoiWI1y8rIREZmOn796Tv0HjAMTZu3ka/8VUvnS3jl+BemYunvc7Fh9RLxN2A0DqONoiLCxHeHR3q0qlE+RkwYG5sgcPsGOZJw86yBoBNH0bRlWzi7uosPBedgdbpK80E4ckQpyOfvXyaCMBMB7u1gaqic4VemiwRh5pc/SPhN7wHKV3Jubh5WL1mDxs0boffA3pj/03yYmJmilr8fgk4Gw83TFd16d8Mfvy6Gnb2tZFHcs30PavjVQK+BvfCvl99DizbNJVfC1vVb4ejkiFETRlW6LzBtCQItCCdPKkpTUphjZY5iKG+dpkmWjoMkBnl5uZLpkJka6USVX5An8d3GRsZyZkqHx6SkBGxYuVicqRo2bSnx4Fzs+MVDEkAnxovnzkh4F82zSUnxWL1kPmrXqS9Wh269BsjZKx29GHOel5+HF159B3b2DkIK+DyzKYbcuCbx5fQk5xns4QOBaNyslRCPqu6U+7gxVgmC9jMgKjJMvtrp4KrJBlpSK5wLTELGpEo83qWpnySAus8cHIE7NyMvJxdde/WHtbWtJPsiseaRBvMfjBr3wr0jsOtXLsDM3FI2dhLc3Oxs2dwNyeMRAAAgAElEQVQZpmtoZIiYqCg5mmvaog2YSfHAnu1w9/AWP6G8vHzxRyAh2bV1A4JPHsXIcc+Lf4Imhbn2KFTOJ0rzQeAwMeP7oxLKVpkoBhKEbz6egfNnzsHdS2G5hQWFCLsVjmcnjUardi3x5Udfo2W7lnBm9sTrN8Wi8No7UxERHi5sOTsrBwcD9yM/vwDjXhqPbz76BlOmvST1Gc4FncPS+cvw/mfTYW3zCJfPCqpD2hIEduORiZKCImFkag5Xx2IJEipov/8usfjFxUyGkoGOO1AJFzdlA30DSbAkdRr0De95dWsyzCkpk5XCYproGmaeo4VCX591He7XWeDvJAe0RDB6gvczuRNv4n0UQ3LR8/eCAhTk50nSJk2dhr8Lm4r2HpUgaD8imloHZanpQd0lUWbOGc3FPAj6BobihEud1NS6YVZRWio4Jmy7eL0R/o0Eg/qriTYrLrky1wolrfO9WgziBFnIp+7VYKBlkBFEnHvFa59oj0LlfKI0gnDnjkIO7vr1/6mTVYog/PDVLNjYWWPY6GHS0ZzcHCz4cQH86vihScsm+OSd/6Jxi0awtLKURdjG1gbtu7THtg3bEBcTBwtrS0TejpCIh/FTJuD7z2firQ/fhrOrE0JvhoLtv/fpv4RgVKZLW4LACRsSAri4AKbFLHKVNYpBm7FSkmrlyEbKxYVf68W/OiSrYn6BWJGyc7JlYStelImZFnPzcqWwzcN1HjSLJ+9h3QW2cY8U8LcnKCzDRZdXdfYr0G58gbjENITcjsGo7n4wNFDS9T58FRYWYdXeG/Cr4QoLs2IlTbV52VO8lwSReiYb692CSNRdbs787XFEkCGE1D9NEaZHFRUri/gkpZwvDKvV6DKfY86E/IJ8GHL+FCtK9nCbJK+Ul3rMcMQnqY2iKWjG9zycBZftM2MjiQP/znmiSdFcnIiXpa+8R4Mx53dlIByl+SDs2KGEsjdpUjICVYoglOSkOPvrWXD39kDrdq0x8+vvMXbys/APqIMbV27g2tXr8PB0x5IFy/DCa5Nh7+CAzWs3i4/CuBfH46sPvsTElyegYZOG2Lf7APbt3CcWhMoWMqktQaD14NdfgT59AI9iuUWqA0GgSf/Hbz9Du049sD9wm5y70ryvWRyOHAyU0Cumg333teck78G4yVMlQyIv+hT8+tO34rzIVMqaS+M0uHLxb7hx7RJs7BzkXLZjl96yKJ45cURCMGnCLesRANMzr1/5hxCL4aOfK/NzZV0Mq+J9VcWCwLDVX2bPQKMmLTBg2BjZGBnN8uuPMySTZtuO3UscvszMdEk2RCdapu1mKO0zY5+HpfWT+VYd3LsT//vqQ7zy5r/RsVsfsQ5wU16/cpGE8744lTVJSk7OxfTMQaeOiwMw9ZgEY+Ddvmije/RVWLv8dzlCa9b6flnC3JxsHDm4B2tXLkJSQrw4A9MxuX7DZmLpo8Okrb2D+AmV9aJP0JIFc9C5R19pp6JfpWVSXLECcHMD2revpgRBE8XQd0hf/P7zQtxJTIJPLR9cv3ID9RsFoH6T+pjz3Rw0bNoIJqbGCNy2B07OTpjw8nh8NO0/qOHjjboN6iLoRBA69+qCnn17QE+/5K+OiqosT0IQWO65e3dFeTRXZQ1z1GZcmGvgP+9NxcQXX5f6Bq5u7njupWmy+TIagOFftOEPGzUBI/t3EG9tOicyCQu/LmZ/+ym2bVyF0RNfwpiJr9x7NaMouJC6u3tJ8paY6AjJ2sisdMya+M6rE/D+f2eIhzi/7spyMSxs4bzv5Utm8pS3qlR68LL0/0nuqSoEgT4on3/0lpzj/9/sP8TxLz09DV9/8o7UAGHBrpIu1kKg3o1//jUhFTzfpwPtk6bg3r5pDT799xviYPjm9P/CzMwCubnZmPbiGMk98u5HX6FZqz/XEiZhPn38sEQFffjl95LunESZZFvbWjix0VFY8PN3aN2+q+T54MX2z589hRmfTpdsp25uXjgXfFLIOcOUHRxdMOOz9zFy7CRxQi7rFRcThVnffooBQ59B8xL6VdZ2/q77SjtiuHFDyXdDa3FJV5WxILDWwsmjJ2FhaYEGjRtIX3n2dPLISVhaW6JOQB3Ex8Xj5NFTSIpPgquHC5q3aQ4TExMEnQzCtcvXYWpmCg8vd0muVNOvJmZ88n/o1KMTcrKy4enjheatmsPUtPLlsteWIHARjYwA7B2UXAgPEIRKXs2xtIkZHxeNj997Tb58wm+HYtumVfjmhwUS+cAoCIYz9hk4XDb1l8YNhoGhIZ576U0JPUxPS8FnH06TJEtMMfvMuBfvvY555Of+8LWEG7K+Aw9eWZLW0tJKzKvMxzBw2LMYMXaypJZlzgOGJfLrRuMcFh0VLomVkhLjULd+Y9QNaARaJHgEMm7yq/LFxjz2rONQ3ZyxShtXzd+rEkH439cfIykhDj61/PHW9M95ZC9FyEgQ6AjIZFqXLgRLHZo69RpIjY+lC3+W9NsDh46WXAKM4KEzLCN2qMMkwqy/cOdOElq16YjTJ49IRkRG7bTv1APObh4P6BYJwsolv4lz+Cdf/wRnVzfcDr2JD95+SSKBSLRJiK9cDMbpE4dhYGiM5i3bSr2T+XP+hz07N+Gl16fjVsh1sYCwNDnDkFu17gj/eg3lmIJWuSsXz0l651ZtO0q4JH1qgk4fx4XgUxItcf3qRXTvNfAeQaAVg3N34+ql+GbWAomsSEpKlLomjIZgNNL8uTMFJ9ZIiYmOkgJoPLZh3gZaBnl0c+XyeSEyPKJgAigWp/pp5hcYMOQZ1PCthUP7dslc5DNltfyVVVfL477SohjuFtes3tUcywo0Hcjo4MJ/x8XE46sPv8Rr019DjZo1ytpEhbxPW4LATjDDFn3mipcBrQ5HDBoLwpTX35OIgC//8w5enPqORBww7SytA9OYDtbAEP96baLkHfCpXQfPjn9JatUz/TKtBU1btBWvbM1F0+SP330u4VcNG7eQuvXc/FmNjnkS3n/zBSEafI4hXUZGRrC1d5QFqGvPflLGdvXS+VLKliltmQOhR+9BspiTCHNhZeXH4WMmSSrairhYVYTJUZUIws8/fCMpj1nw69mJL6N5y3aY8fl0tO/UU+L/ly2cJ9782dmZCD51HK+9+5GY9Jm1cOSYyeKYvXv7JomMoc69+d5/hWD++O2n8PapDScnF+wN3Cb1DlhgicW/Xpn2oYQaaq7tm9fg2MG9SE25IzkLeDTHIk0kHiQdzGTIBGBzZn4hes+Nm1ERg4aPk+gfmU/vfyaJzI4d2iuycP4kJyfhjX/9V3J5bNu0WnSapc+zs7Mw8YXXhcDQmle7TgCS7yRJlMUrb35wjyDQmse06LQgcCOv36CphC/b2tkLcWEq5tnffY5+g0fBt5a/HBsQS1Z1ZQbG8c9PlfTkc7//CrXq1BfrILMz8oiC4cQdu/aS2hBpaal4dsIUyXFSEedcaQTh2jXFQZEFm6q0BaG8F5+kxCT8PnchRo0fCVe3sp9Rlbcc5dGetgSBrPLgQaBBA8DGpnpZEDQE4eU3pksOgd/nzpQcCEwtywWJptgJL7yGlORkTH9jMjp07iGpkF96/T3ZzGnavHwxGL5+dR8gCPydCxwLL50+dgjxcTGSJXHs5Kmy4L42eRT++/Us2Ng7yuLl6uoJXT1drFoyHyampmjZpiM2rF6K5156Qyo2chHT0dPF8UP7cT74hKSJpgwkGMWdxcpDf6pSG1WJIMydNUPqHnBDPXogUDY1ZjUkQeCmHnY3DwbDAPnVyyyEdF7cuXUdJr/yNsJu38TOzevlK1+phtgNfv518fG/puK9/3yNhfNmw9beHh269pLwRB6RTX3nY/m61hwDkCCwMBnDaXkEN2nKNHwy/TUhtfsDt4ufzeWL53Dx7Gk8M/ElCVfcumGVpANn1k/WJfns/+ZI/gTWRaH5Pz4+Fl9/8q4kONq7Y7Pc22vAMNmgZ3/7Gbr06CehwewXwyfpjzFn5pdS5lxzxKBYkPNkbu7cvE5Ch+nz0LRlezw74UUYGhrj8w+nYcykl2FpZSN/rxvQUKpNEgsWWmOExc3rVzDljfdhaGiA44f3w8nVHYt/+1EIEfMxvPHep3Dz8KqQ5IAYlOakuGqVQg7atSsTQai8iZKq0iJW3n3RliDQSXHWLGDwYMDL6yGCUAXDHHmWzwp0/LqgMxN9EF5+czrq1G0guec3r1uOCS++IbnpWZKZ5Zn51UKC8Pwrb4sTFDPAsagMzft7d26Eh5fPAwSBPgdZmZmSUY5X6I1rUnGOMd2TX3kL014ag0++ni3Z5GgGpYWAZtSL54PkOENKOO/Ygmnv/ReOzsqBIeX+aebn2LZhtWRUfPWtD9C6XReVIDxmAlU1gjDy2cnw8vGVDdW7hq/U52DGQVZFZOEv5hjgkRUrlU59+0MYG5th17Z1mPzyW7h9lyBMeWM69u7egsS4WNnsTh07LP4EH7z1omQMdXRyhY6uEm44dNQE0cX7BGG1WCWYGpz+BENHTxSrABMhrVg0TwqU7dm1GeeDT4uTIC/62JBY29o6YOXS+UIQlv7+s+gtfSO4+X74zhQMHD4Gh/bskCM9pilntMR3X3wINw8PORLw9vbB8DGTkRAfg0W/zkbT5m2LWRAKxYphYmoOZxc3saKcPn4ESxfORfdeA9C11wB8/tE0jJ30MuzsnLBp3XJJSpaXky2EZtCIsZKu2Zjl0ie8KAmYeNEH4aN/vYyk+HjYOTrhvY++Ef+PinqVRhC2bwecGMXQtEwEofImSqqoA1QR5NKWINCCsHMn0KwZYG//ZwtCVUqUxEWPZkymMebXSEZ6Kr78z7uY9v6nkpmNXyc///C1HAcwMcvUt/8j55nJdxIx/Y3npfrc4f07ERYaAn3xR3gDi3+b/SeCsGfXFlnsnp/6DhwdXVBQWCDvPH38EF595yO89dIYfPTlD0JQ1ixfKEmV6ADJjHK8t3Xbzti6cRVefPVdeHj74MiB3ZKQidUas3Oy4OLmiYtng/DGex9LtruKaO6sCHOhqhGEEc9ORsMmzXFo304s+Hmm1AiZ9PJbUrcgKjIcQ0aOhYmZBb7/+kMMHjFevnp3bFkrX/rh4aFiQSBxCAu9iY1rl8lXev+hz4i/wYdvvyTn9f2HPCM6SH8DWg+olxpHWtZLCD59AsOfnYjlLPWcmoLGzVtLAiP6GPQeMFT+Hh8XK0ccDPFlBlCWes7PzZXiZ//9vzlYvnDuPSdFDUFg31joqVGzlkJ6SHZmfvURWrXvjJioSLHWcb7x6IPlo5loTGNBoPWAlgBmeqQ/kZGhsWRcZJpnEgZGGH350VsYNf4FXL10Xo4oWG+F0Ui0RlB+hoxGR0Xipan/goGRoRSYIlliIijWYCHpMTM3xwtT35Uwz4p4leakmJKiHCXTUbGkq8o4KVbEwakoMmlLECh3ZiZgZKRk2dJcVTWK4eb1y/jhm0/kC4fnpkU6ED8Dmh555sk88XTs4tcNv2bovJRyJwnvvTEZb73/meSc//I/b6NL9/544bV3MGvGx38iCJFhJBpfSQKZug0bIzszE+eCT8tZZpee/fHWlDFo3aErnF1cEchz4d4DJbkLS+Xyq27CC69jzYqF4izmV6su9u/ZLmZQOncx5e2QURPkvJVVIOn7wNh29fozAlWNIIx8dhIaNWuF7KxM8XHhERY3fJID1k/oPXAYboXcwMZVSzDhpTfg7uElxY5oprexs0Pg9s1yPzfbH7/7TL6eZ85dKpso0xfz2IzVQFmAjD4u73zwhdQt0RBQkgZaJya8+Dr27NgkZ/mffvuz1EygQ+/AYaOlAums//tUIh3oPHvq+GGMeHaShER+98UHQsx5rEZHYEYxaAjC86++I0cJ+wK3iYUiMuK2nPvT+pGakoKlv89Bm/ZdkJiYIJEZtITQ0ZIX+xN86ih++t8XqF2vgfjo8CiGmU7HTpwCX/8AfPLeq+ILxNwmZ8+cxOjxL4iD5aZ1y9Cz71A5rps762uZo/yQoIws7LZuxR9C4E1MzCQTJIuntevUvUI6Bpfmg5CVpazxLPmsEoRqumJqSxC4iCYkKGmWiytOVXVSZD4B+gWwNLKRkYlUravlH3CvPC2dqUgQuPEynasm5HHl4l+lUJOhkZGYSLlhN2zcEts3rxLnxVbtutzTOCanCbsVggOB2xB2O1QWTZZ5ZpEm+jWwQh7jsmn6ZPXHi+dOy9eMg5MLmBSHzlTRkeHYvWOTkJOGTVugZesOYt6l+ZcLKEPY6CjJWHI6WKpX1SUI9GHZu2uz1PPwqqGYuEkW+ZXbtlN3qStCC1VCQjxcXBWLkrePnxQI49EDjx1ate0k+tKjzyCpKcKjABY+GjxirNT4YO0RvuPC2TMwMTZBpx59UadeoweScrEc+e1bIejSo68UWGLFVB4v8AgicMdGNG3RDm7unjh2eL9E5tAHokXr9mjZtpOc8XOTt7KxE8sGUyPTyZG+Ajyu6Nqzv/zGQkw8aqNzIf0h/Os0kOiGIwcCxQJnYWUNC0trNGnWSiIfNBejNy6dDxLrCq0PzDEic7RJC8neSOdORiq1atcRp08clSMWB2cXmJqZyb1duvfDyWMHcOzwAUkZTRJQ07c29u7cjMbN28DF1U3WBR1dPQkrrYikvDSCcPgQYGsH1KlTJoKg+iBUxUVVW4LAI4aVK4FOHYG7x90CS1UlCFVxzNU+lYxAVbEgqOOrIlAWBEpLlLR8uZLrpsOfU1VI8+oRQ1lQruT3aEsQ6KQ4Zw4wYEDVqeZYyYdQFb+cEFAJQjkBqTZTKRAozQfh9GnA2hrw8SmTBUF1UqwUo66lkNoSBC6iFy4ANWo8WMRDtSBoCbx6e4VDQCUIFW5IVIGeIgKlHTHcre/2gK9ZcXFUC8JTHJyK0rS2BIFyq9UcK8roqXKUJwIqQShPNNW2KjoCpVkQoqOVbLnF892oBKGij2o5y6ctQXisBaEK5kEoZ7jV5iowAipBqMCDo4pW7giUlgdh0yalDkPz5uoRQ7mDX1ka1JYg0Howdy7Qv3/1q+ZYWcZUlfPJEFAJwpPhpj5VOREojSCsX68QhFatVIJQOUe4HKTWliAwimHZMqBrFzWKoRzgV5uoQAioBKECDYYqylNHoDQfhPBwwMTkwYR46hHDUx+WivUCbQkCF9GkJMDConrkQahYo6VK8zQRUAnC00RXbbuiIVAaQeB84KWjo1oQKtrY/W3yaEsQKNgjMykGR6IqpVr+2wZBfVGFQEAlCBViGFQh/iYESnNSPH8esLR8sObOX7cgFBWiKDcZOjl3gIIc3CUhf1OX1ddoEBDSp2eEIiNb6BhaAjrF8iIXg0lbgvC4WgyBp8ORnFEIa0tTdSBUBCodAlyr0jOypXDW6B61YWjwiDlTWIQVgddhaGwCEyODStdPVWAVASKQnJYFFOSKrj98kSyvWAm4s5pj+/KyIBTlQyctBIZZETDT04Gerq46Ev8YAkXILyxEZn4hcozdUWRREzp6f06qrS1BoJPijz8CgwY9mCgpv6AQNyNTEBGbjiKVFv5jo66++K8hwLTD9lYmCPCxg55uybZV5t6/GJqImMTMv/Yy9WkVgX8YARd7M9SrYVeiFHv3Kv4H9euXiSCUkmq5qBBIuQqLnHDYO9aBobEldHXJrh9xgPEPA1P1X1+EwoI85GQlIS4qCBmWdaFj6fcnS4K2BIEWhAMHgIYNHx0fW/WxVXuoIqAioCJQtREo12JNRTl3YHznBFyc6sDExP7Rng1VG9OK17uiQmRnxCIy+iJyHDsqxw3FLm0JAh/Ny1OqfKkGooo33KpEKgIqAioC5YFAerqyzjOSoaTroUyKj7MgFAHpt2CXHQp7t2Z3LQflIaLaRnkgwGqBsZEnkGzoCVgq1d00l7YEgWdTERGAg4OSZUu9VARUBFQEVASqFgJc5/fsUdb5Bg3KRBAeU4uBjokp1+CMRNi6NP5bjhVY0zsjMwumpiZ/8nXIzctDYUEhjIwMpZQp7zMyNIS+fslOR/n5BcjNzYOp6Z93PP7OUxJ9PT2kpWfC0sIMObl5cj5pYKA4KOXn5yMnJ0/qghe/DAz1YXj3Hj7D97MdXgWFhcjKyoGZqfG9+ulPTcWKCpEUfxHxeYYotG30lwgCfRAWLwa6dwdcXZ+axGrDKgIqAioCKgL/EALcyli1163sToqPsSAUFaAo5SqcdVJg68ya20/H7yA1LQMxsQkoKChEcmoa1mzYgwF9OsDBzkZgdLC3hq2NFQL3n0TorSh0aNtYNv3FK7aiZfMAeLg6wcTECC5O9kIIYuKTkJeXj9th0Th55hKGDuwiG7ittSVsba2QX1CA46cuyD316tTEx1/MxYxP38COPUfh7emKhgF+srlfuHwT+w6egoGhwb2eZ2fnonYtL3Ro0wR6errYf/iMtN2kob/8P/uybM0OvP7iMzAw0H+6alBUiDsJlxGXq4tC2yZ/mSD89hvQpw/g7v50xVZbVxFQEVARUBH4ZxC4eBGwtAA8PP+yBeHpEwR+ne/cewzrNu6FvZ21bMzJKWliQWA4UkRkPNq0rI8+PdthweJNuHj5JoyMDeHu6oSIyBgUFgHmpsZo26oRBvTpiItXbmLZ6p2wt7VCYmIyrt0MQ5uWDXEnORV+Pl54ceJgXLt5G5u3HURkdLxs7CvX7sLoEb1x6FgwmjWugw5tGsPb0w3bdh/GmbNX0KZlA+jePZi/cjUUBQVFGD2iF6wtzXHpaghWrNmFTu2bIiU1HXX9a+Ln+WvwwbuTUZCfDzsbK+jrPyWiUI4Egczyxg3FeqA5m9L4ItCBkRcTa/Af3ls82cbDv5XlOc09mrY0bfM9j3tfWdouSc4neU5bmR7uS3ng9KR9eRS+/6RMD/dFW3yfhh7+SSbq+d0grbLoYUUa80fhW5nH/O/AV1s9/Dtk4jr4tNYsys+2/3qipL/BglBYVIQdu4/Il3e/3u2hp0tTfdHdTagQO/ccQ0JiCvxreeN2eDRcnO0RfO4aPN2d4OHmJOb9xKRUdOvUQjbxPQdP4sKlmxgzsg9u3Y7Ezj3H8crzI7D30GlcvhyCd94YhyUrtiA6JhH16vpAV0dHSAYjn3gkcf7iDfj5emJI/844evI8tu8+AnMz03tgpqVlwr92DfTv1Q4W5mZi9cjKzsa1G+E4eDQIHds2wYefzYGHu7PI+Pz4wXCwVywh5X6VI0GgbCwDeuwYcGA/4O4B9O2rZFVkcY+QEKBtW6B9e+W/+RtPdvrdrd3ACIjDh4E6dYBevYDcXGDzZoBpPXlswcIgLCe9YwdgZgYMHgzYWAO7A4GgIKBxY+W+hHhg8xYgNRXo2VMJxTlxAmBojpMTMGggYGQMbNkCXLum5BPv3Bm4dUt5H4NuevcBfH2VqIwjR4CaNRXLCK/164CISKBTJ+XZy5eVtszNgX79lHfwjO7kSSWigzJRFvY3Ph7o3Qto2EiRedcuwNYOGDJYIVU7dwJk5+xrly5AZCSwZSuQnaW8399fwYhyeXoBAwcoMm3aCNy6DbRrp+B77SqwdRvAUyw+5+mp9P/4cQVf4pKbA6xbD8THAV27AU2bAufOAdu2AXZ2Sk0N1nynjJRVI1NCgtKXlBSlv3XrKu2yfZodBw5SFo/t24Eb14HWbRSZboUqfeHiwrZZFnzfPuDoUQVr/paTA2zcCLBaXKeOQMtWD4453+fsrMjEmvSNGgHduin4rl0LpKUBPXooZ6P8O/EkYeVzJqbAju1Ke23aAB07KviyL9Q1vp9yEN+DBwFvb2DAAEWnt24Fbt8GOrRX+nP1qqKH5O0DByrvCAwETp4A6tUD+vRVZGJfEhOBrl0VfM+cAXbvBmxtgX59ARtbBW8mnmnWTLkvLg5Yt06RifOA48U5RZ2iTJxTerrK+FJ/O3RQ5lUo8d2i2Gg5BrTi7d+v4OtfW5GJicx4T3QM0KUz0KKFMua7dgNmpkqIMseeuGnmFGWIjVVwonOaBl/NmDu7KH3hnOQ9xIb4Ui7O3Q0blLWRc4rz6NAhBd9afspvxJcycf6x/5SJbRAXIyNFJkdHpf+nTinzmTIlJwNbNgMJicoca9JE+TvvI758jnOS7WjmFHWFMnGe06Ga84D4ypjfnVOCr54yp0JvKbpLfPnxw/HkPKU+ccw1+AYEKLjQu58YxEQD3Xvcn1PUFStLYNBgwMpK0d+zZ5W/UybiSwzS04BevRUd4pizfdY8YF8oE+/hnGrTVtHfmzeV37jl9ekF1PS5P6f8/JS5z35yDKKilHWuZUvg0iXlOcrCvjBkcU8gcPrM/TnF+b1xA5CYBPTpDdS/O6eovxwPysTnSrrKXu75byAIFJDkIC0tA2s378XN0Ajk5uQhJi4Rbi6OeOX5YbLB0tcgKTkFP89fK5uwq6sDTIyMEBUTjz0HTmHcqL7wdHfGqaCL+H3pFvEpSLqTgtBbkWjWpJ603yDADy9OHCKWgdi4RITcipI2DI0MkJ2dg/SMLNStXQOuzg6wsDDFlp2HERERK34FxS9rawu0bBqAgHq+2LXnGPr2bIfwiBgsXLZF/CZuR8Rg4uh+iE+4g9HDe8PVxaHcuYE0WM4EgYv/nTtKymU6KlKRuFlw0cvIUCYuS4RyoeJvZKDcUHkvn+GzZuY8ElKsALwnO1tRRG5W3AC4yXKycKPgBsgNi4sxM3vRcYabDJ/jwsP/Z+pnLiZcqLng8Dm+VyMT5eGiqJGJsPA5LniUif+Ymip94RUTo7xD0xcummyLMrEvfAdl4jspE2WnLLyHiz7b5u+cgLyPBIoyESf+P/vIicvn2Hc+V1igvJ/YaPDlQsXf2BcuMFyc2BfKRaz5HNvkPcSX/adMXDQpA/FlXygT38V38t18jriyL9wANfgSf+LE++Nigbx8pW0NvlyojUvAl/LwHw2+1BG2TUwpk4y5mdIW/6bBl+8qPuaUhfdo8N/DjMQAACAASURBVCV+NHPaOyj4clHOL1B0x8LywTHncxwf6g77qBlz4kvsiIVGJg2+xcecmBDf4mPOtog9x44yFceX76NMbJsLtAZfzZgTX97Df2tk0ow5dYsYUCbew/GiTGzf1ARwuDvmfK74nKJ8fB9l4nPUj4fHnH5C7AvfURxfjjF1hX2hPrLtkuYUn2dfqL8amdh3Yld8nmv08AGZHBSSdodz6u6YUw8lS+VdfDUyafRXM6coE/tC/KhvfI648rk86m+xOcX7iCv7wud5D+eoRn/vzanC++uDZp5znrAvvPgcdbb4mkV82eaj5pQGX75DM881a5ZmTj085uwzx4OYU2eKj7lmHaVMpa1ZfK6sc0qzZmnmVHF8NWsW8dXor2aeF1+zNGtdpSAIstcVFYnTIf0CaDW4cu2WmO3btWoEPT09ZOfkYu2GQGzdfQTDBnaVowZe8QnJ8t/0WaDVICExGecuXkdhYRHCI2MRfO4q+vVqL0cXLk52aN60HnSgg8vXQrF152H4+XiI5YB/529jR/YVywSdJdds2ouw8GiYmhgj5FakWAV45eTk4plhPYRInDhzUY4ySFJICAb374L9R85gysQhcmQxqG8nuDhXDoLwdFiM2qqKgIqAioCKQGVBoEJZEEgMLl0JEXM+IwKKCouwZsNuNGtaD17uLtDV1ZEvf0YFzF+8Cbm5ufh4+otCChoG1EJ84h2s3rAHr095BsZGhli5dqc4F9apXQORUXFyZNCrW2s5hoiIisV70ybA0d4WcQl3cCb4MsKj4rBs1XaMHt4LXh7OaNa4rjhE8uhg1i8roK+nixrebli+egf69movRxLHTp7Hy5OHw7emBwoKCkT+C1dCERkVi97d2+GX39eI5SDo3GUM6dcFjg62T0c3ytmC8HSEVFtVEVARUBFQEagsCFQogiBWgMRkREXHyqbML/9vZy3GuGf6wslR2Vgd7G1hYmyIy1dvYefeo5j26lj8vngjGtWvBScnO6zZuBdvvPwMDA30xWFQV08Hfbq3xZVroRL5wM08NCxaNvm3po4RsjFzzjJERyegoLAAh46eRbvWjcSfwc3FQe5hGOPaTXtxOuiKmIcOHQ1Gk0Z1RA5zC1NMfHYAXJ3tkXgnBZ9+/Su6dmqBmyHh6NW9LX6Ys0zkqu3rif59OsDsURkp/qrGqAThryKoPq8ioCKgIqAiUAyBsidK+pt8EIqPDr/I35z+Ld55bdw9k77mCOJ2eBR+X7oJ7097DpeuhYqvgrGxIdZvOYA3Xxktm/qy1TuwZfsB2NlZIykpVY4ZGtb3k9wEdDb8ePoL0NPXxS8L1krUAzfvDz7/Cf96YwIiImNx+MQ5TH9zglgjVqzbJaGSJC579p+UkEoLc1OYmBhj1NAeEimxYet+JCQko27dmjh56hLGjOotpMHd2QHbdh9Fq+YB8HR3eToKqBKEp4Or2qqKgIqAikA1RaDCWRA04xAdk4DtgUdwOvgKPnhnEpwd7xeb4FFEWEQ0lqzcjrenjpWcA0dOnMPRE+fFX0BDEBKSUlBUWChOipev3rUgPD9ckh7RGdLJ0U58Ds6cvYx6/j5gFMVX3y2QIwHe7+Rgi/ZtGuPK9Vu4cOmGhDTy3QeOnJEQSDNTJaKBFoIG9XzFj6F960biw7Bk1XZ5L8kFSUVUTAKeGzsANb3cno6q3SMIeii0ZSKr+5e2mRSfjoBqqyoCKgIqAioClQmBCksQmKuADoaWFuao518ThoYPllzNzMqWr3ye/XNDZo6DqOh4uLs5wa+mx5/GgIQgLj4JPjXc/5TVkJs+26BTZEhYJGp6ut7LV0ACEBbBOgdx9+L9JZuiDt0blYuWBLabnp4JRjXw7zdDI0GSo7QNODvZw7emu0RgPJWrnC0IObkFyCt4MGLjqcitNqoioCKgIqAi8M8gUMSIJWb/Lbkqc4UlCP8MWpX4reVIEGhJ2XnsNm5Gp91VnIezZjLdNH/TpJ3W/HfxfxNLzX0P4/rw78Xb0TyneeZJM3aWJKOmzUfJXdo7i8v9sMyP0p2S+qrp0+Pae5T8xX8vqZ1H4Vc8RXjx53j/48atJBk1zzxurB5+rqR3POrdD7f/uH6Wph8l6dajnikJo+J9fBi3kuTXdg0pbVyK62xJcpc2Fx8n4+Pe/fBceBQ2xef54+bVw+NfHKd/Yj0oSYeL4/u4/pY0xtqsB6Xp96PG5eE192HstV8PMrLz0LeVF2p7lZyfp0L7IGg71ar1/eVJEAqLsP7gTclQaW3xiDJf1RpstfMqAioCKgKVH4HgK1Go42GK+j4lZ0p6ahYEmtbpDyCXjo6EBNKMryl2xP/WXJr7NCmMtYWdbWr+4bNsp3j72rbH+ykT29CmHUZdKKk6H+wbv8g1nFHa1OXxRGlfPorUZcbmKRAEDzdnlSA8ifKoz6gIqAioCFQCBIKuRKKO+99MEFhpcd/B09i4bT/S07Mke+DwQV1R29cLgQdOwsfbXeoUiIGkqAiHj59FbFwS+vVqp/UZPR0A6auwecdBhIXHSCKj7l1aolvHFjBmOrgnvOggaWlpjpZN6klyptIuJnbavvuoZFV0d1NS9WVlZWPOb2uw9+Ap8VNgHQYWhBo7qo8kVirtYtbGnYHHEBufiNHDev3JD+OB51WCUBqc6t9VBFQEVARUBIoh8I8QhFthUZj50zL07t4Gdf1rSN6AtPQstG3ZADPnLEWHtk3RpJE/khJTxDHQyMhAaiDU8HJBVHQC8vLzkZ+Xj1p+nnC0t0N4ZAxuhETA1MRIUh03aeAPMzPF9B0WEYP//bQUrVs0kPaZEIkVIF+aNBRWVhYSjZCVnSN5FFjDISQkAqnpmbJ5M9dBo4BaUtHx0pVQyd5IJ0MmZfryuwUS5TB2ZG/cSUlDTGyifM3X8vGSto4cPysEgs6P7q6OkrPhy//9jr4922JA7w5CdJiu+ZuZCyU50tABXZCWnoHf/tgoDo0kCecuXJfnHeysFcKkA8kaGRd/R/pX288L23ceQXhU7L3kT4/UbpUgqBNfRUBFQEVARUALBEgQ/N1N0eDvPGJgtMCvi9aLuZ3hg87OdrCytJBCRh9/ORcd2jSVLInMQtixfRMU5LPIUY5YGNZt3iubPTdkWh56dm0pWRNNjI2kUMiOPcfxyw//lk2WPnD8Omc65unTJsLK0lwsEqG3I2FmaiLFma5evwVbW0shHs+O6I3tuw4jOjZRyjgfP31RNmq+e9PWA/DydEFaeqZs8D/OWwk7W2sM7NMBh4+fk3LNkZFxcHa2l5LRYyZ/gFFDewphiY6JR9+e7THj+z9E3kljB0oFygwShO8XSV2IkUN7IDUtXXIu2NlaSWhk0NmrQh6IV58ebeWZtZv2wM7aUqpB1rgbEhkbn6QSBC2UXr216iGgHFkWSMekiNujys891HXmUuGxXknHl4867uSHQPGqq5r7iooKJZJJ05bm9yc9Gq16o6T2qLIh8I9YEPLy8hAWGYOQ0CjQmsD0wzW83TG0fyfMW7ge3Tq1xPWQcKlt8O+3n8OaTXtw63a0ZBvkpv3Wq89K8SRWT6xXxweHjgbhsw9flroHk179FDM+e10IAknGtt1HcOL0Rbz/1sR7xxMMgUy6k4offl6OkUO7o27tmlixdqeEIfKrnhv0hNH98MPcFbC3t5EveOZUaNbYH96erujYrinm/rYGfn6eaN+6Mc6cvYq0tDScPHNZCj29NHkY3v73TPw8832p6fDaOzMw5fnhWL95H54d3ktSO/MiQfj4q3k4cfqCWEfod+Dm5iS1G/796U9Calhiev2WfTgTdBneXm4wMjKUNk6fvYyVa3bCzdUR+QWFKkGobDNPlbdcECgsKEBGRhqSk+/g4rkzMDezQN36jcXads8vXkcXpmZmMGJpz2JXXl4uzgefgo6OLho2aSmp2otfMVERyMrKhLuHNwzuhh+H3bqJc8En0avfsHskIS01GWlpqYiLiUZ6WircPb1gYWmN+LhomdO16za41yxJTFpqqpAZEggzcwupYpTJqkV3X89nn1rZ93JBXW2kuiDwjxCEy9duYfe+42JWt7GyQPCFa/hj+Va8Mnk4Vq0PRLdOzRESFoWUlHT5bfWG3QgVguCFC1dC8OrzwxFyKwJbdhyWcspHj5/D5x9OQV5BASZO+Rhf//c1JZ8BdHDuwjUx20+ZPAy1fDyFBPz46yrU8a+BA4fOSJpmHi2sXLcbSUkpyM3Lh5eHC4YM6II5v60W3wAWgqIV4PqNMOwIPIoxI/og+MJ1KfVsb2OJRcu3oHePtmB5Z9Z2GPdMH0z/+CcsmvsJrC3N8fJbX+OFCYOxcduBPxEEHjGwLPXwwd3El0HJ51CEURP+jf9Mf14yO27YcgCHj52Fr487LMzMhECQlCxZtRXuLk6SwElTX0I9YqguU1ftJzfYO0kJWPL7HASdOg5LK0s89+I0HDmwB0cOBsLSyhqFBYXIzc3GyDGT0a33QCTfSURUZLhUN6Ul4NTxQwi9cR2DRoyBoRGtkDpwdHKFnYMTLl8IxuqlC9Cz/1C0aN1BAD8XdBxbN6zB2x98DgMDJWdJeFgIDgRuF+tBUmI8rK1t0LZDVxw9sg+enj5o36XnPcfkxIRYfP7hNKkIm5aShDGTpyI/Lw8r//gVltY2SIiPxWczfkZNv9paOUCr2qAi8DQQ+EcIQkxsAn77Y4Ocr/OcPiUlTRIFMSXx70s2iXmQRwb6Bvp4ZdIwIQght6Lh7/cwQTgilRnXbdoDS0szMS2u3hCIhXM/EfM7CTnP9Rcv3ypplJlSmV/4ufn5mDxuEPYfOi3pkXlUwAqMo4b1wIFDQfD0dMaQ/p3FgdDc1ATOTrY4cCRYjjRCwyIxoFd7SbwUGhopJOHYyYto3LAWbt2OEsvE8+MH46Mv5uKPX/6rEIRpX2HqS6OwbtNeyZz4ygsjhHjQWjHj+0VCZni8wYyPvGj2XL52Fy5fCRHywERMJE3WVhZiheBvCYkp4uvA9lhMSiUIT2N6qG1WdAT4JZ6RkY6rF8/h8ME9eP6Vt7B2xR9wdHZB+049kJ2ViQ2rl8DZxQ3deg3Etk2rsXfXFvjWrgMd6KKgIF+Igr6BgXxQ0IrQonVHNGzaUr7szwYdx52kJHTs2gu6uno4e+YYtqxfjXc/+lIIQkF+Ps6eOYHVyxYIWUlPT0MNP3906dYHG9cshbWNHdw8vGBiaoqe/YaAFo/F83/CqHEv4PD+3bCyshH/pIT4aPQdNBIzv/oIYya9Ch8hCCUnp6noY6LKV3UQ+EcIApk/swiev3RDzvStLM3QoJ6fbOA3QsLlbzTzkyQwEyI3d5rjLSxMkZKaIWWXGf3A++g/QE9+OhQyRfLmHYfw07fvwcH+fmIHZl1kRUemVmabAXV8ZJO9k5yGi5dDkJGZKQSFv98MjYCpqbFkXLwREgYDfX1xZrx0OQTpmZmwNDdDowa1kZiUgus3w+Dm4oj4hCRkZuWIDNz4eQzBY5NWzeuLb8KpoMvwr+WFiMg4hEfEiBOmiYmRpHFmkSjWfaB/Q/HwRx6DBJ+7hpTUNNjbWQs+JE5sNzYuUfwRGPGQnpYJ3lvL1+sewShRPcsx1TIXNOZBUMMcq85CUBl7wnWEX9zrVizC+bOnEBMVic49+iI3JwdREWFwdnVHQX4e4mKi0LPfUHTs1gc7t6xFZkY6LK1tcelCkPgpcd5lZWYIUeg3aCQaNmmBnNwcuY8ByIaGhpKSncT9wtnT2Ll1A157+yM5duCRX0T4bewP3IFVS+cjNzsbXXsPQNMWbbBk/hx07TUAly8Gw7dWHYwYMxn5ebmY9X+firUiNjoKbTp0hbmFFXZsXgNbW3vExkbh3Q+/hHfNWqoFoTIqZRWT+R9xUixPDNMzMqXoElMXc8Ho0LYRundq9fiQv/IUoLK0pUYxVJaRUuXUAoHc3ByE3QrB8oVzkZWdhckvvwVTUzNkZqaLhaAIReI0aGvnAGMTU+zYsgbZmZlo37knrlw6h4yMDPFP2L11A0zNzTBpyluws3dE8KmjWLVsAZKTEvHcS2/iwN4diIoMQ3IijyjC4B/QCMbGxug/5Bm4uLhjw9qlSE1OhpGxMRydnBEXG4PrVy9i7HOvCKno1X8oavjURnRkGG5cu4zs7CxEhIXifNAp9B4wHJfOB+HalQtCKBo3awWvGr4wNHzyMGwtIFRvVRF4JALlaEEoRFHqNTgXJcHWpdHd9Kx/D/K0HDBagF4+Bvp6JXok/z2SVOC3FBUiKf4S4vMMUGjL8bl/aVusSbUgVOBxroaipdxJwrSXx0BXTx/Tpn+KO4kJyMzMkK91PT196OjqwtO7Bjy9fbF902pxXu4zaAROHD2AwO2bZNP28PDGpFffhoOji6wf/NhIS03BzK8+xJBR41HDt7ZYEM4Hn8buresx9R1aEIxgYGCA4FPHxEkxIy0Vzm4e8K9bH7//8r1YBujzYGpqjmHPTBAfgy3rluNs0EncDr0hzpU1fWrD0MgYoTevieOib6268K7hi6HPTBBSo14qAv8kAloShO8R4N4WpobmJchcBKTdgl1OCOzdmkFX9ykVHfon0arE76aJNDriKFKMvQELnwcInEoQKvHAVnPReSxwPvgkfvzucyQlJaBdx+7w9PaRo8GVS+ajZbuO8PL2RU3f2uL4t37VEiEEJAAZaWmIjY1E0Mnj8KtdF941/cTvafCIcajXoAmyszIw47PpGDJyPAIaNpNnzp45ji3rV93zQSD8/PpfuXQ+Lp49g1r+AbCxs0PvfkNRUFSIGZ9OR7tOPTBm4hSJWKDFY//ubdi7eyv6DhqOFq07yfHFiaP7sWv7RrRs0xGduvWBqanp3/qRVc3VSO3+IxDQkiDMRIB7u0cQBKAoJxlGSSfh6uQHE1PHMsciq6PzdBEoKipAVno0omOuItepE2DwIMFTCcLTxV9t/ekhkJ6eit9++g5OLm64HXId3fsOhpOTi6w9//fZdHH8q9+wqYQd6urpYcmCOXB0doV/nfooKCzA/7N3HWBVHF300HsHERAQQUFURFCx99419hp716iJMSa22OIfjcbeYqyxt9jFjhUsKAgWQIrSe+/8373kGSSoICgPmMmXD3nszs6e2bdz5pZzKZXxwpnj6NS1D7sOKF5gzORvYWZuiZTkRCYIXXsO4FRFWuDzBynSncXFRmPtrz+jkqERDAyNmLCMm/IdE4r/Lf4BTVu2Y5JBhGPfzs04eXgfuzuqmFXFoBHjONOCCEZwUAD3Re6PCdPmQL+S4ecDTvQsECgEAkWMQfiQBYGy87Ihk+AHtVR/6GqbQVlNH3Ly5EcrXF2BQoxXHFIkBHKQmZmK1MQwREb4IkXTBtAgRcZ3paEFQSgSqOJgKUGAFuA3QQF4/MgVBpUMce/WDYyeNIPjCZ49fcJxA9a2dVDFzAIt2nREzVp18dsvP6Fb70GoW68hBwGSrgFZGmgB933pBT19Q9g7NGQyQeRj2bxZUNfQRK069dD9q8F48sj1PxYEiic4dXQ/6yNQUCRZH/oM+Bou1y7g6P6dsLK2xYixUzm2wcvDHYf3/YFhY6bg3u3rnFJJb8egwFfo0KUX1q9ajJ59h6BBoxacWSGaQKA0EShRCwLdCKmJySS8gkJKANRkAfnc6kSleY8V99o5OcjIyUZyFpCuagoZdQtA9r8vHUEQKu4jUtbvnOICyETv5enOhKB56w54/OAeCxxdOX8Kteo6wMjYFGZVq6GalQ1+/98CzF++DgaVKnOKo7/vCxw7tBeDR4znrAeKP5AoH77ye4nflv0EYxNTDBoxngMHnzy8h9Mnj2D2vGWc5kjvu6jICLjdvYE7Llc5JsG6ph0UFBXwwtuT3QWeTx4iPS0V/YaOQU52Jn5d8iMsLGvA3/clWrfvytkT15xPw7pWXdxxuYLvF/wPVjVsRJpjWX84y8H4S9aCIAGEqidmJkAmPQHIzuB8YtFKAQHiZbKKyFHUhIy8GvCevGpBEEphbsQlSxSBN4H+eP7MEza17BDyJihX3yArJ7cyqgygqanDpOH+XRcMHzuVrQekR0Dqi1VMLfD1+GnQ0X23pG1IcBACXvmihk0t/ht9nZ55e8DlygWMnPAN5OUVOLCQAhefe3vAto49TEzM8crvBZMUp6at2DURFRHGMQct23aGiooqzpw4wAGTJJpEQYkUl0BkgmIgfF54oX2X3kxgilIptkTBFJ0JBP5BoMQtCALZsoeAIAhlb87EiN9FgHbhtFjTov2+RtlOJFREGgTknkhJTmYiQbt9JUVlznbI296WUs9jBaXjqR9KQZQs4PQ7WRLo2vQZXYM+I50EPiaHXH2Z7LagX0n/hKSU6Zxcq2tu1Vr6jGToSU9FiCSJJ1waEBAEQRpmoZTHIAhCKU9AGbs8LWaSQkQ0dMlCKe07Xsm4cz2eZFkoedcnXeNT+y1pXHksuRNU4BNWnLGWsUdWDPcTERAE4ROBK0+nCYJQnmbz894LFSY6sHsrXjz3YmlzOXk5GJmYoV3HHqhRs7ZUapDQQkhmfnINPH3qDnk5eTRo3AKNmrbKLZZUAo2uQWmWJKxkWd2myD1SNsWR/TvxOtCPrQcUB6Glo8sxFST9THVaitJIdIkCIinGQUv7X1VZSR9JiQks1FStus3bmhJF6V8cWzEQEAShYszzB+9SEATxEBQWgcjwUCxbMAs6ugawd3Ri07nnkwdISUrCnIW/coEkaWthocHY+8d6xMZGw6F+E67dcO/2NV48e3w1pEQqJ2ZmZuDYwd3ISE/HkJETiwyBz3MvrFr+E+s4UFAk4frU4xFePvfCrLlLWMehKI2yM/x8nqO+UzPOwsjbiMxcuXia4y9Gjv8GGppaRelaHFuBEBAEoQJN9vtuVRAE8RAUFoHI8DCsXDaXF7LOPfryaaQMuHXt/7Dwl7Xs14+JjkJ6RlquYJGiEnxfeCEtNZWLFlEmAKkbhocFw+e5N/vltbS0OS5AT9+AgwLJD09yyVUtayDQ34fLKFOhJPNqVjA1s2AJY8peIJVC0hCwsKyOiPBQxMfFcPCfqbkFX4MaHXf+1FE4nzuBGXN+5tLNFDJ9lRZIj0eYMH0OF2gi+eOIsFC+bnWbWqyCSOPW0tHjQk/xcbEs6Vy1mhUoeJFqN1DZZopboIwDus7m33/hgMPxU+egiqkZXr7wRnhIMNTU1dm6oqauyRUiqcATBUyaW1SHkUkVHidhsXblIkyZ9RMHLlKRCMJ60dzpnPbYrlMPREWGg4gEkRG6R7pX8h68eR3I2RgUA0GxEYZGxpBXUASROcqWiIuNgc9LbyA7B6ZVq0FHzwC7t61lgafRk2ahnmMjTrMMfOULeUUFWFavCX2DSggJfo2wkDdc24L6pPoQkgyPwj4v4riyjYAgCGV7/kpk9IIglAiMFaITJghLf0DDJi25OiEt/LQbvXLhFOYtXcMFix7dv8PKg/b1G+Gh6y2kpqQyASDze98hI9kEv3bFIo5jUFBSxNMnj3in27hZK6xbtZhJhGPDplzp8NzpozCvaskEgI7/7qdlvBD7+/nAoUET+Pk+Q3JSEqxtayMuJhZpaSmYPONHFiyiRmJHm9au4IVz4vQ5b4kDaRckJyZAQ0ubyQIRiMrGprwok27BV4NGYNOa5bx4durelws7UfGlr8dPx4Hd2xAW8hr2tLAG+UNPz4A1DLZvXMn3On7690iIi8Pp4wd4HCTZTNUlB389ESsWfofQkNeo6+DEFSLpZ16CQISFCjtlZKTD7Y4LCztNmjGXFRoJGyoNTSQmMiKcd//KKirYtW3t2yDHe7euYdCICTAwNMTN684YMHQc9vyxPtdKQOqRSUkYPGIcjh/aw6JQX4+bzjoR+3dteav0qCCvgMFfT+C0zb92bUajJq3QsGkLFnCSEK8K8bCLm0QRCcJHhJIEoGUSAUEQyuS0lcqgaQGdP3sim69pJ0oaBFSmvFe/YejSoz82rlnKu9fhYybD4/FDrrRI9RF0dPXYx067YBISopoIcxet4syDdauWsAph46atsGntL5j78yre6ZMAErku7BwacuriupU/Y9aPS3HiyD5kZ2Zi4jc/wO3uTRzYsxVLV21h68Vvv8zDjNmLYFmjJuNDu/y1vy6EqXk1DB8z5T+YhYeF4H8/z0HHbr3RuFkb+Pk8w/YNKzH9+0UsoFTP0ekfguCOfTs2viUIunp6GD3pW1ZvXLtyMb77aTmTDNr5jxgzBXNnjGeC1KJNJ0RHhWP1ivmY8f0SHNq7DYaVjVkoiawUVClSQhCWzJ+BhLhYKCur8L1Q4acefQajV/9huOVyCWeOH8wtRqWmjpNH9iIjPQOmVS3g++IZj4tiQhbNnYoWrTuysqTLNWeuTvnz3Ok8BxRvEODng5q168Ll6gV4PXmEiTPmcjnsiIgw9Bs0EtlZmdj0+y9o3b4bEhLicNflCr6b9wtbFMga9KkBmKXysIqLFhuBIhKED0stF3s0ooNSQUAQhFKBvUxelMzWv/w8m6WIKciPUvl09Q1gSIqAsrLYtHoZCw6RMiHtoCk+4fsFv0JJSYkX0GuXzrG5OjE+nhdVMpcf2LOdJYYbNW2Jv3ZuwZJVm3NN/C+9cfOqMxIS45lYeD95hJ+WrcG5v48woRg4bCweuN7G6RMHMG/Jai6YtHTeTEyZNY933LSYUcnmzWt/gYqKGsZPnc0ujVzLQhJeB/mzr3/L2hVvd+nx8bFYPHc6evUbiuuXz8OhQeNcguDxiHfztBCfOLyXNQv6DR7FZaWXL/gW079fyPdGu/Q+A4djyugBUNfQYGVGSmek65EF4eThvajv1BQ9+lLsw78pmeQ6IHJDVR9JFZKKSCUmxGPs5O/4WmQlOHPyEKpVr8kxE9SfmYUlkwIiFMPHTOW5+N/iOahe3RZ6hga4ee0Sho6cxCJMjx+6sdx0Lbt66NC1N25ec+YYrYcZWgAAIABJREFUhFETZ+DPLWvg+egB9wdZGb5up25f8U9yXUybvZD1G0SreAgUUShJEITy+IgIglAeZ/Xz3BNZEFYtm4umLdujS49+b7UDaDEm//vm35fDuIo5L7Dkerh26Sx+WLiSSyqfPnEQD+7dgmV1a7x85oW5i39jfzxVPiR9ASIch//6Ewt/Wc8ugTUr5iM5JRkdu/TmbIkt6/6Hb75fiHN/H2V1xP5DRuH+vVs4+/dh/Pjzqn8IwgxMmTmPff40JiIAp47tx92bVzgGgeowkO7A7RvOOH/6GAYNH48dm1djxLhpXLOBLAq/LJyNYaMnc40GO/v66NKzPxdp2vPHBrZa0I6bggaJBIW8DsSyhd9h+uwFuHb5HHKysjFg2GjMmDAU3fsMRqNmrRiXJw9dYefgxO4R+qxrz/7vmOslMQhTZ81j6wdlNaz53wKu7EiuhOOH9+Ch2x1Mmv4DVNXVufojVaWkmIbExAQuSU0qjkSQ6D70K1dmcjVw+DhER0awK+WZpzvPR+ee/dj6QARhzORZ2PfnZj6XqlbKysji6ZMHMDatymWqKdiR4iKUlFQ+zwMlepVqBIQFQaqn58sMThCEL4NzebiKhCBQ+l3nHv3fMTnnJQhfDfyaVQE3rl6Gtp16wKBSJfx99ADvYB2dmmH18nno9c8umnawuWmHLd8SBKpDsPD7yewfp1iHG1cu4OLpY/h+4f9w6fzfHyYIeSwIFLdAwYXbNq6EmpoaB1fGxsbA+cxxjmGgRXHntrVITUlG247d8dTDHU8fP8B385bj6IGdHPvQpkM33HW5iufenvj2p6VMECytrNGbCUIQli38FtNnL8St6858z7TrJ1JC2RNUvyHI3xe3XYigLMbG35bAiQnCgHdSFyUEYdq38zkGgsZN/RF5GTVhJioZGWPVkh/ZwmBiasZjaNK8LZeEPnF4D9p27MFkbcNvSzBg6BgYGhvD5aozuvcZhJ1b1rDFQltHF0f/2onmbTowOTl78jCTD4qJcD57An0GDEdaWioTIyIWFLjJBGHmj4IglIcv7yfcQxEJgohB+ASMpf4UQRCkfoqkZoCU679j028cVEjSwXl90unp6TiwawsvZmSipmyEu7euYv/OLUhOTmSiQBH55G4gE/qxg7vYr03ma8saNmjaoi3OnToGWiTpM/eHd/HHptVITEhgGeP01FS0aNsJz708UalyZXTu3pfrHFy/dB4TvpnDQYcb1yzH0NGTYFGtxtuxkSJiUIAfjvz1Jx49uMsm+U7d+vAY1TQ0WSNh57Z1ePzgLqqYV8PQUZO4sJOvzzPs3LyGF9DadRtAWVmJ4ywuXTjJMQ0duvTmDAtyYZD0MpEJIgD0efuufbB7+zq43bnBsslkkaB72Lh6OewdG6Jl2y7vEISAVz4cTDhs9BQO0qRGloEdm1YjPSOVqzs+dL2Dg3u3sXuGCBr1SUTizMnDOHvyELsQIsJD0HfgCBiZmLL7pXf/YUx6KHhUgh/VlYiODOeaEOZVq2HcVCI0B3Du1BG23JBlhEjErWuX8Oa1P4aOmsyfi1bxECgiQRAuhvL4iAiCUB5n9fPcEy1IFGFPaYfkC8/f6G9EGiT+dXIdEFEgu76cvDzvXINf+8P53N9MMCjdb//OzVy3gNImKW1RIlFMAYxEOuhcjh3IAf+kwEi+hoICuyYoxZAKJ1Gj48lcnj8dj87JyMzgY2VA45N/Wy1Rck/0Nzov93w5LqJE90OmfFk5WT6P7oGuKblHPjc9nfuS9EP3qCAvj/SMDA76I+Ej+juJHZGVJVdg6l3s6FqUoUDH/Tv2HKSn52JHmEjGw1jSNRQV2Q1AdRwoIJJ2/2v/txDDx05D/YZNOZ2T7oXui2I9JHOQW2Qqh9MX6T4ow4TmiCpRUt4kzR3hQ+fQvdN1RKuYCAiCUDHn/Z27FgRBPARfCgFamGKiIrFtw0rExETy4mlsYoZBI8ZB38DwSw2j3FwnMMAPh/duR2REGBMCsj4MHD4WOjrvFp4qNzcsbuSLIiAIwheFWzovJgiCdM5LeR0V7YSjoyI4M4GC4vQMDDkNUqTQFX3GCcvIiFAWpyIsSW9BU0tHYFl0KMUZBSBQxCwGEYNQHp8iQRDK46yKexIICAQEAsVDQFgQiodfuThbEIRyMY3iJgQCAgGBQIkiIAhCicJZNjsTBKFszpsYtUBAICAQ+JwICILwOdEtI30LglBGJkoMUyAgEBAIfEEEBEH4gmBL66UEQZDWmRHjEggIBAQCpYdAEYMUhQ5C6U3V57uyIAifD1vRs0BAICAQKKsIfIIFoSlUFTXK6v2KcReAgCAI4rEQCAgEBAICgbwIkK6G+7M3qFlFFXUsC9bVkMkhZRMqYpqTjZ23V0FHzRAK8soCyXKEAE1xQmoMTHWqoplVp4/eWXZ2Do5d90F6tjxUlIXK2kcBEwcIBAQCAoEyiEBQSAxa2VeGndXHCAJy8DLMAykZyZDhque5jf79sUbHvu+4D/0tf7+Sa+a/blH7lxyf/7z3ff6++ysIg7x9vq///CxNgmfen5JjChpTSYwz/xjkZORQScMYlTRNPjadLNMaEJKAiNhk5BTqCfhol+IAgYBAQCAgEJA6BHJQvYo2dDQLNgq8tSBI3bjFgAQCAgGBgEBAICAQKDUEBEEoNejFhQUCAgGBgEBAICC9CAiCIL1zI0YmEBAICAQEAgKBUkNAEIRSg15cWCAgEBAICAQEAtKLgCAI0js3YmQCAYGAQEAgIBAoNQQEQSg16MWFBQICAYGAQEAgIL0ICIIgvXMjRiYQEAgIBAQCAoFSQ0AQhFKDXlxYICAQEAgIBAQC0ouAIAjSOzdiZAIBgYBAQCAgECg1BARBKDXoxYUFAgIBgYBAQCAgvQgIgiC9cyNGJhAQCAgEBAICgVJDQBCEUoNeXFggIBAQCAgEBALSi4AgCNI7N2JkAgGBgEBAICAQKDUE3iEImRlZyM6t/lzmmry8LGRlZQscd2ZmFqiEsWgCAYGAQEAgIBAQCPyLgLy8HGRlC67H/JYg0AK68pf9SM/IAp1Qllp8XBIGDWmDOnUt/zPs9PQMbN14CvEJKe8FoSzdqxirQEAgIBAQCAgEiosA2QIS4pMwYFBr1K1nVWB37xCExQt2oUVLR2hoqBX32l/0/Nu3HqNpc1s4NrD+z3XTUjOwcd1xNG5iD3l5+S86LnExgYBAQCAgEBAISCcCObjv6gVHp+po0NDmYwQhG4sX7Ebbdk7Q1CxbBMHlxiM0amLzQYLQomV9KCgIgiCdD6oYlUBAICAQEAh8UQRygLt3PVGvfrXCEIQckAVBEIQvOkXiYgIBgYBAQCAgEPjyCAiCAEhcDMKC8OWfP3FFgYBAQCAgEJBSBARBEARBSh9NMSyBgEBAICAQKE0EBEEQBKE0nz9xbYGAQEAgIBCQUgSKRhBEkGJB05iRkYGYmChERUciMTEBaWlpyCmjWhGl+ZjKyMhASUkJGuqa0NXTh462LhQUFEp8SNlZmchOjEd2YhyyUxKRnZkJiPkqcZxFhwIBgUDpISAjJwsZBSXIqmpCTlMHssoqoHdskVrRCIIIUpSASwSAiMErfx889XqCuLhIqKgoQl4hr6CEDGg+cskCTcz7hJjy/03ye0Gf0wgK6q+g/t/thx6Od8cieVjy9leYa0tQyH9s3t/fHWfB1/4vHqS1QWJcKSkZ0NbSQy3buqhWzQpycvJFf7jzfRNysjKREf4GGYHPgYRoKMlkQUE2m+fo36/NvzjmRyVvd5K/5X4mgxzk5Onj35nO+3XMPee/8yRB4b/HvjvT+b/aBc9awc+Z5NqScX783j6MQ8Hn/xeH/E/rv09Iwcfmx/Pj43w/RgXhWpz5enfOc3t6Hw75v+v/nvvvfef/Fn/oWXnfN/S/Y/jws/huPx+ar4LH+f5v+L9vuI/N8Yeexdxv07/tfce+/7n69930oe9kfhxovgqa37zv7cI8i8V5vt6uLf/8o9jvgxwgO0cGaTmySIMiFAzNoGBWHfIaWoBMwYKB/yEPgiAU3cVAi2xMTDQuXjqD0LAAtGnTCo6ODtDX14eGhgYUFRXfq9hYJPZWwQ7Ozs5Geno64uPjERUVhfv3H+CS81UYG5ujY/se0NHR+TSSkJODzKQEpHrcRnaIL4yrW0Hb3AKK6uqQV1KGrILCp/VbweZH3K5AQCBQRhDIyUF2Tjay09ORkZyM1Lg4hHp7IjYmCcp1mkCpqjVk5AqR0i8IQtEIAi1igUEBOHJsDywtzTB8+DAYGxuzaVy0kkWAXDWhoaHY+edO+AcEo2f3gahqblFk8pUeGYKkuxegqyoLs8bNoaStDTn5knddlOzdi94EAgIBgUAJIUCbpPQ0xPr7wf/ObWRXtYNancbsdvhgKxpBqNgxCEQOXvn74tTpw2jRsjF69Oj+6bvaEpr38t4NWWtiY2Nx7Nhx3Hd7gg7tu8OyWvXC3XZODtKjQpF89yKMTSvByM4eimrqYJ+CaAIBgYBAoIIhkJOVhYSwEATcu4cULROo1m0COWXV96NQNIJQsWMQIiLDcfDgTtRvaI/BgwdCXV29gj1epXe7SUlJ2LfvL9x3e4zBg8ZAV0f3o4PJSohD3NWjMDYxQJUGTlBQ+cAX4aO9iQMEAgIBgUDZRyAnOxvJkRF4ccUZWRYOULVxgMz7SgwUjSBUXAtCZmYmrlw9j9T0WEyZMgna2tpl/0kpQ3dAloSIiAhs27YdMlBF5449ISf3/oJhxJRTvdygEukDy1ZtoaiuUYbuVgxVICAQEAh8PgRycrIR4/sSfg/codioKxT0Kxd8saIRhIprQQgIeIULzicwZuwI2Nvbf76ZEz1/EAF3d3ds2rQdfXoNhVFl4/cemxEVirT7zrBu2ACaVaoIVAUCAgGBgEAgHwIvL11ArKwm1Bq0gYxsARsuQRA+HqSYlZWFq9edkZoWhenTp0FNrWwVqipP3wpyNWzatBmqygZo5NSswOqbZEJLefYQamHPUL1DZ8gpigDS8vQMSNu90G4sMzMGySl+yEiPQQ6yipjSTHeUP+X3QynIEgTyprS+Lz05L1rvS6cuCNH3pTDTsQVdN//nBf1eUmP50LXyJ2LmxTZ/4mBBOObH4kM4vO9JfB/OeedUcg/55/592OY/XgayskpQVjaBirI5ZGWVP+lrkRQeCq+r16Hc4ivIaxZgFRcE4eMEITklGSf/PoBGjR3Qs2ePT5oIcVLJIECuhnPnzuPa1dvo3XMQ1CjoMF/LTktFiqszjA3UYOzYsGQuLHoRCBSAQE5OFpJTXiE14yWUtPSgqKIFmcLmmAtEBQLFQCArMw2p8ZHISZeDuqodFOS1itxbZloaXly+hBTDGlC1qfff84tGECpmDEJsbAyOntiNiRPHwsam4JrYRZ4ZccInI/D8+Qv8snwFRgyfWmCwYlZSPNJdjqN6YydoGAv3wicDLU78CAI5SE+PQGzybeia1IKSmiFkZSm3XGTJiEfn8yNAlquszBTEhT0FUtSgrlYXsrJFS98mFdk3j+4jOCIZmi0L2PwKgvBxC0JkZDgOHdmBFf9bDi2torO0z/+oVKwrxMTEYNTIUZgyaS4MDAz/c/NZ8TFIv3oAdXr1gYKqcAdVrKfjS95tDuLi3SCvLQstg5oV0nJAFj1K//5QwPD7ZiQzMwvy8rl+b0k/snJyIBchic/Kysogi/qWlX0rZJaVRX/L546RwdtjuJ+cHMjKkIptLlGjc8ioI1tOLTtpqVGIfe0NDSVHKCh8PLsr73wQXpHPvfDS3Qs63UcW14JQMYMUwyPCcODQNmzatOGz1Ab4kq+08nCt1NRU9O7dBzOmz0dlw/8GKmbFRSHtyn44DBz6/vSd8gCEuIfSRSAnG5Exl6BbzRZKynqlO5YSvnpaejovqHJyssjIyOSFWtKIDCgq5KrwhYRF4N79p+jQphELmOVdvOkY+iw9PQPZyIG8rBwUFHIl06nPvQfOYmDfDlBRUUZcQiIuX7uPtq3qw8vbFwmJKWjgYAvna67o2MYJWpoaLG1/+bobQsIi3wnZUFBUQKtmDqhibIigN6F44ROEenY1+Bw68PJ1V5gYG8LW2qJcKqaSmyv81S2oydWFktJ7shHe+3zkIMbXB54370H/qwn/NX4VzYJQQQlCeBgOHN6KLVs2fxJTLuHvboXvjhQWe/XqhRnTF7yfIFzeB4fBIyDzgVTICg+kAKB4CORkIyL6AvSt6kFRqfxYFsl0vf+IMzKzstC4YR2cuXATL32DGCtS8K9nb42BfToiMjYOu/aegr1dDVhamGLvgTOIS0jm4+RkZTDgqw6wqGqCuQvXQ1tTAwYGOpg2cSA01FSRmpaOb+aswopFU6CupgpPL1+ccb4Nq2pVEBcXj/iEZJgYV0JwSATatGiAOrZWSElNxU+LN6FzhyZQkJfjsE6yDrg99EJzp7po0cwRUTFxOHryCigt3dHeBqoqyrjl+gTW1c1R374mb/CUlRSLN+9SeHaY3/V/CIJRkUcX4+cDzxt3oN93oiAIjg2s/wNgWmoGNq47jhYt6zPDzd/CBUEo8kP3OU8oNEEYMqLg1J3POTjRd8VB4C1BcICikma5uu+omFhcc3mIenbWMDLS54WYGhntyYJA1vtrLg94oaddev16ttDW1nhbFJWOU1JUQEhYFDZuP4SxI/pgy85jsKtlhZSUNLYg7D98AZPH9UUDx1qYv2QznBrYscshJ5sKJ+W6CTIyM3Hr7mNsX/cTX3fFml0wNNBj9wM1Ku4WGhaJ7p2bo4FDLbZg0JgiomLg+uApVJWV4eMXiNj4RGRlZqFj28Zo4lS3XM0V3YyUEITPF6RIqYSZWZlQVFD8LGYglxuP0KiJDQRBKPvfjUITBGFBKPuTLc13UE4JApEB2q0np6TCxy8ILrceITQ8GjpaGlBQlIeKshJaNXeEuakRrt96CI+nPrC1sYCv3xsmC+kZmbyA13ewhaVFFWzZcQxjR/TCtt0n4GBnjZTUNCjIy+PPvacwfdJA2Nexxvoth9CvT1vcvPMYurq5ZCs2Jh5161jj77PX8d304Xjs+QKXr7khJjb+n6TQ3FgE6qumtQXatXZCeHg0UlPTUM/eBmfP38Rjz5d4FRAMM1NDPq5pI3v07dlWmp+qTxqblBCEz+dieOnzHF5eHmjTuiNXRCzpJghCSSNaev0VmiAIC0LpTVJFuHI5JQivg8Nw4OhFvPQJxJyZXyPwdSg2bj2MQf07Ii09E9ZWZjCtUhlez/ywaPlWjBzaA21bNURcfCKys7Jx6borWwL6dGuD5JQUjJy4CLVtrZCcmop+PdshMioWvbq1xKy5a/DrkmnQUFdjV4LnMz889fZhSwAFGro/eQ5TY0M4OtSEsaE+XgdHYNf+08jOygG9AzIys6CmpoK09Aw4OdiiTauGiIqKxekLN6GlqY6/z95AVTMjDlBs18qJiYOcrBx6dWtV7p7OckkQ8ga0uLvfxz3XW+jffzh0tHXeTqAkErW4MyoIQnERlJ7z6eXQs2cvzPxGxCBIz6xUwJGUU4JAi3NCfBJWrNmJWVOH4tJ1N2RnZqFpY3ucOH0VjvVsYWdriYPHL7GbYejAzmjfyoldAGQJPnb6KhOE3l1bI+hNGDb9cRgTR/fFjj1/o2e3Vjh74Sa6dWqOdVsOYuWS6RxMSJkQXi/8+W++r14jOjoODRxteWGvW7s6903EYsGyLejbqy2ePvNDaFgUmjeuB6/nfjDQ12HyoagozxYKshy4PfCEuZkxgkPCYVPDgvukcfXsKghC3m+r1MUgEDF4/sILh4/s/cdUJIOoyHCEh4fC0soaioq5QSSamtoYNng09PT0i/32KRZB4CwGEaRY7EkooQ6EBaGEgBTdFA+BckoQCJSkpBQs/20H+vRog1Xr9sHYyIAD/p54voSVpSnmfz+GA/42bT8M25rV0K5lw3cJgpwcenfLJQhbdx7D5LH9sfXPY5g0th+7JHR1NLFuyyGsWjodGurq8PV/ja07jnJGA7kEomPi4Fi3JtIyMjC4X0cOUoxPTMKva/ZAVVUZ/oHBiI1LgK1NNY5paNnUgTMpiAA8eOyNp16+UFBUhKa6KgKCgpGRmY2IyBj06NwCTvVrF2/epfDscmVBIIIQHRONly+8kZ2TjScej+DicgXqGhogzYFRX0+Crq4elJSUUdOmNlRUPlKzuhATViyCIIIUC4HwlztEWBC+HNbiSh9AoJwSBHo/h4ZHYsXq3ejZtSX8g4Khq60FHW0NXoAp44D8+Lo6Wli7+QBsapijbR6CcPTUFQ72JgtCQFAoRk9eBLvaNaCtpYEZkwdDQUGOgxRn/rAaK5dOh7q6Gu4/8sK2nRSr0BsPHz9HQFAI2rVqiGN/X0Hv7q3RunkDvAmNwOHjzoiKiUdgYCji4hM4O0FZWQlNnOx4DGlp6fhj10nYWFdFYlIyZyyYmxtBBjJMKGRkZdGgnm25y2QoVwSBvnL0ENJ/iYmJ2LNvO+RkZJGUlMjBMdWtrNG71wBmqMLFIF7R+REQFgTxTEgFAuWUICQmp2D3/jMIDAqBhoYa+/H1dbVZ+yArO4c1C+xsrWBVzRTrtx3iRbpN8/pITcuA1zNfDjQkq0Knto05oPDi5bto3qQeVFSUuL+g16F45R+MQycu4dfF06CmqgKfV69xz82TdRFuuz7h+IaqZsa4ev0+Rg7rDjNTIwQEBCM0IprdEc+ev2KXA7k7qF8iAjUszeAfFMLZC727tWJLBZEZ0lOQlZOFf0AwW6z79mgDVdXibzql4hn8ZxBSQhBKNouBJvrmret4+MgVjg4N4eHxCHXrOuLsuRMYM3oqqpqXnLCFsCBI0+NcvLEUmiCILIbiAS3O/jAC5VQHgXba3i/8UcPKDMnJKbjj6sHiRBnpmbzQkquBshisrcxxx80DBvraqFa1CqKi4/D3uetQlJfnoEUTo0pvhZMkGz3SVrh99zHuP/JGTRsLthJQdgFvGHNyeENIAYtxCQmwqW7BwYqkpBiXkIS7bh4cd8CNN5h4u4GklMiGjrU4aJE0EIhchEdG4+zFW4iPT+LsCrI0tGrmiBpW5iW28ZSWr4iUEISSy2KgyQ0KDMDGzb/hqz6DWHHLze02evUcgIuXziAlJQUD+g2Fdp6AxeJMhiAIxUFPus4tNEEQWQzSNXHlbTTl1IJQ3qapItxPuSIIxBTDwkKx78Cf7EZo1qQVAgP94eHxEB079kBqSgpOnz2GOrXroVfPftDQKL4IiSAI5edrUmiCICwI5WfSpfFOBEGQxlmpkGMqVwSBUmE8PN3h+fQxByKGhLxBaMgbvAkJQs2adaCpoYWqVauBFAzbte2MKiamxZ50QRCKDaHUdCAIgtRMRcUeiBQRhP8UMPpnZooSw5W/j6Kc+74H4XP2WZTx8TiogFOegZL7QtIknxe5zzxujtL8MkgJQSi5GAQqvEG+IiUlJcbV/fEDuLreRP9+w3PdCjJgYQtlJSV2PxS3CYJQXASl53xBEKRnLir0SKQkBoEWv/1HL3AKItcoyMmBpqYGOrdvgto1LQvlb6d4MNeHT6GjrclBf088XrIkMaUjfmqjgk8P3L3hctud0yarmhuhU7smMK5s8KldcmYCSS872NvAQO9fvZwPdUiB71TkqX1rJyj9k0IfHRuPg0cv4sXLAMgryEFFWRlNG9dlXQWKsfhYo3u7c+8JK0s2dbL/2OGf/e/ljiDkR+ylzzN4eXmibZuOUFcXSoqf/YkqwxcodJqjiEEow7NcBoYuJRYEWtzn/rwRhpV0ubARBeSdd77D2QY/fTcaCYlJvJhSRUbKKqBiSUnJqVxlkT6jDABFRQX8unYP6tSyQqP6dUBqihSESBoDtIBSWiItnKRaSP1X0tfhjVt0TDySU9I4w0FXV4vrL1CjMV11uY8Dx5zxVY82LGREks20MZw+aRBfm86lRqqH6moqiIlLQHpa7phoPPq6WkwsqI4C7Ri1tdQQHhGNn//3B76ZOBC1bCw5dTE1NZ2tA4YGOjzO+IQkyMjKcJ0GPV0tDrBcsHQLls6byAqQZCV4/SYMy1fv4mJURKLomF37TmHOrJGwtjTnok9Uu4GyLrS11ZGWlsFZE6QUqaGpxqmaew+cYzL19eDupf6wSglBKLkgxfyI0gNFmggkhUmtKKaewsxOebAgSMx178OGMMxrbfnY8RLcJNHDH8OxsMd9rJ/i/l1YEAqHYP75et/8Scu8Fu6upOgoKSIIPyzaAFVlJTRuZMeLGGUXaKironun5tiw/TBWLJzKi96ajQfQp0crnLt4mxdSWuDonUFZCRu2HEJlQ3106diUd/5NGtph9Ya/0KyxPfz83zApoCwBEj+aNKYv77oPnXBGbGwC5OXl2TrQspkDZx1QwaT5Szax+mLXDs24bHR8QiKevfBHdUtzHDp2EV7PX3GqO2UV9OjSgpUWicCoqqhwXZ7Rw3pyFkJAYAgv9s2a2ENeVhaLf/2DlRnr16sJ0lwgEkOZD1TvITIqDsdPXUUdW0uEhUehc8dmSExMxi+rd+GbSYMwpH8nyMvJM0FYtX4fBn7VgdMgSSZ6/DfLMGpoDyYZFy7fhZycDOPRv097Tpm8dM0VspDhqpSk5njtxgOoqAqCIJPzz0pDk7R4wS60becETU21Yn9TIyIjkJKSDGMjY8jLK3BKS0x0NHz8nqOBY2598ZJqZZEg0IIvWeTT09Nx9epVmJqaombNmm8JFJEFwikqKgoPHjyAk5MT17Kg8+7fv89BoLVq1eIvMB2Xn1zEx8fDw8OD+9TV1X0v3NT/06dP4eDgAHV19ZKalk/qp6IShLzPw3+Bk+GXMIuQxcayqt3LV/6obGDAO7JKerrwCQyEhYkJK9dJGmnlP/d7hWpmptBUV+edX/4m+R6yzzaP37agySvoGfukSS4LJ0kRQZi9YB3eA3fVAAAgAElEQVSSkpJRvZoZzl26zVLIs6YN48Vx9cZ9WLV0JksNr1y3B317tcOZ8zfR2MkOzRvVZQJRp1Z1PHT35s9o133i9DUmCFRQadWyGSxdfOHSHSyZNwkHjp7n2UlJTYfbg6d8LmkbEHlYMGcMP1+065/90++YOnEAate0Yt8/PZv0fD15+pILOP343Si2XtDiTVUWr7nc5wJPLZvWw+Ydx2BuagyXOw9RxdiQUy5JNpmsBAuWb8VPs0dBJkeGJZfJanHs1FVUMa6EKiaVmHjMnTUK7h7PcfuOB0YN74EfFq7Dul+/Y1lnakQQ5i3dDCoKaWRkgOTkVE637NG1Jd87EYDatpbYuO0wF5+KiIjBxNFfoYqJIZau3MGaCwlJyUzChAXhMxEEN7e7CA55zYGIsbHRbCZKTEjgDIZvpn0PWVkqK5o3rOTT3xrFIgilILVM8Rlr167F48eP+UtFv9O/q1SpgkqVKjEutOj36NEDvXv3xqtXr7Bv3z4MGzYM9+7dw9mzZ/HmDVVXAwwNDXlRnzhxIurWrfuWdNDfgoKCsGvXLgwYMADVq1d/B2BaiBMSEvj6jx49woULFzB16lTuK++8ELGgBelLtUIThHLkYkjPyMDqHTvx2IvUR/8NrpJgbqSvj4UzpkFdVRVX7t5DSHgEomJioKmuhszMLLRv1gTHnS9hQJfOqGL0b8348Kgo/PX3KXRt3Roez5/j6LkLHPcjeaFnZmVj/JABqF2jBlZu3Q5vv1e8Q8zbeDQ5OdDT0cKSmTOgq639pR6F0r2OFBEEWuyoKmLPLi04loAUDr+bNhxaWupYtW4vfls2gzUEftuwD4P6dmTzf6tmDrC3s+bF2sLcmHfJuQRBE8dP5RKEQ8cvY/2q2XB76IVLV10xb/Yo7D9yEbGx8UhKSYWyoiJat2zArgAyu9e3t2X3AD2vVMiprp01enVtyYtvSGgkzly8CX09bdZWmDNjBBdqmr90Mxzr2XBNhWaN7FG/Xi1s332cd+81a1jA+/krjq9QV1dFjy7NsWr9X/jpu1F4/sKf4xvs7arDw8uP1RvNTAwRFhGDWdOG4tHj5zjvfJstC3N/3oB1v86GpkbuxpZdDKt2wqGeNWxtLHl8JsYGbEnYvOMopoztzwJR23efZBIiLyeLH78dBT1dbfy6bjfHMlDII22UBUF4SxBKLkiRJun2bRcEvvZHty694XzpDBQVlVDNojqOnTiA4cPGIjk5GdUsLHkXXNxWLIJQClLLBHlkZCRSU1P51uPi4jB79mwsX74cOjq5wTm0SGtqarJfj6wL586dw6BBg1CjRg24ubnxcUQoXF1dYW5ujgYNGrAVwcvLC+Hh4dwH/Tx//jxat27N1glq+vr6bHUgi8TOnTtZk4LIiZGREfeXlxyoqqrip59+YhLypVqhCUI5SnPk5yE6Bilpuc9D/kZmU0MDfa5yd8P1Po5duEh8m8lg0/qOqKxvgBPOzujQvCl0NLVQSU8PejracHV/gtNXr6KlU0PExMWxb7hvl0788kvPSMfBM+dgZ10DjR0csGr7DjRr4Ag9bS3o6+iy7C71H/DmDRKTUmBX0xpGBgZflCx+qWeuwOtISZAiEXgmCHbW6NO9NRdM2rDtMJvdRw7pjnVbD6FzuybsYiCT/fSJA3Hd5T5aNHOEvV2NXIJQ1QS+fkFMDmvVtMCV6/dZvvjwictYv/J7Jh2Xr7nip29HYf/Ri1wK2shQj2WRmzex5/oJFIcwbGBXKCoosEvg5t1H2H/4Atq0rM8yy26PvNiF/FWP1li78QBat2rA75Kbd9yZtNDYKFCQSAYRBLJIREbGwbqGOccakKuBFBI3/nEEfXu2Y0JDxKSxUx2cPneTCzURoYiIisWsqUPw8PEzJggTRn+F2fPWslukfj1b3lhJXAx0XRJYkrTIqBjs3HeaF/7qlqZwvurK5zz19kVVc2MYV9ZnCwO5YfxeBUNNTVkQhJJ2MdCC5v3ME2fOHEdMbDRatGiH6OhIKCsrw6iyCf7cuRnW1rUQHx+Db2fOg47O+03fhX1BFIsglIIFge6Lvvienp682JOL4a+//sKIESP4AafWqFEjJgM+Pj7YsWMHWw569eqFPn364NatW3w+uRy2bNmCwYMHo06dOkw6fv75Z170DQwMEBsby66D2rVrQ0tLCzExMfyCWbZsGRMFWnDIVfH7778zOclPBIi8Ua2MkrL0FGY+C00QypEFoTC40DHkXjjhfBmXbt3C5Vt3YGpshM4tW7Il4fLtO7C1tITny5cY0rMH6tWyxZGz53DX/THsbWuyafh1SAga1avH805z+uTZc/Ro1wYN7OywfvcedGjenC0NFqYmaNGgAZKSU7B+z17UtLJEn04dQYp2FaYxQbgIfSt7KCppldptE0k753wbJsaVYFfLiscRGh7Fn1ERo9fB4bh734NN8FQqmRZhH78gWFmYwsTIAHdcn0BPTwupqRm4edf9rU/ewswYjz1fcMGmwNdheOETiA6tnfDwyTO2aFKQ4NUbbggMCuNAvnatnThDQfIuICvCw0feuOX6BCkpqbAwN0H7No3YheHx9CVnI5D7iwhBbdtquHvfE3RN0yqGLLusoaGK9PQsuD30ZOuyQ10bLtp0+borqzpaWBjj/kNvJiNEJpSVFWFuWpndBaSYSPdNMQ8UQ0GLOlk4enRuxccR4bh+8wHq2dnAzLTy27nLycmGf2AILl11Q2JSEmrVrIZmjeshNCwSF6/c40qRtayroUF9W3g9e8V9NnQo7eJPOQjzuwE1ubpQUvrXOljYB7IEqzmWjAWBHq6AwFe4cPEUIiMj0LRpK/j6PseDB65QU1NHcnISevboj0fubpgwfjp0dfQKe6/vPa5YBCE8FAcOb8OWLZu/6O6IFuq9e/fi4cOHaNq06dsvHr0QLl26hPbt2+Orr75iq4DExUDuhlOnTsHb2xsRERG86JMboX79+ujcuTNbBsilQP+meAKyJpBrYvz48TAzM2OysH//fkyZMgWVK1fmWhlLly5lMlG1alW+LhEPWkBofN988w3s7OzekpZiT1QhOig0QSgnFgSa79S0NN7d/7ex4CxHlhNxpEqoD596Ycfhw4iPT2SCoKWhgYjoaPYZTxo6EPtOnML8aZOhrqaG0IhI/Hn0KLq3bo077u544v0Mzeo74vDZc6hdw5qtB/Xr1oG6qhoThF4d2vPcHzl3Hg51aiM0LBypGRkYP3AAtLU+PSWuENMuhYdkIzrmOjRNzaCiTi/mCkSOpHA2KuqQsrLSEBlwD+ry9aCoWKnIMJQgQSjZIEVyMfgH+kFdTR1/7tyIZs3awMmpGVxcLmPwoFE4fuIgRgwfCx3timlBoAWYLAO0gJuYmORhuTkcX0AxBf3792eC8PLlS/zxxx9sQbCwsGCLAxGBZs2aMSmgY2inTzEF27dvZ4JA8QjOzs5YuHAh5s+fj3bt2uHFixc4cOAAEwQ9PT2cPHkSBw8exIYNG6CmpoakpCR2dxw+fBivX7/GokWL2NIgLAhF/l4W+gQiB5v37cfBs+c4noB2NlTghnZVNJ/ampqQlZODY+1amDp8GPadPIVmDRzwJiwcDra2iIqNxdb9B6CvrYPGjvXg//o1fpg4gbXs6d8bdu/lIMXw6BhcunkTBrp6ePHKH/o6OuyG6NG2NTq3aoltBw6xlcDWyhLPfP0wf/XvCI2IwLZflsGmWsnVTSk0MKV+YA6SkryRIR8KPVMHyMrmarqIJhD4UgiQxSM5/jUSw4OhqVIf8vJFlwiQaoIQEOgHe3tHXL3mjEqVDGFb0w5/nzqCvl8NxrlzJzFs6JgSqcdQPAtCGA4c3loqFoQ9e/aw66Bhw4ZvF2Hawbu4uKBLly7sTggMDGT3w+nTp5kQ2NrasuuAjiE3BO3+aQG3sbHhGAKJBYEIwOrVqzk+ISAgAG3btuV/Hzp0iMkHWRPWrFnDQYlEPig7gkjL8ePHOa6BSATFLXxJckBfvIppQUgHibO8CgrC/lOnMbB7N8ggB7/v3I15UyZB75+YAPL/Xrx5E17PX8Lbz4/dAHo6OkwAyCrgFxSEPh3ao0f7dnjm64stfx2Eu5c32jVtzLnjdjY2aN3ICUvWb+SfTRwcoKSkyD5nsiAQQbAyN8MFFxecunQFcYlJ6NSiGfp37QINteJnNn2pF2tJXScrKwkx8behpKUCdd1qUFDShIzMlwvYLan7EP2UPQSys1KRkhiOhAg/qMhaQUWFRLGKnvkndQSBTKa0w3W+dBaXr5yDnZ0jsrOyoKOrh5o2dbBn71bYWNeCnJw8evXszzvX4rayShDIxUCLcZMmTd5CQATh2rVr6NSpExMEikEgckC7/+HDh7O7gawAZCGgBf/y5cvsPujfvx+MjIyZIFhbW3PgIcV9UGbCkydPmBgQiSDrxIQJE9j9QIGKISEhnC1B/ZB7iOIiaA7JtUBKmBTfkDf1srhz9bHzKxpBkOBBmD966oUTF50x7esRiImPw6/btmPprJm825ekQTrfvIUVW7aje9vW8A0IhLmJMWaOGYVTl69g2/6D+O2nubC2rAb/oNdwcbuPpy99MLRndxw9fwHGhobsjrj98BGqVjGBqZERxyAYGVRigtCuaRM89/PDY+9n6NelMzQ1NLDn+AkmFv26dHqrVPexOSw/f89BRkYsklNfIks2DpDJAmRy3nE2SJxAdM+S/JNcp1Bukzgm8h4nObagvxV0nKSf/P3nd3r865D6+LXz9pl3HPnHXNA95L+3gu6noP7fPutvHWf/jrMwfRYWy4Lwyj/GkpqDvPiUZJ/IkYFMlhIU5apARdkcsrKKn/S1KkGCUDIxCGnpabh58xpOnz4GW9s6aNmyHVzdbkFNTQNODZri7j0X1LNvgLj4OJhWMWdTd3FbWSUItJhTdgJZBfIuFKRdMHDgQPTr148XayIFFDswatQodgHMmTOH3Q+UEkkxCTNnzmTXQ1hYGActUpAixRhQH3QMBY6SxeHmzZucOTFt2jRoa2szGThy5AjGjRvHWgtEEM6cOcNWAyIN5LqwtLTkY7+UJaGiEgQK+tpz/CTP1ZiB/dmaQARhyayZUFdRgbv3Mzb/k4LevNVrUKNqVYRFRmF4n56oaWmJDXv+wqXbt/HNyBHo2JzEa+T47zuPHkMrp4bYdvAQ7KytISMri6YO9diicPbqddjZWKNZ/fpMEKqZmSEiOgrtmjSBbXUrnn8iLfc9n6JPx/ZMVCpeo/z+dGRlJiArO53CiyseBOKOvzACMmypkpNThZwcpZ0X3XIgGXAJEoSSiUEgpapX/j7IzMxAdSsbTmM8eHgPp1b17jXwbXrW0WN/wdS0Kpo2aVls8MsaQSBfP+3gyTJACyLFB0gWYNopnjhxAsbGxujZsydnMlAgIrkZiCCQK4DSHtetW4fo6Gi2PsyaNYvdAbTIUwwCBThSkKIkI4JIBhfR8vDg+AIiCEQgyMpA1oi5c+eyq4EWJyIttLjQtUqjFZoglKMsBrK4UUbBut37MHP0CN6xk3Xgly1bsXjGN7wL3fzXAQzq0Q3aGhq46+6OP48c4/iECYMH4tXr1/B48QINatfB9XuuGNanJ+ra2CAiOoYJgq6WFl4GBMDGshpi4+LRvEGuZO+Zq9fgUKsmWjR0wvJNW1CruiXMjI0hT7oX/2zXSJeBnklFeQW2TOhpa5eoyFlpPGPimgKBioKA1BEENrP8I/YiWfRcbl6Fs/MZ6Orl5lFT8EVMbAxGDBuHquYWxZ6rskYQaCEnywFlIlDLL0REizlhZ2VlxQSAyAAtIqSDQK4ACl6jiHba3fv7+3N648iRIzmrYdu2bRy/QARB0siisHv3bnYpUMwCEQoSQMpLEEJDQ3Hs2DGOTaDsCSInpdEKTRDKSRYDBSZS2uKVO3fRrmlTtGnsxMQuKCQEP/y6CjpaWixepCAnj29Gf41LN28jJi4eTRzqcRqWl48fvH198XWfXiySdNHlJsIiItG9XRtsP3AISamp7EqoZloF8YmJHJNgVbUqTy25E8ja0MTRAWevXUdQcMh7p5zEZto3bwZLM1NBEErjiyGuKRD4BASkkiDkvw/aMQe9CURKchKruVI6tYaGJpMDkmEubitrBCEvifrYvRNZoIWchJHIHUNBixQbQBYA2vXT4k9xBaRhQDEHlH1AJIBEliSNXAdksSDpZcqYIGsDLUKU5khiShTDQP+mbAkJMSG3Qmm0ikYQaIf+OjgEmVlZMDM2emv1IZeDj38AZymQ/gDJKtPfKYaAUhgpaJCIOJEF2uHr6+rw3BF+yamprKX/9MVLToPU1dbi3yljgvqi2AJqdC6pyNHvElL/oTn/Um6m0njuxDUFAuURgTJBEEg1MSkpkUWRJGbvkpyMskgQSvL+8/ZV2CJOn+v6xe23ohEECVkUi29xnxxxvkBAIJAfgRIkCCUTpFjQFHk/ewr3x/fRtXMvaGqWvCpZaRIESiG8fv06S0fTS570CCjqn5QNyXXg7u7OO3tSM/zURYB2iOSWoHiOvDt7uialJZK7oE2bNmxZoEaZCTdu3EC1atXg6OhYpkzC0koQyJJD5nkqftS0vgPM/9GuIKW3a/fu8U6/e5s2XKCmoJaYnIzk5BTWHihMbYuEpCS4Pn6MOjVqoJK+foF9pqSmIiY+niWQP/Zs0fjJFXHn4SOuzWBsmCu6QpaLW/cfIDY+Hi0aNmCXhmgCAYFA+UCgBAlCyQQpEqxZWdlITU3mlw81L68ncLt/B716DoCWljb7GBTl5aGsXDIyvqVJECiWgNQISaOA4gIoy4DM/CSbTMGClBVA5n4KRPzUCpZEDiiGgOIRSF5Z0ihugIgBBTRS7AFlMpAFgQIRSRxpyJAh+OGHHz6L1eZzfX0KTRC+cJAimfxXbvuDRY0Wz/wGw3r35Pkk+ePRc+bidWg4Lu7aAZ33KA6euXIVYVHRGNCtC9RUVD4KH9VAWPj7ekwaOoilkAtql27dxkt/f4wbOOCjpIPcCzuPHsd3y1dg67Kf8VWnTqyrT3EJ/aZM5wyWjYsWcCCiaO8iQDFTOTmZIoNBPBhfEAHKZJAvtu6GVBKEgEB/rN/wPwQHv+EXV1JyIhITE6DPQYryXCimYYOmGD92KssvF7eVNkGgokdUnZGCBCmYkNQRSQCJ6iLQrp4woHgBSfVEWljIEkAxAWQFIMsAWQGIYJC1gI6jv9F59DmlOa5YsYKDD0luWVLgiggCaSVQUSXKRKCiTJSJsHjxYi7SRMdSESgaE4krUd80RhoLfUZxB7SzpNRH0qOgfuna5AaimAf6nf5G59ICQufRuOkzyb3QzpX+RvERZCmhf1PQJP3+KYW4iCD07NkLM79ZgMqGxv95NLLiopB2eR8cvnCQIhGEdbv2YPexE6xBMGfieK6ueO3uPaz5cxeocuKZP7ZBS0OdF93EpGQueCTZka/dtQcRkVGYNnI47/j5mH+sTlrqGlBXU+VKjvEJCVwDITImmoWSJg0dDIdatRGXEM+fcwyBpgZXqNt+8BBnO8yZOAEGujqI43OTOcucSt/S+CSWBQlBWLd7D7q1bonZ48dxdgPJL09dtARa6upYOfd7VLeoivikJCQmJnGJaRo/VbeLS0wEsnM4voFIKN1nSloa0tLS316LPqf7TkhK5OvqaGry809lp0mMKTMrE4oKihykrKOtzdkSZAWhsVGsxKcS6OK+P95/PmVwpCIlxR9Jqc9ZEyE7R6Q5fj68Rc+EAJWplpNXhYqSBdRVbSEr+26F3aKgJJUEwdfPB2fPnUSXzr1gWKkS3O7fxYsX3ujVsx8TAvcnD+Dt7YmBA4ZDQ734Gu/FIgjFLNZEFgRKDdy8efNb8z+5FWhB//rrrzlzgBZLEh5atWoVL7Kke0AqiCReRIstEYGWLVtyWWY/Pz9OVaQMB3rhkmWC2vr16zkzgRZ/shhQI4JAGgZUiZFcGGPHjuWUSNJCoOwGci/Q38n6QNkJ9NImXYRJkyZxcCKRGrJuEFmgYEcKXiTSQOmTZH2gGhE0FgqSpLHQ2ClFklwYpNJIJIIyLcidMX36dLaYUDAkFYOi8ZJMc1GbNFsQ1u/eyyZ6Chj8YeI4/kmLuP+b1/B84YMj69ciPDISO44cZZM9LXgN69qhmaMD5q9Zh+DwcEweOgTWFlWx+/hxJCWnIiE5iXUMJg8bwrUTKJ2RFlQK5CU55QXTJjOp3nXsONdroMXXwtQU/bt0xpodO/Hi1StMGDIYtWtYYffxkzyPVMue1BVnjxvLxIMaLcK7jp7A3UePmJgs/XYGLM3M8MfhI3gTGgbP5y+w7NuZLOu89cABxMcnQFZGFo51arOS4ub9++EbEAQdTQ34BwfD3NiYiUNwWDhnSUwdMQwRUVE8TrKqpGdkwrFOLfTu0B5nr93A8QsXWaiJZJtJvGnOxHF8H387X2YFSLp/1UJYVor6PBXn+KysZMTG3YOsSho0DKpDUZkCQT89J704YxHnViQEcpCZkYyk2CCkxydBXbkuFBWL/i4lxKSWIFy8eBq9ew+AgYEhTp06Ale325g86VsYG5ngwSM3PH58H/37DS19glDMcs8FEQRSP6Q6BiQ2RNoDlFVgb2/PpZMpxZD+TdYFihEgCwBZCDZu3MhVFak2ApEDUjsk4SNSVaR+aNEni0BezQQiCCSJTCSCrjlv3jyuznj37l3e9RORIOJA6YtEVmjBpms0btyY1RZpIR8zZgwTD8m4SP+AxkBujVatWrHrYsaMGUwGSJKZLBB0/C+//IIff/yRa0GQIiSRCro+6TVQXAbd36fsCAtNEErBgkAEgVIIM7Oz0Kt9e1SvaoYNe/bx7v3cdRfs/W0lVm7/gzMG+nXuhLCoSCxbvxkrf/yeVQ2pJO+U4UNx38MTwWFhaNXICV4+Pjhw+gxmjx2D8zduIDE5BV9/1RsPPJ7i99278euc2QiPjOLshbZNGiPgTTB+XLkaW5ctxp1Hj+AbGIR5kyexBDMdQ33SMeQO2b58CYwMDVnSgAnCsRMICY9AaHg4OrVqgZYNG2Dpxs3o1LwZth88jHlTJ4PcFkGhoVygKTImhj8f2e8rTsMkd8aK2d9yKuWB02fxy+xv+a3946rV/PkFl5tcv4HuMSQigsWbBnTtzLUfrt1zxdJZ30BJUYnrQ1Bp6Y7Nm7PsM5WsJkXHj8VRfNklIgeJyc+RluMLfbOGkFcgxVdRsOnLzkHFvlp2dibiI7yRGZ8DDTX7T6oHItUEoVevATzDR47uQ3RUJMst9+87lFMenzx5UG4JAski006fFv9Hjx69JQhkQSBLAy2cpDNA7gNKTySzPKUvkpuAFmdyFZAKIrkEaOElK8PKlSu5P4o5kDQJQSANBKrrQIs8uTY4jz4oiHf8dC2KSaDASTL50+cUx9ChQweQa4QqNlKaI8UqkAujW7dubNm4c+cO13YgSwPdC/VJwZh0HTqGlB2JMJAFgqpLUlEoUnikPonI0D18Sis0QSiFGAQiCLS7N9TXQ2RMLFsGbrjdR60aVtjy1yFsWfozJi9YxPNZpXJl5GRnw9vPF/OnTYWvfyCi4+IwbcQwRMfFws3DgxfrF36vWMtgxfezuGBSl1Yt0bN9OwQGB2Ph7+swachg6GprM6kIjYzgxZ8W6x0rlsPj2TP4BgVh3pTJeBMSClcPD4RFRLDb4crdezi5dROqmpjwwishCBFRMahiZAiKcSANBNrd0yK+dP1G/DBpAv63dRtCI6JgYVqFxx8WFYUhvXpwn8pKSpg0dAgu374NiqlY9t0sdnuM/uFH/DR5Io5duIj6dWpjUPduXFti7srfULVKFWRkpONNaCj+98Mcll2nWAjSeejTqQN+2bQVK77/jqWfpanl5GQhOvYatEwtoKJOJYMrHjkgixW9P8h6SKWQqYgYxZVRnRByh+ZaptLZTUnBuYlJKVCQl4O8ggKSkpKhraXBzx69x+Lic92ZeXEkF5aWZu47ikpGk4uNC5VRtAe7WpOhqqr0Sa5KaXqWijOW9NRoxL7xhrqiIxQUiq5kWoIEoeSyGMjFQBaE1q074JH7fcTHx6JH935cAjo+LhY2NrURFOSP/v3LjwVh06ZNvMuWFFsiIkC7+wsXLjBBqFevHpvd6X/6otBiT6Z++px+Jy0DWsQp4LFFixbsbqDPiWxQjAEVVnofQfjuu+84m0ES19C1a1eOQaDz6AtKForRo0fzYk7uATqO3Ap//vknj5GIAFkD6DwiCURSbt++zRYOCriUEARScKT4iu7du7PaI90zkRByS5B1hGIQyMRNRIeIz6e0QhOEUrIg0IuSChgtWrsenVu2YMniujVt8PPajdi8dBGmLVyMLq1boXn9+shBDgJev+G/U60EIhXjBw3A4fPn4froMVo3acSBgmR9mDZ8CMsh0666d8cOvID+vHY9xg4cgKv37sHrhQ86NG/Kbo0Fa9Zi3YL58Hj+HL5Bgfhhwnhs3LMP7s+es9ASKSxu2rcfW5b8zAvvW4Jw9ARbGfp27ohft/2BmlaW0FRXR/umTfDjr6vww+QJWLtzN2paWaFr61b8LJNFwMzEBAfPnOW4gzH9++HK7Ts4d/0GFs+YjqSUFIyak0sQ/r58BfY21hjUozsvHD+u/A0WpiYctExWkCXfzuCx3HN/jN3HT8DIQJ+Pmz9titTVeaDYg+i4G9C3tIeCYtGr6H3Ksy9t53h6+3AZcV1tDdx180THdo3h8dQHlQx0UcsmN5jV+/krPPcJQAMHW1y+7gYT40rQVFfFc59A9OvVlueVLGebth+Grq72W5pFzxbFuYz9ug90dbRw/9FTPPcJQhMnO2iqk8ZHNk6evY7WzRugWlXpIo9fcp643HOgK9Tl7MtPuefcGIQTSE9PY58dVW80Nc0V4zl0eC+SEhOgoqoqHTEIJeBi2Lp1K5vXKdCPdvXk8ychI9OSqr0AAB28SURBVCqURK4DCUGgssqkikiLKvnsSTaZKiv6+vrywktme9qZU/wALdz0k3bp3377LZv6iThQDQYJe5dYEGjnTm6JX3/9lV0KCxYsYEJBBIFiH6isNJERKu5E16d4B3I/0G6fxkjiSfkJAlkiSFGRXBJ0DN0DkRs6llwM5FaQEATaMZNk8/LlyznmYfz48UwWPqUVmiCUkgUhNS0VU4YNxcBpM6ClqYlxg/pzMOD81euw97dfsWr7H0hNz2AJZApcpMBG8vdfvX0P3r4+GNq7J3YeoQJI1dGnYwecvnINfx45glU//oDbDx4iMDgUYwf2h/tTL6zfs5fN+OTGILXD/l074/y1G7y4b1+xFM98fOHq/oQDH5du2IT6dnXQr3NnXL1zFyu2bsPhdb/D0twsnwUhGlOGDcaC39fBxz8QM0Z/jZqW1fDdshX4cQq5Km7h6YsXmDtpIqdu7j1xEiP69MF5F5cPEIS5WDH7O9y8/4BjIqZ//TXehIdi3a69GN6nF9eVCAkNZ4JAu8WYuDgsWrsBrk8eY/m336J5A+lLxc3KohRSIgj1oKBY/EDqT/kulPY5/oHBOHT8Elo2dYDrg6fo2rEZTpy+hn6928HUxBCxcQnYsO0wXvoGwdLCBMEhkdDQVEVEZCwq6eugZTMHdG7XBK/fhGHmj6sxdmTvXBlvsjykpmPvwbNYsWgqTE0qIyo6Fldd7nM8FrnZallX4987tGkMJQU5mJkZsQWrorWsrHREBd2Dmmw5IwgXLvyNevUacD0GPT39XFNTTg4S4uM55dE/wBcD+g8r8zEIzs7OnFJI5ntauGlRpuDAYcOG8S6aAgElQYoU8EfBi+RaINVCWnyDg4P5HDLb9+3bl036FG9AQYX0OX1GMQb0GS3av/32G0ssU6NjKUuBYgTICjB06FA271PVRzqONBkopoDIB+3+ySJBFR2JLBChIHeBJMhxyZIl7HagQEOKWXj48CG7LI4ePcpWEDIzUl0IWvwpxoD6pGtIqnFSMCZZDqhwFPXzqf7kQhOEUrAg0A4/LTUNU0YM4x37A8+nWPnD93gTFoZlm7ayz58Wv837/oJf0Gu2DnRoTuWSO+Oh51MmC7SIW1tY4K9TpyAvJ88qh2TGnzFqJCrr62Hr/kPwCfBntURSHZ0ydDB8g17jyLlzUFRQgr6eNrsTKDBRQ1WV6zXY17RFrRrV+RjCnbIkvHx8MXfSBDSuZ88vXXIx7D91BlExsZg8dDCXlb5y9y6WzKS4AEXM/+13zB4/lse8+a/9HG8gL6+Ids0ao2+njvjz8FFoaKhjeK+euO7qhsu37mDupPFsQaAsiOXfzoKCojx2Hj4Kz5c+UFZUYGnmzi2as2WB3Ck/Tp741mS97cDBXHL0v19YG0LaWkUmCPSecLnjjr/PXoef/xs2/78OjkB1S1PIycvBzKQyenVrBXOzyli2cgcG9evE2TXsPpABu5FCw6Lh9+oNvp8xHCFhUfh98wG2LLyt8ZGdg/S0DEwa2xeGlfSQkZ4JWTkZRMfG469D52Ffpwb+PnsD8QmJTDy2r58Hsyrk6qlYrVwSBD8/H1z4J0ixsqHR2xkls/az5154/OQBMtIzMKD/0DKf5kgy0rTY0i6aXs7kqycTPlkH6PeYmBh+KVK6F2kk0E6cXtgS8SOyqhC5IBJBCzrL58bEcJoj9UWBhRJ9BfqMLBMSQSRJSiFdjz4jskHXpf8pdkGSTkljpN/pi09BhhIXA/VH/6brUFAiERJa8CmFkRZqIjLkMqC/0XjJRZE3zZHuhe6Rjr916xaILFGWQ9V/tP4/5assrQSB5oXSCOknmfApTZHcDZX0dEEpkBRfUFk/lwhTFD8JHdE86+noQEVJiV06tCOnuaaFnQIAM7OyoaKsxLWBNTXUeaEm4aPEpCQujkQvY3IB0DWj+PgsjvSnudBQV+f6DOQyoHRKOo76p2dCldJNs7Ohra7OljouP0wplJzWmg1tLU1Oh6T4AZJoJiZCxEFHW4t3eJSBQcfS80PFmeiakqwMug6lOlIsBv2NSD+5D6gfOpcwiqVUWbp3bW22JCUkJPLYiQjQ9WMT4rHzyDHeEY4Z0E/q3Av03FZkgsDPenwiuw7u3X+Ku24eSEpKgbqaCurVtUEDh5qoU6s6P2vH/76KiKhYZGVnwUBPB1nZ2XB94Il+vdohJSUNTRvVxZkLN+H60AvZWe+miMrJy8LRviZaNHGA28OnUFVRhq1NNazdfIBdT2HhURjSvxOu3XiA+XPGoarZv2vJp7xbyuI5UkQQSi4GITIyAk+9PWBftz6bYSWN5JaPHT+A+IR4NHJqhrp2/1YcLM7kFSvNsZguhuKMuzycSy8JsjhQZUoKoKT0yE/RP5BgIa0EoTzMlTTcA1lYqBKl54sXmDlqJFs+PtXa9DnvpyITBCKgHl6+uHbzAVSUFWFhboKbd9zRv3c7PH76EmFhUejWqTmsqpkyydy84xjU1JQ5pZYCGG+7emDcyD6wrWEBIgH+ASFYveEv2NW2wuvgcCbORob68H7xCsMHdkVtW0sEh0bgxq1HTCCPn7qKnl1b4E1IBHp1bYUde07im0mDYW4qCEJRn3mpDFIkBkr/0xeffpJAioK8wmd7EQiCUNTHpuSOp5fJkydP2N1BrhWyhBSnFVoo6QvHIBTnnsS5/yJAwkhuTzw46r2uTU0ovUeaurQxq+gE4YVvICIiY1DDygy+r17j1DkXjPu6N2cdvAp8w5azKiaGLJTl6e2LwNehuHXvCdRUlNC4oR3satdA5Uq6bIWivuYt3oSBfTuydYHcWGSJOHnmGiaM+goNHGuxiyIsIgr3Hz3DY88XaN3MEbddn6BVc0fsOXAWs6YMFS4GxVx59KK0EiQIJSe1nPcGgl4HwPXebbRu0xG6OrpFubdCHysIQqGhkvoDhQVB6qeoQgywIhOEjIxMnLl4E4f/396VgFVZreuXYYPMIBtlFEQQZ0UBUckBp7JySDNPanr0lGV2qmunbsc6lefee86tW91O59rk7dig2cEcSgsNnAdUxFmRQeZ5nmEznef7CCNA2Ju9oQ37W8/jIw+sf/1rvWv9/3r/b33f++2JQG1dHdIzcpGWnsNkQamkI0kTPPLQbMyeMZGdGMP2RsDG0gKp6Tms8OnmNgA1qlq8sWkdhg/14t+//bcvmQzGJ6ayQueQwR4s/LVuzSIM8/XiI4XPv9oPa2tLZOcUYMrEsUw4VDUq1NbXYf3ah+Gk1DzMr7cvVj06YtANQSCLQU5uNi7EnOW5SUpKwI0b1zB79jw+J2fLAow4D0NQ4CRYW2sfQiQEobc/Bj/3XwhC35nL3jwSQyYING9kGcjMyUfMpVj+6ndxViIvrxhBASMwfOhguLsOhEJhgl37ItmPZnLwOHz7wzHe/J2dHHHg0ClseGIpfL09EH87FSfPXAYlNrt4ORamClOMGenD1gWyNvj5euLS1Tjs3heJdWsX46tdBzFrWhBbICwtLXD+4g3062eGSQFjoFCY9uZlpXHf+yRByMxKx5mok5ywKSLiB4wfHwRXF/c7Xq6EkqWFJUKmzGDHN22LEARtEdSf69UmCHLEoD+T1gd7YsgEgawGJ09f5C94e3sbBPqPwNjRvrh8NQ5nL1xHdk4+pocEsPk/LT0bZmYKKB0dEHnsHH8AWllaslBWyKSxKCoqw9GT0agor2JdkKSULPZLGORGCp9GbDGYMTUAMZdj4djfHhPGDcNn2/cjOS0LNlakXglk5+ZjxbL7MGHs8E6TkvW1pahHBEF3Too0SSwYdPII/1u5Yi2MjZviX6lwshYHR1hbdT0JRcuFIASh7zwWahOEHg5z7DsIy0jUQcCQCQK9u7Oy81FUUsaWg/72tnf8yQqLS5CZlQcHe1u4ujhxvo7m9z1FPpBVgPwUmktZeQWHSJIzc3uFlBfd3AaCjjWsLPrB3FyBnLwiZGXnobaOVBvBRxPkEMkRPwZW9Igg6OaIoXn+CgoL8M67/4l7QkLZq/3wkXAmDfkF+SgtKcKGDS9icvA9OmGEWhEELZM1Gdh67fbhqk0QxILQ7XNhyDcwZIJgyPOub2PXI4KgOwsCxcWHffMlzp07jddfexOkhUDkICMjDbv3fg1XV3fMmXU/x+TromhFEHKzsTPsE3z00Yc6ISu6GI8ht9FMEJ579jW46FG6Z0OeE0McOxOEsuNQehuukqIhzru+jbk7CQIJsZ2Nugb/AG8EBg1rd+hGjXRoxEcCurEg0As+8nA4du/+Cg4O/bFx46twsHeAqlaFw0cOMUkgBUU6XjAlMZifpDe1mRitCIJYELSBXufXigVB55BKg11AoDdYEJpCyOtRX0dJkMDCWiR6RkqGJGBFEQW6KLQ30BFBQyMJHRlxQiZyRtQmgVVT4iao/f6nXYo+MklVrOWeQSJlpJ1AhY4jqF+EgbraGiTsRO2SsJe61+gCU3Xb6E6CQAJtUT1NEDgzYVoKEhJu4fz50/AfH4To6CjOy5CenoKGhnp4evpwPoIH5i3CyJFj1MXqrvW0IggilKQ1/rpsQG2CID4IuoRd2mqFgL4TBHL4Ixnk/eEncTspnZ0DSYp48YJQxCWkIisnHyuW3sebpTaFQhHPx9zAwcNnUFRUylEEgeNHYt6cKb/wNdD0Ht//eJKVNYMmjFRrYyYi8OORs6xKGjotkG9HY9785lZcvR7PmSONjY0wQNkfj69exFios+FThMa5CzewZuV8VnLUt9LnCEKzNSIpORFhu77EqseegJ2tPVsQKJsjSSwvXPAws0CFwkzrBUz3E4Kgb8u66/0RgtB17ORK3SGg7wSBEiVt2RoGG2tLLFs8hy3AYXsj4eXpwhLgGZm5eHzVIly5Hs8Oh1RI1pi0BC5euYXc3EK+lgSLyDJw/sINjjygjXXMKN871ofYuCS8/X/b8dADoZg0cTTrIRyMPIM5ocEY4u2BqHNXUVxcCicnB26fRJXyC4pZB4EsGP5j/GCqMMGpM5c4dJIyQZLD4Zvvfc6pnZ9+fCnSMrK53frGBowa5s0ZIc/H3GSrBfXJc5ALb/z/8eZWODjYYeOG5UwIiCD84dX3eAwPzg1BVY0Kf33nHxg90gcL5k3DpavxnFBqoFN/+I/1Y4fKK9fjWNfB0rIfgiaMwtUbCTh+KgYbn1nO0Rf6VvSIIOjOB4FAvp2UiLCwL7BmzXo+aqAkTd+Hf8t5BRYvXAZjNlHppmhHEMQHQTezoJtWhCDoBkdpRTsE9J0g0MZGEsRrH1uIUcObkrcVl5Zx0qPjp2N4w503dwrC9kTC08MZN+OS+d17/+zJ2HPgCKsgUl0KK0xOzeK8CyRlTDkXVi9/gHOD0DEFJWyKOHIW//vfL7AZnsz5lHmRohVoY6XwRNqQKe3z6FG+SE3NYnISMtmfczgEjB8BeztrfLM3kjUPsnMLWaZ567Y9sLK2ZMGl/eEn4DxQyZELqWnZ2Pj75di0+QOETg3gD0iSZF67YgH+/sk/4UgE4ZnlsLP9mSCMHT0U98+ZgorKavzP+18wKSEykJ6VA29PN5aNnjrZH2bmCoQfOs2EIiUtiy0glIXyzLmrQhB6ygeh+bFMSU3GgQO7seyRVcjLy8Hn27eisDAfv131JAICgu+Ex2j3GDddrR1ByMHOsI/FSVEXE6GDNtQmCBLFoAO0pYm7IaDvBIE25u1fh+OJ3y6En68XD4MSglFoYHjEaSYIK5fNw4XLsUhJyUJU9FWUlFZg86Z1nBeBxY0mjkFI8DhcuhaHz7Z/h3Fj/BAcOBpTgsexFDYRhF17IzjV81t/fvZOqCNZKMorqvDaf32EZUtms+rhsZMx2P3tEbYOuLgosfjBUCYwqto6jPcfjs1/+RjBgaMQFDASIcH+nOqZ0jzPmDoB0RdvIik5g8WSLl+Lxwfv/jveeX87/vjCGhZI2rR5C1567jEcPHwWA5T2+M2Se3m8ZEHY8Ie3EHXuChzsrKEwa5JwpgRPO8IO8jHIpMDRLOZECo7kbOfmrMTq5fP5COa1v3zEgky34lOEIPQ0QaDsXnW1tTAzM+csguSDQBNqbt5PJ8cKLR9sIQh950WvNkEQH4S+M+l6OBJ9JwiU6fC9D77C+LHDMP/+aZxNcc93R1FZWQVbW2v+ivca5IqIo2fx0IMzEH87HYePncdf39iAzMw8TrIUcfQ8XJwdeYOvqa1DdlYe9h44ipc3rrljlYi5cgt/++ArvPT8KpZEpvvu2HUQPt7uOHwsGrNDJ2Ju6CQcOHgCR05cgJenK3wGu2Pe3BD8/+f7UF1dw5LMdMxRVlGJvfuPYulDs5CYlAF3FycWR/p85wEsnh+KsvJKbPkkDO+//SK2fByGl/9tNW/6L7/+Pl56djUOHo6Ck9Iejz78M0F44dX3ODX0A3NDfjq2NkVlVTWToGlTxmN6yARs/+f3nHKajrWJGD31uyVIuJ3GJGTOzIm4EZskBKGnCUJPPvNCEHoS7e69lxCE7sVXWlcPAX0nCOR5f/rsFc6ZQJ779PFFYkNLFs5CRmYOUtNz4TvEg5Ms+Xq7c2bE2LhkbN70JL4LPwEzhSlbASiTIjkeXrx8C/a21sjJK8TTTzyMwYPcmlK5V1Ri3/6jIKJgY2XB/g1Oyv5YunAmO0l+/+NpKB3tUVRcilnTg3DzVjK8B7vh3lmTsW37d6iqrMHoUT78FU8Wg5zcfDyyeA47VhLBmDk9iBUYhw4ZxGmjr99MxBt/XIdtO/bjpWcf47698ucteOn51Th+5iLOnb+GV178HdxdB/CYX37975gYOArz75t6J7qBHOGpX+QfYWtjhfzCEjx43z3shEj5JUjkqaikFGNH+mLgQEc+Ynhu/TLxQWjn0dB5mKN6j59ua2lPED7Bhx9u0bllQ7ejNIzWqqursWjRIjz/7GtwbkcHoa6kAKrIHfB/9DEY6yBE1jBQlVFqikBDfTUKS0kHYRwU5trni9H0/urUJ0lkOrMn6WPazEn1kHwLiorLQESbNsKE2+ns7NevnzknRxruNxjpGTnsvEcSyV6DXFjllpwLa2tr2V/A28v9F6GEZG2gv5eWlrOqITkNOjlS6HotEm+n85e/ra0Vn/fn5hfxV7pjfzu2GhCRoZ8psqKmthbWVhYYMtgdZWUVSEhKh5eHK3LzC9kZ0VyhAIyM2GeCfBXIJ8LYGHwPL083kFIjjXeYnxdsrZtkmMkSQBYTJ0f7X0QtkBUhKSWTfSqob4MHuXKUA2WdLCgs4bH7DPbgZFTFpeUs/ayLkHt15k2TOkRU81OjYW0yDmZmTppcynWLbsfj2okoKBc/1TYqVbMwR906KWo8Ei0u0IYg5OXn4uuwrXj33bdh9ZP2txZdkUu1RKC0tBQrVqzE75/ehAEDnNu0Vl9aCNXhnRizeClM++lfWJKWw5fL9QSBxsZ6FBUfha2HFyysXbSK+deTIUk3eiECqqoCFGfGwtpsAhQKDbNZNjaiID4WN6OvwHH+Wm0Jgm6Ekn6NOdCGIBQVFWLXns/wwgvPwdPT89fovtyzBQLJycl4ZdOfsHbNc3Dsr2xLEMpLoDr+DfymT4eVk+b50QVsQUA9BBpRURmPqvpbUHpOhMKM8guQFI8UQaBnEGhoqEVJ7g3Ul5nA1mosjIzNNLoxCWZlX7mI1LR82M1c0vZazSwIhkkQKirKsWffDsy9NxQzZ4ZqNAFSWbcI0Jni8ePH8c03+/HIklWwsWmb6bO+uhLVUeEY5OWMAToQ2dLtCKS1voRAfX0VSkqj0aAogN2AkTC3VMLISDvhob6Ej4yluxBoQK2qHOUFiairUMHGcjwUiv4a36xepULi8WMotXSG1dhJQhAmBPq1AaGmuhZb3t+DqdMC2s0lXldXi4OH9sPCCnj66fWcWErKr4MAhWl9+umnqChrxPRpc9qdi4b6OlRdPQu78gz4zJoLI/FD+HUmy0DuSmfANTUpqKpJRl19GRobWJleiiDQbQgYGQHGphYwN3WDpaUvTE3I30Jz61VNSTGuhR+EIvgBKJQDhSB0hSAQajdjr+PsucN4av0T8PX17baJl4Y7RiAuLg4fbPkY06fdDy9P77tKpaqyUlF/+Qj8pobAyqmdhS9ACwI6RIDS05NPAuUBaPonRRDoTgSayICREeWHMOnyjdLOnUZ2fiWsQh5s/0NKjhiAziwIhH5lVSV+CN8Ldw8lVq5cgX7i/NblRdnVCykD6M6dXyMxIQMPLfxNh3PQoKpB1aUTcDSthkdQMEzNxVmxq7jLdYKAINC3EKCj2orcbMQfOwajsTNg7ubN0SFtimYEwTCjGJpBI+XHL3d8jHXr1mDq1KkS8tiDzwyFYUVERGDbP7Zj5Yon4eHu0endawtyUBL+JfymTILSbwSMtUxK0+kNpYIgIAgIAvqOQGMjVJUViD94ABV2HrAaPw3GZubt91ozgmCYTorNyJHaY8zF8zgUsQ/PPLMeQUGBrF0upXsRIL+DqKiz2LbtC0yZPAsB4yeqlYUNDQ2oSomH6sIhDAkOhuMQHxibiv9I986WtC4ICAL6jICqrBTpMdHIKaiE9eR7YWpjf/fuCkFQ74ihGUHarC5djsaJUz9i5sxpWLBgAWxtbdXbsPR51ehh38gMVlZWjr179yIy8hhCJs+Cv38AzBTqk7LGhgZUJ91E3bVTcPZyg6t/IEz6Wch86eF8S5cEAUGgexCgdyl+OlZIiTqFUljBKiAUpvaOHb8LhSBoRhBo+khZ68aNK7gQcxr2DjaYOXM6/Pz8WETJ3Nyc1bbUyTPePUuh97ZKi5isNKTwVlFRgZs3Y3E48girvgUFTMUwvxFdstg0UpsZt1EXFwNLk3oMHDoUNs6uMKG5MjWFEUmxtXf+1nuhlJ4LAoKAgSPAjrP1DaivVaGushL5CfHIz8hAnb0b+o0I7Nhy0IydEATNCQJhR/KgZeVluHQpGleuRcPS0hzDhvnB1dUFNjbWnOpUimYIMKZl5cjMzETszVuorq7D6FET4D8uAFZWWmLa0ID66irUpMSiLvEqzEwaYTdACUs7O1ZbFEKn2VxJbUFAENBnBBpBIkg1FRUoLyhCaV4h0H8gzIf6w1TpAiNThXrvPCEIXSMILZdGVVUVEm/HIyEhFlnZGSgrK+Uv4Z4s5H/a24OryPJCwkeuLm7w8RkO78E+sLCw0DmMDbUqqHLSUJeVgrqiPNRXVQIcokalK0hqck1HdTVp526w6Kr9rvRFk2t01c/ehkPrcesKh+Z2+vIc6GpsrdeMruaguV1d9VOTdtqOycjUFCbWdkwIzNy8obBXam4pFYKgPUG4Y42hcx4pOkGgR77oZb50MlfSiCAgCOgxAhy9qLmIEo9ICILuCIIeLxHpmiAgCAgCgoAgoBkCQhCEIGi2YqS2ICAICAKCgEEgoBlBMGyhJINYEDJIQUAQEAQEAUFAjhia1oA6UsuyWgQBQUAQEAQEAYNCQCwIQhAMasHLYAUBQUAQEATUQ0AzgtCIP728FZZWVjAz6105zzMz87F8ZSgmBA5rAwxZEN5962uYmChgZNxFb0/14JZagoAgIAgIAoJAr0EgO6sASx+dgaCJbfdOGoRRI+s0klJjI+JupaOqqprDJlpvpVSp+XfNP3f0PzfeAqbWdX86ArkTmd5R3fbu3fJ6+tnL2xl2dtZtJoYEem4nZqGivIq1BFpGFDdXvlv77f295Q1aXtfcn+a/t8SqNRYt694tcrp15HPrfre+d+u+djZfzX1qr53mgM72+tDRvHWEZ2drpWV/OsPrbli3XhMdzVXruu3N5d3WSst2W85fR3N0t/FrMm+a4tuVOW59Tcu10B6eHa2VlmPuyffB3fqkTh86WxearLGWgdG95X3Q5gXaQoNF3gdNejSt96rueB+o86yrU6ejfZfXcmMjBnu7wM6+7d7Jz0szQWhvYcjvBAFBQBAQBAQBQcAwERCCYJjzLqMWBAQBQUAQEAQ6REAIgiwQQUAQEAQEAUFAEGiDgBAEWRSCgCAgCAgCgoAgIARB1oAgIAgIAoKAICAIdI6AWBA6x0hqCAKCgCAgCAgCBoeAEASDm3IZsCAgCAgCgoAg0DkCQhA6x0hqCAKCgCAgCAgCBoeAEASDm3IZsCAgCAgCgoAg0DkCRBC+7bya1BAEBAFBQBAQBAQBQ0LgX5hUmAkjt2RYAAAAAElFTkSuQmCC;" vertex="1" parent="1">
          <mxGeometry x="-810" y="250" width="663.83" height="300" as="geometry" />
        </mxCell>
      </root>
    </mxGraphModel>
  </diagram>
</mxfile>
